<?xml version="1.0" encoding="utf-8"?>
<!-- Generator: Adobe Illustrator 24.0.2, SVG Export Plug-In . SVG Version: 6.00 Build 0)  -->
<svg version="1.1" id="Layer_1" xmlns="http://www.w3.org/2000/svg" xmlns:xlink="http://www.w3.org/1999/xlink" x="0px" y="0px"
	 viewBox="0 0 64 39" style="enable-background:new 0 0 64 39;" xml:space="preserve">
<style type="text/css">
	.st0{fill:#103C68;}
</style>
<title>angle-arrow-down-primary-hover</title>
<path class="st0" d="M63.4,4l-3.2-3.3C59.8,0.3,59.3,0,58.7,0s-1,0.2-1.5,0.7L32,26.4L6.8,0.7C6.4,0.3,5.9,0.1,5.3,0.1
	s-1,0.2-1.5,0.7L0.6,4C0.2,4.4,0,4.9,0,5.5S0.2,6.6,0.6,7l29.9,30.4c0.4,0.4,0.9,0.7,1.5,0.7c0.6,0,1-0.2,1.5-0.7L63.4,7
	C63.8,6.6,64,6.1,64,5.5S63.8,4.4,63.4,4z"/>
</svg>
