<?xml version="1.0" encoding="utf-8"?>
<!-- Generator: Adobe Illustrator 24.0.2, SVG Export Plug-In . SVG Version: 6.00 Build 0)  -->
<svg version="1.1" id="Layer_1" xmlns="http://www.w3.org/2000/svg" xmlns:xlink="http://www.w3.org/1999/xlink" x="0px" y="0px"
	 viewBox="0 0 64 39" style="enable-background:new 0 0 64 39;" xml:space="preserve">
<style type="text/css">
	.st0{fill:#103C68;}
</style>
<title>angle-arrow-up-primary-hover</title>
<path class="st0" d="M63.4,31.2L33.5,0.7C33,0.3,32.6,0.1,32,0.1c-0.6,0-1,0.2-1.5,0.7L0.6,31.2C0.2,31.6,0,32.1,0,32.7
	s0.2,1.1,0.6,1.5l3.2,3.3c0.4,0.4,0.9,0.7,1.5,0.7s1-0.2,1.5-0.7L32,11.8l25.2,25.7c0.4,0.4,0.9,0.7,1.5,0.7s1-0.2,1.5-0.7l3.2-3.3
	c0.4-0.4,0.6-0.9,0.6-1.5S63.8,31.6,63.4,31.2z"/>
</svg>
