<?xml version="1.0" encoding="utf-8"?>
<!-- Generator: Adobe Illustrator 24.0.2, SVG Export Plug-In . SVG Version: 6.00 Build 0)  -->
<svg version="1.1" id="Layer_1" xmlns="http://www.w3.org/2000/svg" xmlns:xlink="http://www.w3.org/1999/xlink" x="0px" y="0px"
	 viewBox="0 0 46 64" style="enable-background:new 0 0 46 64;" xml:space="preserve">
<style type="text/css">
	.st0{fill-rule:evenodd;clip-rule:evenodd;fill:#3F3F3F;}
</style>
<title>arrow-both</title>
<path class="st0" d="M2.9,27.4h40.2c1.2,0,2.2-0.7,2.7-1.8c0.4-1.1,0.2-2.3-0.6-3.1L25,0.8c-1.1-1.1-2.9-1.1-4,0c0,0,0,0,0,0
	L0.8,22.6c-1.1,1.1-1.1,2.9,0,4c0,0,0,0,0,0C1.4,27.1,2.1,27.4,2.9,27.4z M43.1,36.6H2.9c-0.8,0-1.5,0.3-2,0.8c-1.1,1.1-1.1,2.9,0,4
	c0,0,0,0,0,0L21,63.2c1.1,1.1,2.9,1.1,4,0c0,0,0,0,0,0l20.1-21.7c0.8-0.8,1.1-2,0.6-3.1C45.3,37.3,44.3,36.6,43.1,36.6L43.1,36.6z"
	/>
</svg>
