<svg id="Layer_1" data-name="Layer 1" xmlns="http://www.w3.org/2000/svg" viewBox="0 0 1146 550"><defs><style>.cls-1{fill:#122e51;}.cls-2{fill:#475a77;}.cls-3{fill:#1f5593;}.cls-4{fill:#0071bc;}.cls-5{fill:#dac225;}</style></defs><title>banner--news-media-sm</title><rect class="cls-1" width="1146" height="550"/><polygon class="cls-2" points="673.95 205.46 1071.9 305.42 1145.66 -0.06 673.95 205.46"/><polygon class="cls-2" points="188.97 523.9 0.28 -2.08 613.31 289.3 188.97 523.9"/><path class="cls-3" d="M505.51,274.68c-179.83,0-325.63,90.14-325.86,201.39,0,26.1,8.12,51,22.76,73.93h606.2c14.63-22.89,22.7-47.83,22.75-73.93C831.14,364.82,685.33,274.68,505.51,274.68Z"/><ellipse class="cls-4" cx="831.36" cy="294.18" rx="241.04" ry="118.32"/><path class="cls-5" d="M591.64,281.81a58.92,58.92,0,0,0-1.31,12.37c0,62.56,98.93,113.78,224.2,118C780.21,348.85,696.46,299.54,591.64,281.81Z"/></svg>