<svg id="Layer_1" data-name="Layer 1" xmlns="http://www.w3.org/2000/svg" viewBox="0 0 1146 550"><defs><style>.cls-1{fill:#122e51;}.cls-2{fill:#205493;}.cls-3{fill:#0071bc;}.cls-4{fill:#112e51;}.cls-5{fill:#dac225;}</style></defs><title>banner--404-sm</title><rect class="cls-1" width="1146" height="550"/><path class="cls-2" d="M461.34,244.21a45.21,45.21,0,0,1,45,45v16.88a45.21,45.21,0,0,1-45,45H319a45.21,45.21,0,0,1-45-45V289.19a45.21,45.21,0,0,1,45-45H461.34m0-31.58H319a76.77,76.77,0,0,0-76.55,76.56v16.88A76.77,76.77,0,0,0,319,382.62H461.34a76.77,76.77,0,0,0,76.55-76.55V289.19a76.78,76.78,0,0,0-76.55-76.56Z"/><path class="cls-2" d="M828.9,244.21a45.21,45.21,0,0,1,45,45v16.88a45.21,45.21,0,0,1-45,45H686.52a45.21,45.21,0,0,1-45-45V289.19a45.21,45.21,0,0,1,45-45H828.9m0-31.58H686.52A76.78,76.78,0,0,0,610,289.19v16.88a76.77,76.77,0,0,0,76.55,76.55H828.9a76.77,76.77,0,0,0,76.56-76.55V289.19a76.78,76.78,0,0,0-76.56-76.56Z"/><path class="cls-2" d="M1196.21,244.21a45.21,45.21,0,0,1,45,45v16.88a45.21,45.21,0,0,1-45,45H1053.82a45.21,45.21,0,0,1-45-45V289.19a45.21,45.21,0,0,1,45-45h142.39m0-31.58H1053.82a76.78,76.78,0,0,0-76.55,76.56v16.88a76.77,76.77,0,0,0,76.55,76.55h142.39a76.77,76.77,0,0,0,76.55-76.55V289.19a76.78,76.78,0,0,0-76.55-76.56Z"/><path class="cls-2" d="M93.78,244.21a45.21,45.21,0,0,1,45,45v16.88a45.21,45.21,0,0,1-45,45H-48.61a44.6,44.6,0,0,1-31.73-13.24,44.64,44.64,0,0,1-13.24-31.74V289.19a44.64,44.64,0,0,1,13.24-31.74,44.6,44.6,0,0,1,31.73-13.24H93.78m0-31.58H-48.61a76.78,76.78,0,0,0-76.55,76.56v16.88a76.77,76.77,0,0,0,76.55,76.55H93.78a76.77,76.77,0,0,0,76.55-76.55V289.19a76.78,76.78,0,0,0-76.55-76.56Z"/><path class="cls-3" d="M304.38,316h-196c-7.47,0-13.59-7.27-13.59-16.15v-4.44c0-8.88,6.12-16.15,13.59-16.15h196c7.48,0,13.6,7.27,13.6,16.15v4.44C318,308.73,311.86,316,304.38,316Z"/><path class="cls-3" d="M673.88,316h-196c-7.48,0-13.6-7.27-13.6-16.15v-4.44c0-8.88,6.12-16.15,13.6-16.15h196c7.48,0,13.59,7.27,13.59,16.15v4.44C687.47,308.73,681.36,316,673.88,316Z"/><path class="cls-3" d="M1040.9,316h-196c-7.48,0-13.6-7.27-13.6-16.15v-4.44c0-8.88,6.12-16.15,13.6-16.15h196c7.47,0,13.59,7.27,13.59,16.15v4.44C1054.49,308.73,1048.37,316,1040.9,316Z"/><rect class="cls-4" x="736.03" y="169.27" width="45.52" height="97.36"/><polygon class="cls-5" points="732.25 180.48 688.17 109.34 666.42 128.81 732.25 180.48"/><polygon class="cls-5" points="786.5 180.48 830.57 109.34 852.33 128.81 786.5 180.48"/><polygon class="cls-5" points="759.37 166.82 773.97 84.42 744.78 84.42 759.37 166.82"/></svg>