<?xml version="1.0" encoding="utf-8"?>
<!-- Generator: Adobe Illustrator 24.0.2, SVG Export Plug-In . SVG Version: 6.00 Build 0)  -->
<svg version="1.1" id="Layer_1" xmlns="http://www.w3.org/2000/svg" xmlns:xlink="http://www.w3.org/1999/xlink" x="0px" y="0px"
	 viewBox="0 0 1146 550" style="enable-background:new 0 0 1146 550;" xml:space="preserve">
<style type="text/css">
	.st0{fill:#122D44;}
	.st1{fill:#064E96;}
	.st2{fill:#577795;}
	.st3{fill:#E0CB26;}
</style>
<title>banner--thank-you-sm</title>
<rect class="st0" width="1146" height="550"/>
<rect x="396.8" y="151" transform="matrix(0.3731 -0.9278 0.9278 0.3731 110.1515 523.2812)" class="st1" width="91" height="58.2"/>
<rect x="620.5" y="191.6" transform="matrix(0.9375 -0.3479 0.3479 0.9375 -35.2019 245.4922)" class="st2" width="91" height="58.2"/>
<rect x="1079.4" y="425.4" transform="matrix(0.9375 -0.3479 0.3479 0.9375 -87.8538 419.7763)" class="st2" width="91" height="58.2"/>
<rect x="272.3" y="263.1" transform="matrix(0.9371 -0.3489 0.3489 0.9371 -82.0125 129.2961)" class="st2" width="91.3" height="58.4"/>
<rect x="124.9" y="66.6" transform="matrix(0.9375 -0.3479 0.3479 0.9375 -22.6551 65.2622)" class="st2" width="91" height="58.2"/>
<rect x="951.5" y="62.5" transform="matrix(0.3479 -0.9375 0.9375 0.3479 538.2035 989.8219)" class="st1" width="58.2" height="91"/>
<rect x="1025.4" y="288.9" transform="matrix(0.3479 -0.9375 0.9375 0.3479 374.1508 1206.7136)" class="st1" width="58.2" height="91"/>
<rect x="666.5" y="17.4" transform="matrix(0.3479 -0.9375 0.9375 0.3479 394.6962 693.1939)" class="st1" width="58.2" height="91"/>
<rect x="274.4" y="124.7" transform="matrix(0.3479 -0.9375 0.9375 0.3479 38.3309 395.5448)" class="st3" width="58.2" height="91"/>
<rect x="15.1" y="204.2" transform="matrix(0.3479 -0.9375 0.9375 0.3479 -205.3174 204.2685)" class="st1" width="58.2" height="91"/>
<rect x="877.8" y="191.5" transform="matrix(0.9375 -0.3479 0.3479 0.9375 -19.0632 335.0078)" class="st2" width="91" height="58.2"/>
<rect x="756.8" y="141" transform="matrix(0.3731 -0.9278 0.9278 0.3731 345.0257 850.9786)" class="st2" width="91" height="58.2"/>
<rect x="-27.9" y="76.7" transform="matrix(0.3731 -0.9278 0.9278 0.3731 -87.1861 82.6427)" class="st2" width="91" height="58.2"/>
<rect x="546.4" y="81.8" transform="matrix(0.9278 -0.3731 0.3731 0.9278 -5.9278 223.938)" class="st2" width="58.2" height="91"/>
<rect x="756.8" y="295.8" transform="matrix(0.3731 -0.9278 0.9278 0.3731 201.4648 947.9877)" class="st1" width="91" height="58.2"/>
<rect x="1092.5" y="46.4" transform="matrix(0.9292 -0.3697 0.3697 0.9292 45.4862 421.1578)" class="st2" width="58.3" height="91.1"/>
<rect x="1020" y="182.5" transform="matrix(0.3731 -0.9278 0.9278 0.3731 471.6234 1121.2018)" class="st2" width="91" height="58.2"/>
<rect x="90.1" y="329.5" transform="matrix(0.3731 -0.9278 0.9278 0.3731 -247.7581 350.5697)" class="st2" width="91" height="58.2"/>
<rect x="-6.5" y="394.1" transform="matrix(0.9278 -0.3731 0.3731 0.9278 -162.3938 40.1874)" class="st1" width="58.2" height="91"/>
<rect x="148.9" y="189.3" transform="matrix(0.9278 -0.3731 0.3731 0.9278 -74.7354 83.3997)" class="st1" width="58.2" height="91"/>
<polygon class="st1" points="1014.6,0 1010.5,10.2 1064.5,31.9 1077.4,0 "/>
<polygon class="st2" points="813.8,0 811.9,0.8 845.9,85.2 899.9,63.4 874.4,0 "/>
<polygon class="st2" points="485.4,0 414,26.5 434.2,81.1 519.5,49.5 501.2,0 "/>
<polygon class="st1" points="306.2,0 277.7,70.9 331.8,92.6 365.7,8.2 345.3,0 "/>
<polygon class="st1" points="43.2,0 42,3.3 127.3,35 140.2,0 "/>
</svg>
