<?xml version="1.0" encoding="utf-8"?>
<!-- Generator: Adobe Illustrator 24.0.2, SVG Export Plug-In . SVG Version: 6.00 Build 0)  -->
<svg version="1.1" id="Layer_1" xmlns="http://www.w3.org/2000/svg" xmlns:xlink="http://www.w3.org/1999/xlink" x="0px" y="0px"
	 viewBox="0 0 2880 470" style="enable-background:new 0 0 2880 470;" xml:space="preserve">
<style type="text/css">
	.st0{fill:#122D44;}
	.st1{fill:#064E96;}
	.st2{fill:#577795;}
	.st3{fill:#E0CB26;}
</style>
<title>banner--thank-you-lg</title>
<rect x="-2.3" class="st0" width="2882.3" height="470"/>
<rect x="891.2" y="146.9" transform="matrix(0.3731 -0.9278 0.9278 0.3731 424.1962 993.7047)" class="st1" width="112.5" height="72"/>
<rect x="1180" y="214.5" transform="matrix(0.9375 -0.3479 0.3479 0.9375 -9.9243 445.7451)" class="st2" width="112.5" height="72"/>
<rect x="-56.2" y="143.1" transform="matrix(0.9375 -0.3479 0.3479 0.9375 -62.296 11.1818)" class="st2" width="112.5" height="72"/>
<rect x="555.1" y="42.6" transform="matrix(0.9375 -0.3479 0.3479 0.9375 10.8323 217.6114)" class="st2" width="112.5" height="72"/>
<rect x="1573.2" y="41.2" transform="matrix(0.3489 -0.9371 0.9371 0.3489 956.2307 1571.6849)" class="st1" width="72.2" height="112.8"/>
<rect x="2050.5" y="148.5" transform="matrix(0.3489 -0.9371 0.9371 0.3489 1166.5211 2088.8713)" class="st1" width="72.2" height="112.8"/>
<rect x="1219.9" y="11.7" transform="matrix(0.3479 -0.9375 0.9375 0.3479 755.2861 1221.7599)" class="st1" width="72" height="112.5"/>
<rect x="104.4" y="242.1" transform="matrix(0.3479 -0.9375 0.9375 0.3479 -188.1687 326.1285)" class="st1" width="72" height="112.5"/>
<rect x="2275.8" y="71.2" transform="matrix(0.3479 -0.9375 0.9375 0.3479 1388.0549 2250.4294)" class="st1" width="72" height="112.5"/>
<rect x="2844.2" y="71.2" transform="matrix(0.3479 -0.9375 0.9375 0.3479 1758.6857 2783.3245)" class="st1" width="72" height="112.5"/>
<rect x="739.9" y="114.5" transform="matrix(0.3479 -0.9375 0.9375 0.3479 345.9056 838.7786)" class="st3" width="72" height="112.5"/>
<rect x="405.8" y="194.3" transform="matrix(0.3479 -0.9375 0.9375 0.3479 53.2228 577.571)" class="st1" width="72" height="112.5"/>
<rect x="2694.6" y="199.1" transform="matrix(0.9375 -0.3479 0.3479 0.9375 90.078 971.7411)" class="st2" width="112.5" height="72"/>
<rect x="2073.4" y="29.6" transform="matrix(0.9375 -0.3479 0.3479 0.9375 110.2095 745.0392)" class="st2" width="112.5" height="72"/>
<rect x="1348.1" y="134.6" transform="matrix(0.3731 -0.9278 0.9278 0.3731 722.0071 1409.8425)" class="st2" width="112.5" height="72"/>
<rect x="2577.2" y="79.9" transform="matrix(0.9278 -0.3731 0.3731 0.9278 137.9383 984.9661)" class="st1" width="72" height="112.5"/>
<rect x="366.3" y="55.1" transform="matrix(0.3731 -0.9278 0.9278 0.3731 180.2958 449.0905)" class="st2" width="112.5" height="72"/>
<rect x="180.1" y="124.1" transform="matrix(0.3731 -0.9278 0.9278 0.3731 -0.388 319.5826)" class="st2" width="112.5" height="72"/>
<rect x="2843.9" y="307.5" transform="matrix(0.9278 -0.3731 0.3731 0.9278 72.2947 1100.9222)" class="st1" width="72" height="112.5"/>
<rect x="1072.1" y="71" transform="matrix(0.9278 -0.3731 0.3731 0.9278 32.5562 422.6816)" class="st2" width="72" height="112.5"/>
<rect x="1753.8" y="22.3" transform="matrix(0.9278 -0.3731 0.3731 0.9278 99.9769 673.5488)" class="st2" width="72" height="112.5"/>
<rect x="2221.2" y="194.1" transform="matrix(0.9278 -0.3731 0.3731 0.9278 69.6176 860.3582)" class="st2" width="72" height="112.5"/>
<rect x="2398.7" y="163.9" transform="matrix(0.3731 -0.9278 0.9278 0.3731 1353.4141 2402.9722)" class="st2" width="112.5" height="72"/>
<rect x="2523.4" y="327.8" transform="matrix(0.3731 -0.9278 0.9278 0.3731 1279.5559 2621.3291)" class="st1" width="112.5" height="72"/>
<rect x="1869.3" y="183.5" transform="matrix(0.3731 -0.9278 0.9278 0.3731 1003.377 1924.0111)" class="st2" width="112.5" height="72"/>
<rect x="584.8" y="194.2" transform="matrix(0.9278 -0.3731 0.3731 0.9278 -48.6121 249.7512)" class="st2" width="72" height="112.5"/>
<polygon class="st1" points="426.2,470 399.8,404.4 333,431.3 348.6,470 "/>
<polygon class="st2" points="2729.8,0 2696.6,82.6 2763.4,109.4 2805.4,5.1 2792.7,0 "/>
<polygon class="st2" points="2460.4,0 2485,66.1 2590.4,27 2580.4,0 "/>
<polygon class="st1" points="2297,0 2289.9,17.6 2356.7,44.4 2374.6,0 "/>
<polygon class="st1" points="1932.2,0 1904.4,69.1 1971.2,96 2009.8,0 "/>
<polygon class="st2" points="1419.9,0 1446.2,65.6 1513.1,38.7 1497.5,0 "/>
<polygon class="st2" points="915,0 937.5,60.6 1042.9,21.5 1034.9,0 "/>
<polygon class="st1" points="763.3,0 744,48 810.8,74.8 840.9,0 "/>
<polygon class="st1" points="195.9,0 193.7,6 299.1,45.2 315.9,0 "/>
<polygon class="st1" points="55.7,0 43,5.1 84.9,109.4 151.7,82.6 118.5,0 "/>
</svg>
