<?xml version="1.0" encoding="utf-8"?>
<!-- Generator: Adobe Illustrator 24.0.2, SVG Export Plug-In . SVG Version: 6.00 Build 0)  -->
<svg version="1.1" id="Layer_1" xmlns="http://www.w3.org/2000/svg" xmlns:xlink="http://www.w3.org/1999/xlink" x="0px" y="0px"
	 viewBox="0 0 1146 550" style="enable-background:new 0 0 1146 550;" xml:space="preserve">
<style type="text/css">
	.st0{fill:#112D44;}
	.st1{fill:#0084CE;}
	.st2{fill:#064F95;}
	.st3{fill:#DFCA23;}
</style>
<title>banner--contact-us-sm</title>
<rect class="st0" width="1146" height="550"/>
<polygon class="st1" points="166.6,409.3 226.3,550 106.9,550 "/>
<path class="st1" d="M173.2,409.8c81.1,73,184.6,95.6,258.1,59.9C333.1,462.9,130.1,254.3,89.3,156
	C60.2,233.1,91.4,336.2,173.2,409.8z"/>
<path class="st2" d="M232.5,344.2c94.9,86.9,187.5,140,202.2,123.2s-50.2-100.8-145.1-187.8S105.8,135.9,91,152.7
	S137.6,257.3,232.5,344.2z"/>
<polygon class="st1" points="361.1,204.8 305.8,401.8 344,210.8 "/>
<polygon class="st1" points="347.5,225.4 166.5,275.3 361.1,204.8 "/>
<ellipse transform="matrix(0.2298 -0.9732 0.9732 0.2298 686.0673 1076.3232)" class="st3" cx="1023" cy="104.7" rx="55.4" ry="55.4"/>
</svg>
