<svg id="Layer_1" data-name="Layer 1" xmlns="http://www.w3.org/2000/svg" xmlns:xlink="http://www.w3.org/1999/xlink" viewBox="0 0 910.43 225"><defs><style>.cls-1{fill:none;}.cls-2{fill:#073f72;}.cls-3{clip-path:url(#clip-path);}.cls-4{opacity:0.88;}.cls-5{fill:#122e51;}</style><clipPath id="clip-path"><rect class="cls-1" width="910.43" height="225"/></clipPath></defs><title>banner--people-projects-sm</title><rect class="cls-2" width="910.43" height="225"/><g class="cls-3"><g class="cls-4"><polygon class="cls-5" points="221.84 109.47 223.85 134.93 200.79 145.92 225.64 151.86 228.95 177.19 242.29 155.41 267.4 160.07 250.8 140.66 263 118.22 239.41 128.01 221.84 109.47"/><polygon class="cls-5" points="309.43 70.47 311.44 95.94 288.38 106.92 313.23 112.87 316.54 138.2 329.88 116.41 354.99 121.08 338.39 101.66 350.59 79.22 327 89.01 309.43 70.47"/><polygon class="cls-5" points="397.01 31.47 399.03 56.94 375.97 67.92 400.81 73.87 404.13 99.2 417.47 77.41 442.58 82.08 425.98 62.67 438.18 40.22 414.59 50.01 397.01 31.47"/><polygon class="cls-5" points="46.66 187.46 48.68 212.93 25.61 223.91 50.46 229.86 53.77 255.19 67.11 233.4 92.23 238.07 75.62 218.66 87.83 196.21 64.23 206 46.66 187.46"/><polygon class="cls-5" points="484.6 -7.53 486.62 17.94 463.56 28.93 488.4 34.87 491.72 60.2 505.06 38.41 530.17 43.08 513.57 23.67 525.77 1.22 502.18 11.02 484.6 -7.53"/><polygon class="cls-5" points="134.25 148.46 136.27 173.93 113.2 184.91 138.05 190.86 141.36 216.19 154.7 194.4 179.81 199.07 163.21 179.66 175.41 157.21 151.82 167.01 134.25 148.46"/><polygon class="cls-5" points="572.19 -46.52 574.21 -21.06 551.15 -10.07 575.99 -4.13 579.31 21.21 592.64 -0.58 617.76 4.09 601.16 -15.33 613.36 -37.77 589.77 -27.98 572.19 -46.52"/><polygon class="cls-5" points="160.37 -28.58 162.39 -3.12 139.33 7.87 164.17 13.81 167.49 39.15 180.82 17.36 205.94 22.03 189.34 2.61 201.54 -19.83 177.95 -10.04 160.37 -28.58"/><polygon class="cls-5" points="247.96 -67.58 249.98 -42.11 226.91 -31.13 251.76 -25.18 255.08 0.15 268.41 -21.64 293.53 -16.97 276.93 -36.39 289.13 -58.83 265.54 -49.04 247.96 -67.58"/><polygon class="cls-5" points="-14.81 49.41 -12.79 74.88 -35.85 85.86 -11.01 91.81 -7.69 117.14 5.65 95.35 30.76 100.02 14.16 80.61 26.36 58.16 2.77 67.95 -14.81 49.41"/><polygon class="cls-5" points="72.78 10.41 74.8 35.88 51.74 46.86 76.58 52.81 79.9 78.14 93.23 56.35 118.35 61.02 101.75 41.61 113.95 19.16 90.36 28.96 72.78 10.41"/><polygon class="cls-5" points="721.24 52.53 723.26 78 700.2 88.98 725.04 94.93 728.36 120.26 741.7 98.47 766.81 103.14 750.21 83.72 762.41 61.28 738.82 71.07 721.24 52.53"/><polygon class="cls-5" points="808.83 13.53 810.85 39 787.79 49.98 812.63 55.93 815.95 81.26 829.29 59.47 854.4 64.14 837.8 44.73 850 22.28 826.41 32.08 808.83 13.53"/><polygon class="cls-5" points="370.89 208.52 372.91 233.99 349.84 244.97 374.69 250.92 378.01 276.25 391.34 254.46 416.46 259.13 399.86 239.71 412.06 217.27 388.46 227.06 370.89 208.52"/><polygon class="cls-5" points="896.42 -25.46 898.44 0 875.38 10.98 900.22 16.93 903.54 42.26 916.88 20.48 941.99 25.14 925.39 5.73 937.59 -16.71 914 -6.92 896.42 -25.46"/><polygon class="cls-5" points="458.48 169.52 460.5 194.99 437.43 205.97 462.28 211.92 465.6 237.25 478.93 215.46 504.05 220.13 487.44 200.72 499.65 178.27 476.05 188.06 458.48 169.52"/><polygon class="cls-5" points="546.07 130.52 548.09 155.99 525.02 166.97 549.87 172.92 553.18 198.25 566.52 176.46 591.63 181.13 575.03 161.72 587.24 139.27 563.64 149.07 546.07 130.52"/><polygon class="cls-5" points="633.66 91.53 635.67 116.99 612.61 127.98 637.46 133.93 640.77 159.26 654.11 137.47 679.22 142.14 662.62 122.72 674.82 100.28 651.23 110.07 633.66 91.53"/><polygon class="cls-5" points="-0.7 -39.58 1.32 -14.11 -21.75 -3.13 3.1 2.82 6.42 28.15 19.75 6.36 44.87 11.03 28.27 -8.38 40.47 -30.83 16.88 -21.03 -0.7 -39.58"/><polygon class="cls-5" points="735.35 -36.46 737.37 -10.99 714.3 -0.01 739.15 5.94 742.47 31.27 755.8 9.48 780.92 14.15 764.32 -5.26 776.52 -27.71 752.93 -17.92 735.35 -36.46"/><polygon class="cls-5" points="297.41 158.53 299.43 183.99 276.36 194.98 301.21 200.93 304.52 226.26 317.86 204.47 342.97 209.14 326.37 189.72 338.57 167.28 314.98 177.07 297.41 158.53"/><polygon class="cls-5" points="385 119.53 387.01 145 363.95 155.98 388.8 161.93 392.11 187.26 405.45 165.47 430.56 170.14 413.96 150.72 426.16 128.28 402.57 138.07 385 119.53"/><polygon class="cls-5" points="472.58 80.53 474.6 106 451.54 116.98 476.38 122.93 479.7 148.26 493.04 126.47 518.15 131.14 501.55 111.73 513.75 89.28 490.16 99.08 472.58 80.53"/><polygon class="cls-5" points="560.17 41.54 562.19 67 539.13 77.99 563.97 83.93 567.29 109.27 580.63 87.48 605.74 92.14 589.14 72.73 601.34 50.28 577.75 60.08 560.17 41.54"/><polygon class="cls-5" points="209.82 197.52 211.84 222.99 188.77 233.97 213.62 239.92 216.93 265.25 230.27 243.46 255.38 248.13 238.78 228.72 250.99 206.27 227.39 216.07 209.82 197.52"/><polygon class="cls-5" points="647.76 2.54 649.78 28 626.72 38.99 651.56 44.94 654.88 70.27 668.22 48.48 693.33 53.15 676.73 33.73 688.93 11.29 665.34 21.08 647.76 2.54"/><polygon class="cls-5" points="235.94 20.48 237.96 45.95 214.9 56.93 239.74 62.88 243.06 88.21 256.39 66.42 281.51 71.09 264.91 51.67 277.11 29.23 253.52 39.02 235.94 20.48"/><polygon class="cls-5" points="323.53 -18.52 325.55 6.95 302.49 17.93 327.33 23.88 330.65 49.21 343.98 27.42 369.1 32.09 352.5 12.68 364.7 -9.77 341.11 0.02 323.53 -18.52"/><polygon class="cls-5" points="-26.82 137.47 -24.81 162.94 -47.87 173.92 -23.02 179.87 -19.71 205.2 -6.37 183.41 18.74 188.08 2.14 168.66 14.34 146.22 -9.25 156.01 -26.82 137.47"/><polygon class="cls-5" points="411.12 -57.52 413.14 -32.05 390.07 -21.07 414.92 -15.12 418.24 10.21 431.57 -11.58 456.69 -6.91 440.09 -26.32 452.29 -48.77 428.69 -38.97 411.12 -57.52"/><polygon class="cls-5" points="60.76 98.47 62.78 123.94 39.72 134.92 64.56 140.87 67.88 166.2 81.22 144.41 106.33 149.08 89.73 129.67 101.93 107.22 78.34 117.02 60.76 98.47"/><polygon class="cls-5" points="148.35 59.48 150.37 84.94 127.31 95.92 152.15 101.87 155.47 127.2 168.81 105.42 193.92 110.08 177.32 90.67 189.52 68.22 165.93 78.02 148.35 59.48"/><polygon class="cls-5" points="796.82 101.59 798.83 127.06 775.77 138.04 800.62 143.99 803.93 169.32 817.27 147.53 842.38 152.2 825.78 132.79 837.98 110.34 814.39 120.13 796.82 101.59"/><polygon class="cls-5" points="884.4 62.59 886.42 88.06 863.36 99.04 888.21 104.99 891.52 130.32 904.86 108.53 929.97 113.2 913.37 93.79 925.57 71.34 901.98 81.14 884.4 62.59"/><polygon class="cls-5" points="534.05 218.58 536.07 244.05 513 255.03 537.85 260.98 541.16 286.31 554.5 264.52 579.62 269.19 563.01 249.78 575.22 227.33 551.62 237.13 534.05 218.58"/><polygon class="cls-5" points="621.64 179.59 623.66 205.05 600.59 216.03 625.44 221.98 628.75 247.31 642.09 225.53 667.21 230.19 650.6 210.78 662.8 188.34 639.21 198.13 621.64 179.59"/><polygon class="cls-5" points="709.23 140.59 711.25 166.06 688.18 177.04 713.03 182.99 716.34 208.32 729.68 186.53 754.79 191.2 738.19 171.78 750.39 149.34 726.8 159.13 709.23 140.59"/><polygon class="cls-5" points="782.71 190.58 784.73 216.05 761.66 227.03 786.51 232.98 789.83 258.31 803.16 236.52 828.28 241.19 811.67 221.77 823.88 199.33 800.28 209.12 782.71 190.58"/><polygon class="cls-5" points="870.3 151.58 872.32 177.05 849.25 188.03 874.1 193.98 877.41 219.31 890.75 197.52 915.87 202.19 899.26 182.78 911.47 160.33 887.87 170.13 870.3 151.58"/></g></g></svg>