<svg id="Layer_1" data-name="Layer 1" xmlns="http://www.w3.org/2000/svg" viewBox="0 0 2880 470"><defs><style>.cls-1{fill:#122e51;}.cls-2{fill:#475a77;}.cls-3{fill:#0071bc;}.cls-4{fill:#1f5593;}.cls-5{fill:#f4d438;}</style></defs><title>banner--news-media-lg</title><rect class="cls-1" width="2880" height="470"/><polygon class="cls-2" points="1320.33 216.35 2051.61 290.08 2051.61 -0.08 1320.33 216.35"/><ellipse class="cls-3" cx="1637.83" cy="291.55" rx="413.78" ry="117.26"/><polygon class="cls-2" points="451.74 472.08 155.88 -2.08 1218.57 286.72 451.74 472.08"/><path class="cls-4" d="M1568,471.83c-.39-110.27-250.69-199.61-559.39-199.61s-559,89.34-559.39,199.61Z"/><path class="cls-5" d="M1224.29,287.62a34.4,34.4,0,0,0-.24,3.93c0,54.79,132.61,100.8,311.83,113.67C1483.09,352.07,1369.15,309.28,1224.29,287.62Z"/><polygon class="cls-2" points="2880 134.5 2533.25 -2.08 2877.67 472.08 2880 472.08 2880 134.5"/></svg>