<svg id="Layer_1" data-name="Layer 1" xmlns="http://www.w3.org/2000/svg" viewBox="0 0 2880 470"><defs><style>.cls-1{fill:#122e51;}.cls-2{fill:#003e7c;}.cls-3{fill:#dcc424;}.cls-4{fill:#b0a03f;}.cls-5{fill:#77764b;}.cls-6{fill:#0071bc;}.cls-7{fill:#475a77;}</style></defs><title>banner--faq-lg</title><rect class="cls-1" width="2880" height="470"/><polygon class="cls-2" points="2880 0 519.99 470 2880 470 2880 0"/><polygon class="cls-3" points="319.39 267.4 171.96 295.58 171.96 110.25 312.48 83.38 319.39 267.4"/><polygon class="cls-3" points="273.69 227.83 171.96 248.43 171.96 110.25 273.69 90.8 273.69 227.83"/><polygon class="cls-4" points="357.3 260.15 171.96 295.58 172 248.43 273.69 227.83 357.3 260.15"/><polygon class="cls-5" points="357.3 260.15 357.3 74.82 273.69 90.8 273.69 227.83 357.3 260.15"/><polygon class="cls-6" points="795.28 415.17 1085.21 470 2447.41 470 1458.75 283.04 795.28 415.17"/><polygon class="cls-7" points="357.34 74.76 357.34 260.07 172 295.53 795.28 415.17 1458.75 283.04 357.34 74.76"/></svg>