<svg id="Layer_1" data-name="Layer 1" xmlns="http://www.w3.org/2000/svg" xmlns:xlink="http://www.w3.org/1999/xlink" viewBox="0 0 2452.3 237.09"><defs><style>.cls-1{fill:none;}.cls-2{fill:#073f72;}.cls-3{clip-path:url(#clip-path);}.cls-4{opacity:0.88;}.cls-5{fill:#122e51;}</style><clipPath id="clip-path"><rect class="cls-1" width="2452.34" height="237.09"/></clipPath></defs><title>banner--people-projects-lg</title><rect class="cls-2" width="2452.3" height="237.09"/><g class="cls-3"><g class="cls-4"><polygon class="cls-5" points="220.84 107.97 222.85 133.43 199.79 144.42 224.64 150.36 227.95 175.69 241.29 153.91 266.4 158.57 249.8 139.16 262 116.72 238.41 126.51 220.84 107.97"/><polygon class="cls-5" points="308.43 68.97 310.44 94.44 287.38 105.42 312.23 111.37 315.54 136.7 328.88 114.91 353.99 119.58 337.39 100.16 349.59 77.72 326 87.51 308.43 68.97"/><polygon class="cls-5" points="-41.93 224.96 -39.91 250.42 -62.98 261.41 -38.13 267.36 -34.81 292.69 -21.48 270.9 3.64 275.57 -12.96 256.15 -0.76 233.71 -24.36 243.5 -41.93 224.96"/><polygon class="cls-5" points="396.01 29.97 398.03 55.44 374.97 66.42 399.81 72.37 403.13 97.7 416.47 75.91 441.58 80.58 424.98 61.17 437.18 38.72 413.59 48.51 396.01 29.97"/><polygon class="cls-5" points="45.66 185.96 47.68 211.43 24.61 222.41 49.46 228.36 52.77 253.69 66.11 231.9 91.23 236.57 74.62 217.16 86.83 194.71 63.23 204.5 45.66 185.96"/><polygon class="cls-5" points="483.6 -9.03 485.62 16.44 462.56 27.43 487.4 33.37 490.72 58.7 504.06 36.91 529.17 41.58 512.57 22.17 524.77 -0.28 501.18 9.52 483.6 -9.03"/><polygon class="cls-5" points="133.25 146.96 135.27 172.43 112.2 183.41 137.05 189.36 140.36 214.69 153.7 192.9 178.81 197.57 162.21 178.16 174.41 155.71 150.82 165.51 133.25 146.96"/><polygon class="cls-5" points="571.19 -48.02 573.21 -22.56 550.15 -11.57 574.99 -5.63 578.31 19.71 591.64 -2.08 616.76 2.59 600.16 -16.83 612.36 -39.27 588.77 -29.48 571.19 -48.02"/><polygon class="cls-5" points="159.37 -30.08 161.39 -4.62 138.33 6.37 163.17 12.31 166.49 37.65 179.82 15.86 204.94 20.53 188.34 1.11 200.54 -21.33 176.95 -11.54 159.37 -30.08"/><polygon class="cls-5" points="-15.81 47.91 -13.79 73.38 -36.85 84.36 -12.01 90.31 -8.69 115.64 4.65 93.85 29.76 98.52 13.16 79.11 25.36 56.66 1.77 66.45 -15.81 47.91"/><polygon class="cls-5" points="71.78 8.91 73.8 34.38 50.74 45.36 75.58 51.31 78.9 76.64 92.23 54.85 117.35 59.52 100.75 40.11 112.95 17.66 89.36 27.46 71.78 8.91"/><polygon class="cls-5" points="720.24 51.03 722.26 76.5 699.2 87.48 724.04 93.43 727.36 118.76 740.7 96.97 765.81 101.64 749.21 82.22 761.41 59.78 737.82 69.57 720.24 51.03"/><polygon class="cls-5" points="807.83 12.03 809.85 37.5 786.79 48.48 811.63 54.43 814.95 79.76 828.29 57.97 853.4 62.64 836.8 43.23 849 20.78 825.41 30.57 807.83 12.03"/><polygon class="cls-5" points="369.89 207.02 371.91 232.49 348.84 243.47 373.69 249.42 377.01 274.75 390.34 252.96 415.46 257.63 398.86 238.21 411.06 215.77 387.46 225.56 369.89 207.02"/><polygon class="cls-5" points="895.42 -26.96 897.44 -1.5 874.38 9.48 899.22 15.43 902.54 40.76 915.88 18.98 940.99 23.64 924.39 4.23 936.59 -18.21 913 -8.42 895.42 -26.96"/><polygon class="cls-5" points="457.48 168.02 459.5 193.49 436.43 204.47 461.28 210.42 464.6 235.75 477.93 213.96 503.05 218.63 486.44 199.22 498.65 176.77 475.05 186.56 457.48 168.02"/><polygon class="cls-5" points="983.01 -65.96 985.03 -40.49 961.97 -29.51 986.81 -23.56 990.13 1.77 1003.46 -20.02 1028.58 -15.35 1011.98 -34.77 1024.18 -57.21 1000.59 -47.42 983.01 -65.96"/><polygon class="cls-5" points="545.07 129.02 547.09 154.49 524.02 165.47 548.87 171.42 552.18 196.75 565.52 174.96 590.63 179.63 574.03 160.22 586.24 137.77 562.64 147.57 545.07 129.02"/><polygon class="cls-5" points="632.66 90.03 634.67 115.49 611.61 126.48 636.46 132.43 639.77 157.76 653.11 135.97 678.22 140.64 661.62 121.22 673.82 98.78 650.23 108.57 632.66 90.03"/><polygon class="cls-5" points="-1.7 -41.08 0.32 -15.61 -22.75 -4.63 2.1 1.32 5.42 26.65 18.75 4.86 43.87 9.53 27.27 -9.88 39.47 -32.33 15.88 -22.53 -1.7 -41.08"/><polygon class="cls-5" points="734.35 -37.96 736.37 -12.49 713.3 -1.51 738.15 4.44 741.47 29.77 754.8 7.98 779.92 12.65 763.32 -6.76 775.52 -29.21 751.93 -19.42 734.35 -37.96"/><polygon class="cls-5" points="296.41 157.03 298.43 182.49 275.36 193.48 300.21 199.43 303.52 224.76 316.86 202.97 341.97 207.64 325.37 188.22 337.57 165.78 313.98 175.57 296.41 157.03"/><polygon class="cls-5" points="384 118.03 386.01 143.5 362.95 154.48 387.8 160.43 391.11 185.76 404.45 163.97 429.56 168.64 412.96 149.22 425.16 126.78 401.57 136.57 384 118.03"/><polygon class="cls-5" points="471.58 79.03 473.6 104.5 450.54 115.48 475.38 121.43 478.7 146.76 492.04 124.97 517.15 129.64 500.55 110.23 512.75 87.78 489.16 97.58 471.58 79.03"/><polygon class="cls-5" points="121.23 235.02 123.25 260.49 100.18 271.47 125.03 277.42 128.34 302.75 141.68 280.96 166.8 285.63 150.19 266.22 162.4 243.77 138.8 253.56 121.23 235.02"/><polygon class="cls-5" points="559.17 40.04 561.19 65.5 538.13 76.49 562.97 82.43 566.29 107.77 579.63 85.98 604.74 90.64 588.14 71.23 600.34 48.78 576.75 58.58 559.17 40.04"/><polygon class="cls-5" points="208.82 196.02 210.84 221.49 187.77 232.47 212.62 238.42 215.93 263.75 229.27 241.96 254.38 246.63 237.78 227.22 249.99 204.77 226.39 214.57 208.82 196.02"/><polygon class="cls-5" points="646.76 1.04 648.78 26.5 625.72 37.49 650.56 43.44 653.88 68.77 667.22 46.98 692.33 51.65 675.73 32.23 687.93 9.79 664.34 19.58 646.76 1.04"/><polygon class="cls-5" points="234.94 18.98 236.96 44.45 213.9 55.43 238.74 61.38 242.06 86.71 255.39 64.92 280.51 69.59 263.91 50.17 276.11 27.73 252.52 37.52 234.94 18.98"/><polygon class="cls-5" points="322.53 -20.02 324.55 5.45 301.49 16.43 326.33 22.38 329.65 47.71 342.98 25.92 368.1 30.59 351.5 11.18 363.7 -11.27 340.11 -1.48 322.53 -20.02"/><polygon class="cls-5" points="-27.82 135.97 -25.81 161.44 -48.87 172.42 -24.02 178.37 -20.71 203.7 -7.37 181.91 17.74 186.58 1.14 167.16 13.34 144.72 -10.25 154.51 -27.82 135.97"/><polygon class="cls-5" points="410.12 -59.02 412.14 -33.55 389.07 -22.57 413.92 -16.62 417.24 8.71 430.57 -13.08 455.69 -8.41 439.09 -27.82 451.29 -50.27 427.69 -40.47 410.12 -59.02"/><polygon class="cls-5" points="59.76 96.97 61.78 122.44 38.72 133.42 63.56 139.37 66.88 164.7 80.22 142.91 105.33 147.58 88.73 128.17 100.93 105.72 77.34 115.52 59.76 96.97"/><polygon class="cls-5" points="147.35 57.98 149.37 83.44 126.31 94.42 151.15 100.37 154.47 125.7 167.81 103.92 192.92 108.58 176.32 89.17 188.52 66.72 164.93 76.52 147.35 57.98"/><polygon class="cls-5" points="795.82 100.09 797.83 125.56 774.77 136.54 799.62 142.49 802.93 167.82 816.27 146.03 841.38 150.7 824.78 131.29 836.98 108.84 813.39 118.63 795.82 100.09"/><polygon class="cls-5" points="883.4 61.09 885.42 86.56 862.36 97.54 887.21 103.49 890.52 128.82 903.86 107.03 928.97 111.7 912.37 92.29 924.57 69.84 900.98 79.64 883.4 61.09"/><polygon class="cls-5" points="970.99 22.1 973.01 47.56 949.95 58.55 974.79 64.5 978.11 89.83 991.45 68.04 1016.56 72.7 999.96 53.29 1012.16 30.85 988.57 40.64 970.99 22.1"/><polygon class="cls-5" points="533.05 217.08 535.07 242.55 512 253.53 536.85 259.48 540.16 284.81 553.5 263.02 578.62 267.69 562.01 248.28 574.22 225.83 550.62 235.63 533.05 217.08"/><polygon class="cls-5" points="1058.58 -16.9 1060.6 8.57 1037.54 19.55 1062.38 25.5 1065.7 50.83 1079.04 29.04 1104.15 33.71 1087.55 14.29 1099.75 -8.15 1076.16 1.64 1058.58 -16.9"/><polygon class="cls-5" points="620.64 178.09 622.66 203.55 599.59 214.53 624.44 220.48 627.75 245.81 641.09 224.03 666.21 228.69 649.6 209.28 661.8 186.84 638.21 196.63 620.64 178.09"/><polygon class="cls-5" points="1146.17 -55.9 1148.19 -30.43 1125.13 -19.45 1149.97 -13.5 1153.29 11.83 1166.62 -9.96 1191.74 -5.29 1175.14 -24.7 1187.34 -47.15 1163.75 -37.35 1146.17 -55.9"/><polygon class="cls-5" points="708.23 139.09 710.25 164.56 687.18 175.54 712.03 181.49 715.34 206.82 728.68 185.03 753.79 189.7 737.19 170.28 749.39 147.84 725.8 157.63 708.23 139.09"/><polygon class="cls-5" points="781.71 189.08 783.73 214.55 760.66 225.53 785.51 231.48 788.83 256.81 802.16 235.02 827.28 239.69 810.67 220.27 822.88 197.83 799.28 207.62 781.71 189.08"/><polygon class="cls-5" points="1219.65 -5.91 1221.67 19.56 1198.61 30.54 1223.45 36.49 1226.77 61.82 1240.11 40.03 1265.22 44.7 1248.62 25.29 1260.82 2.84 1237.23 12.64 1219.65 -5.91"/><polygon class="cls-5" points="869.3 150.08 871.32 175.55 848.25 186.53 873.1 192.48 876.41 217.81 889.75 196.02 914.87 200.69 898.26 181.28 910.47 158.83 886.87 168.63 869.3 150.08"/><polygon class="cls-5" points="1307.24 -44.9 1309.26 -19.44 1286.2 -8.45 1311.04 -2.51 1314.36 22.82 1327.69 1.04 1352.81 5.71 1336.21 -13.71 1348.41 -36.16 1324.82 -26.36 1307.24 -44.9"/><polygon class="cls-5" points="956.89 111.08 958.91 136.55 935.84 147.53 960.69 153.48 964 178.81 977.34 157.02 1002.46 161.69 985.85 142.28 998.05 119.83 974.46 129.63 956.89 111.08"/><polygon class="cls-5" points="1044.47 72.09 1046.49 97.55 1023.43 108.54 1048.28 114.49 1051.59 139.82 1064.93 118.03 1090.04 122.7 1073.44 103.28 1085.64 80.84 1062.05 90.63 1044.47 72.09"/><polygon class="cls-5" points="1132.07 33.09 1134.08 58.56 1111.02 69.54 1135.87 75.49 1139.18 100.82 1152.52 79.03 1177.63 83.7 1161.03 64.28 1173.23 41.84 1149.64 51.63 1132.07 33.09"/><polygon class="cls-5" points="694.12 228.08 696.14 253.54 673.07 264.53 697.92 270.48 701.24 295.81 714.57 274.02 739.69 278.69 723.09 259.27 735.29 236.83 711.69 246.62 694.12 228.08"/><polygon class="cls-5" points="1430.17 231.19 1432.19 256.66 1409.13 267.64 1433.97 273.59 1437.29 298.92 1450.62 277.13 1475.74 281.8 1459.14 262.39 1471.34 239.94 1447.74 249.74 1430.17 231.19"/><polygon class="cls-5" points="1517.76 192.2 1519.78 217.66 1496.71 228.65 1521.56 234.6 1524.88 259.93 1538.21 238.14 1563.33 242.81 1546.72 223.39 1558.93 200.95 1535.33 210.74 1517.76 192.2"/><polygon class="cls-5" points="1281.12 132.14 1283.14 157.61 1260.07 168.59 1284.92 174.54 1288.23 199.87 1301.57 178.08 1326.69 182.75 1310.08 163.34 1322.29 140.89 1298.69 150.69 1281.12 132.14"/><polygon class="cls-5" points="1368.71 93.14 1370.73 118.61 1347.66 129.59 1372.51 135.54 1375.82 160.87 1389.16 139.09 1414.28 143.75 1397.67 124.34 1409.88 101.89 1386.28 111.69 1368.71 93.14"/><polygon class="cls-5" points="1456.3 54.15 1458.32 79.61 1435.25 90.6 1460.1 96.55 1463.41 121.88 1476.75 100.09 1501.86 104.76 1485.26 85.34 1497.46 62.9 1473.87 72.69 1456.3 54.15"/><polygon class="cls-5" points="1105.94 210.14 1107.96 235.6 1084.89 246.59 1109.74 252.53 1113.06 277.87 1126.39 256.08 1151.51 260.75 1134.91 241.33 1147.11 218.89 1123.51 228.68 1105.94 210.14"/><polygon class="cls-5" points="1543.88 15.15 1545.9 40.62 1522.84 51.6 1547.68 57.55 1551 82.88 1564.34 61.09 1589.45 65.76 1572.85 46.35 1585.05 23.9 1561.46 33.69 1543.88 15.15"/><polygon class="cls-5" points="1193.53 171.14 1195.55 196.61 1172.48 207.59 1197.33 213.54 1200.64 238.87 1213.98 217.08 1239.1 221.75 1222.49 202.34 1234.7 179.89 1211.1 189.68 1193.53 171.14"/><polygon class="cls-5" points="1295.22 43.15 1297.24 68.62 1274.18 79.6 1299.03 85.55 1302.34 110.88 1315.68 89.09 1340.79 93.76 1324.19 74.35 1336.39 51.9 1312.8 61.7 1295.22 43.15"/><polygon class="cls-5" points="944.87 199.14 946.89 224.61 923.82 235.59 948.67 241.54 951.99 266.87 965.32 245.08 990.44 249.75 973.83 230.34 986.04 207.89 962.44 217.69 944.87 199.14"/><polygon class="cls-5" points="1382.81 4.16 1384.83 29.62 1361.77 40.61 1386.61 46.56 1389.93 71.89 1403.27 50.1 1428.38 54.77 1411.78 35.35 1423.98 12.91 1400.39 22.7 1382.81 4.16"/><polygon class="cls-5" points="1032.46 160.15 1034.48 185.61 1011.41 196.6 1036.26 202.54 1039.57 227.88 1052.91 206.09 1078.03 210.75 1061.42 191.34 1073.63 168.9 1050.03 178.69 1032.46 160.15"/><polygon class="cls-5" points="1470.4 -34.84 1472.42 -9.37 1449.36 1.61 1474.2 7.56 1477.52 32.89 1490.85 11.1 1515.97 15.77 1499.37 -3.65 1511.57 -26.09 1487.98 -16.3 1470.4 -34.84"/><polygon class="cls-5" points="1120.05 121.15 1122.07 146.62 1099 157.6 1123.85 163.55 1127.16 188.88 1140.5 167.09 1165.61 171.76 1149.01 152.34 1161.21 129.9 1137.62 139.69 1120.05 121.15"/><polygon class="cls-5" points="1207.63 82.15 1209.65 107.62 1186.59 118.6 1211.44 124.55 1214.75 149.88 1228.09 128.09 1253.2 132.76 1236.6 113.35 1248.8 90.9 1225.21 100.69 1207.63 82.15"/><polygon class="cls-5" points="1356.69 181.2 1358.71 206.67 1335.64 217.65 1360.49 223.6 1363.81 248.93 1377.14 227.14 1402.26 231.81 1385.65 212.4 1397.86 189.95 1374.26 199.75 1356.69 181.2"/><polygon class="cls-5" points="1444.28 142.21 1446.3 167.67 1423.23 178.66 1448.08 184.6 1451.39 209.94 1464.73 188.15 1489.85 192.82 1473.24 173.4 1485.45 150.96 1461.85 160.75 1444.28 142.21"/><polygon class="cls-5" points="1531.87 103.21 1533.88 128.68 1510.82 139.66 1535.67 145.61 1538.98 170.94 1552.32 149.15 1577.43 153.82 1560.83 134.41 1573.03 111.96 1549.44 121.75 1531.87 103.21"/><polygon class="cls-5" points="1269.1 220.2 1271.12 245.67 1248.05 256.65 1272.9 262.6 1276.22 287.93 1289.55 266.14 1314.67 270.81 1298.07 251.4 1310.27 228.95 1286.67 238.74 1269.1 220.2"/></g><g class="cls-4"><polygon class="cls-5" points="1854.87 123.17 1856.89 148.64 1833.83 159.62 1858.67 165.57 1861.99 190.9 1875.33 169.11 1900.44 173.78 1883.84 154.37 1896.04 131.92 1872.45 141.71 1854.87 123.17"/><polygon class="cls-5" points="1942.46 84.17 1944.48 109.64 1921.42 120.62 1946.26 126.57 1949.58 151.9 1962.91 130.11 1988.03 134.78 1971.43 115.37 1983.63 92.92 1960.04 102.72 1942.46 84.17"/><polygon class="cls-5" points="2030.05 45.18 2032.07 70.64 2009.01 81.63 2033.85 87.58 2037.17 112.91 2050.5 91.12 2075.62 95.79 2059.02 76.37 2071.22 53.93 2047.63 63.72 2030.05 45.18"/><polygon class="cls-5" points="1679.69 201.17 1681.71 226.63 1658.65 237.62 1683.5 243.56 1686.81 268.89 1700.15 247.11 1725.26 251.78 1708.66 232.36 1720.86 209.91 1697.27 219.71 1679.69 201.17"/><polygon class="cls-5" points="2117.64 6.18 2119.66 31.65 2096.59 42.63 2121.44 48.58 2124.76 73.91 2138.09 52.12 2163.21 56.79 2146.61 37.38 2158.81 14.93 2135.22 24.72 2117.64 6.18"/><polygon class="cls-5" points="1767.28 162.17 1769.3 187.63 1746.24 198.62 1771.09 204.57 1774.4 229.9 1787.74 208.11 1812.85 212.78 1796.25 193.36 1808.45 170.92 1784.86 180.71 1767.28 162.17"/><polygon class="cls-5" points="2205.23 -32.82 2207.25 -7.35 2184.18 3.63 2209.03 9.58 2212.35 34.91 2225.68 13.12 2250.8 17.79 2234.2 -1.62 2246.4 -24.07 2222.8 -14.28 2205.23 -32.82"/><polygon class="cls-5" points="1793.41 -14.88 1795.43 10.59 1772.36 21.57 1797.21 27.52 1800.53 52.85 1813.86 31.06 1838.98 35.73 1822.38 16.32 1834.58 -6.13 1810.98 3.67 1793.41 -14.88"/><polygon class="cls-5" points="1881 -53.88 1883.02 -28.41 1859.95 -17.43 1884.8 -11.48 1888.12 13.85 1901.45 -7.93 1926.57 -3.27 1909.96 -22.68 1922.17 -45.13 1898.57 -35.33 1881 -53.88"/><polygon class="cls-5" points="1618.23 63.12 1620.25 88.58 1597.18 99.57 1622.03 105.52 1625.35 130.84 1638.68 109.06 1663.8 113.73 1647.2 94.31 1659.4 71.87 1635.81 81.66 1618.23 63.12"/><polygon class="cls-5" points="1705.82 24.12 1707.84 49.59 1684.77 60.57 1709.62 66.52 1712.94 91.85 1726.27 70.06 1751.39 74.73 1734.79 55.31 1746.99 32.87 1723.39 42.66 1705.82 24.12"/><polygon class="cls-5" points="2354.28 66.23 2356.3 91.7 2333.24 102.69 2358.08 108.63 2361.4 133.96 2374.73 112.17 2399.85 116.84 2383.25 97.43 2395.45 74.98 2371.86 84.78 2354.28 66.23"/><polygon class="cls-5" points="2441.87 27.24 2443.89 52.7 2420.82 63.69 2445.67 69.64 2448.99 94.97 2462.32 73.18 2487.44 77.85 2470.84 58.43 2483.04 35.99 2459.45 45.78 2441.87 27.24"/><polygon class="cls-5" points="2003.93 222.22 2005.94 247.69 1982.88 258.67 2007.73 264.62 2011.04 289.95 2024.38 268.16 2049.49 272.83 2032.89 253.42 2045.1 230.97 2021.5 240.77 2003.93 222.22"/><polygon class="cls-5" points="2091.51 183.23 2093.53 208.69 2070.47 219.68 2095.32 225.63 2098.63 250.96 2111.97 229.17 2137.08 233.84 2120.48 214.42 2132.68 191.98 2109.09 201.77 2091.51 183.23"/><polygon class="cls-5" points="2179.1 144.23 2181.12 169.7 2158.06 180.68 2182.91 186.63 2186.22 211.96 2199.56 190.17 2224.67 194.84 2208.07 175.43 2220.27 152.98 2196.68 162.77 2179.1 144.23"/><polygon class="cls-5" points="2266.69 105.23 2268.71 130.7 2245.65 141.68 2270.49 147.63 2273.81 172.96 2287.14 151.17 2312.26 155.84 2295.66 136.43 2307.86 113.98 2284.27 123.78 2266.69 105.23"/><polygon class="cls-5" points="1632.34 -25.87 1634.36 -0.41 1611.29 10.58 1636.14 16.53 1639.45 41.86 1652.79 20.07 1677.91 24.74 1661.31 5.32 1673.51 -17.12 1649.91 -7.33 1632.34 -25.87"/><polygon class="cls-5" points="2368.39 -22.75 2370.41 2.71 2347.34 13.7 2372.19 19.64 2375.51 44.98 2388.84 23.19 2413.96 27.86 2397.36 8.44 2409.56 -14 2385.96 -4.21 2368.39 -22.75"/><polygon class="cls-5" points="1930.44 172.23 1932.46 197.7 1909.4 208.68 1934.24 214.63 1937.56 239.96 1950.9 218.17 1976.01 222.84 1959.41 203.43 1971.61 180.98 1948.02 190.78 1930.44 172.23"/><polygon class="cls-5" points="2018.03 133.24 2020.05 158.7 1996.99 169.69 2021.83 175.63 2025.15 200.97 2038.48 179.18 2063.6 183.84 2047 164.43 2059.2 141.99 2035.61 151.78 2018.03 133.24"/><polygon class="cls-5" points="2105.62 94.24 2107.64 119.7 2084.58 130.69 2109.42 136.64 2112.74 161.97 2126.07 140.18 2151.19 144.85 2134.59 125.43 2146.79 102.99 2123.2 112.78 2105.62 94.24"/><polygon class="cls-5" points="2193.21 55.24 2195.23 80.71 2172.16 91.69 2197.01 97.64 2200.33 122.97 2213.66 101.18 2238.78 105.85 2222.18 86.44 2234.38 63.99 2210.79 73.78 2193.21 55.24"/><polygon class="cls-5" points="1842.85 211.23 1844.87 236.7 1821.81 247.68 1846.65 253.63 1849.97 278.96 1863.31 257.17 1888.42 261.84 1871.82 242.43 1884.02 219.98 1860.43 229.77 1842.85 211.23"/><polygon class="cls-5" points="2280.8 16.24 2282.82 41.71 2259.75 52.69 2284.6 58.64 2287.92 83.97 2301.25 62.18 2326.37 66.85 2309.77 47.44 2321.97 24.99 2298.38 34.79 2280.8 16.24"/><polygon class="cls-5" points="1868.98 34.18 1871 59.65 1847.93 70.63 1872.78 76.58 1876.1 101.91 1889.43 80.12 1914.55 84.79 1897.95 65.38 1910.15 42.93 1886.56 52.73 1868.98 34.18"/><polygon class="cls-5" points="1956.57 -4.81 1958.59 20.65 1935.52 31.64 1960.37 37.59 1963.69 62.91 1977.02 41.13 2002.14 45.8 1985.54 26.38 1997.74 3.94 1974.14 13.73 1956.57 -4.81"/><polygon class="cls-5" points="1606.21 151.18 1608.23 176.64 1585.17 187.63 1610.01 193.57 1613.33 218.9 1626.66 197.12 1651.78 201.78 1635.18 182.37 1647.38 159.92 1623.79 169.72 1606.21 151.18"/><polygon class="cls-5" points="2044.16 -43.81 2046.18 -18.34 2023.11 -7.36 2047.96 -1.41 2051.28 23.92 2064.61 2.13 2089.73 6.8 2073.12 -12.62 2085.33 -35.06 2061.73 -25.27 2044.16 -43.81"/><polygon class="cls-5" points="1693.8 112.18 1695.82 137.65 1672.76 148.63 1697.6 154.58 1700.92 179.91 1714.25 158.12 1739.37 162.79 1722.77 143.37 1734.97 120.93 1711.38 130.72 1693.8 112.18"/><polygon class="cls-5" points="1781.39 73.18 1783.41 98.65 1760.35 109.63 1785.19 115.58 1788.51 140.91 1801.84 119.12 1826.96 123.79 1810.36 104.38 1822.56 81.93 1798.97 91.72 1781.39 73.18"/><polygon class="cls-5" points="2429.85 115.3 2431.87 140.76 2408.81 151.75 2433.65 157.69 2436.97 183.03 2450.3 161.24 2475.42 165.91 2458.82 146.49 2471.02 124.05 2447.43 133.84 2429.85 115.3"/><polygon class="cls-5" points="2167.09 232.29 2169.11 257.75 2146.04 268.74 2170.89 274.69 2174.2 300.02 2187.54 278.23 2212.65 282.9 2196.05 263.48 2208.25 241.04 2184.66 250.83 2167.09 232.29"/><polygon class="cls-5" points="2254.67 193.29 2256.69 218.76 2233.63 229.74 2258.47 235.69 2261.79 261.02 2275.13 239.23 2300.24 243.9 2283.64 224.49 2295.84 202.04 2272.25 211.83 2254.67 193.29"/><polygon class="cls-5" points="2342.26 154.29 2344.28 179.76 2321.22 190.74 2346.06 196.69 2349.38 222.02 2362.72 200.23 2387.83 204.9 2371.23 185.49 2383.43 163.04 2359.84 172.84 2342.26 154.29"/><polygon class="cls-5" points="2415.75 204.28 2417.76 229.75 2394.7 240.74 2419.55 246.68 2422.86 272.01 2436.2 250.22 2461.31 254.89 2444.71 235.48 2456.91 213.03 2433.32 222.83 2415.75 204.28"/></g></g></svg>