<svg id="Layer_1" data-name="Layer 1" xmlns="http://www.w3.org/2000/svg" viewBox="0 0 1146 550"><defs><style>.cls-1{fill:#122e51;}.cls-2{fill:#003e7c;}.cls-3{fill:#dcc424;}.cls-4{fill:#b0a03f;}.cls-5{fill:#77764b;}.cls-6{fill:#475a77;}.cls-7{fill:#0071bc;}</style></defs><title>banner--faq-sm</title><rect class="cls-1" width="1146" height="550"/><polygon class="cls-2" points="1145.66 314.93 -21.64 547.4 1145.66 547.4 1145.66 314.93"/><polygon class="cls-3" points="211.78 249.21 93.66 271.79 93.66 123.32 206.24 101.8 211.78 249.21"/><polygon class="cls-3" points="175.17 217.51 93.66 234.02 93.66 123.32 175.17 107.74 175.17 217.51"/><polygon class="cls-4" points="242.14 243.41 93.66 271.79 93.7 234.02 175.17 217.51 242.14 243.41"/><polygon class="cls-5" points="242.14 243.41 242.14 94.94 175.17 107.74 175.17 217.51 242.14 243.41"/><polygon class="cls-6" points="242.18 94.89 242.18 243.35 93.7 271.75 535.27 550 965.27 550 242.18 94.89"/><polygon class="cls-7" points="961.14 547.4 724.92 398.72 398.4 463.75 531.15 547.4 961.14 547.4"/></svg>