<svg id="Layer_1" data-name="Layer 1" xmlns="http://www.w3.org/2000/svg" viewBox="0 0 2880 470"><defs><style>.cls-1{fill:#122e51;}.cls-2{fill:#205493;}.cls-3{fill:#475a77;}.cls-4{fill:#dcc424;}</style></defs><title>banner--thank-you-lg</title><rect class="cls-1" x="-2.32" width="2882.32" height="470"/><rect class="cls-2" x="911.43" y="126.76" width="72" height="112.46" transform="translate(136.75 -340.37) rotate(21.91)"/><rect class="cls-3" x="1200.29" y="194.27" width="72" height="112.46" transform="translate(1040.92 -995.7) rotate(69.64)"/><rect class="cls-3" x="-36" y="122.84" width="72" height="112.46" transform="translate(167.87 116.75) rotate(69.64)"/><rect class="cls-3" x="575.39" y="22.41" width="72" height="112.46" transform="translate(472.36 -521.91) rotate(69.64)"/><rect class="cls-2" x="1576.75" y="37.56" width="72" height="112.46" transform="matrix(-0.35, 0.94, -0.94, -0.35, 2261.89, -1385.52)"/><rect class="cls-2" x="2055.35" y="143.84" width="72" height="112.46" transform="matrix(-0.35, 0.94, -0.94, -0.35, 3006.67, -1690.96)"/><rect class="cls-2" x="1219.85" y="11.67" width="72" height="112.46" transform="translate(1756.52 -1085.84) rotate(110.36)"/><rect class="cls-2" x="104.37" y="242.08" width="72" height="112.46" transform="translate(468.87 270.52) rotate(110.36)"/><rect class="cls-2" x="2275.64" y="71.09" width="72" height="112.46" transform="translate(3235.42 -1995.54) rotate(110.36)"/><rect class="cls-2" x="2844" y="71.09" width="72" height="112.46" transform="translate(4001.56 -2528.38) rotate(110.36)"/><rect class="cls-4" x="739.87" y="114.47" width="72" height="112.46" transform="translate(1205.9 -497.28) rotate(110.36)"/><rect class="cls-2" x="405.8" y="194.27" width="72" height="112.46" transform="translate(830.37 -76.52) rotate(110.36)"/><rect class="cls-3" x="2715" y="178.77" width="72" height="112.46" transform="translate(2014.01 -2425.84) rotate(69.64)"/><rect class="cls-3" x="2093.78" y="9.37" width="72" height="112.46" transform="translate(1450.15 -1953.9) rotate(69.64)"/><rect class="cls-3" x="1368.28" y="114.47" width="72" height="112.46" transform="translate(165.17 -511.76) rotate(21.91)"/><rect class="cls-2" x="2577.31" y="80.11" width="72" height="112.46" transform="translate(5088.67 -712.49) rotate(158.09)"/><rect class="cls-3" x="386.47" y="34.91" width="72" height="112.46" transform="translate(64.54 -151.08) rotate(21.91)"/><rect class="cls-3" x="200.29" y="103.86" width="72" height="112.46" transform="translate(76.82 -76.62) rotate(21.91)"/><rect class="cls-2" x="2844" y="307.68" width="72" height="112.46" transform="translate(5687.72 -373.33) rotate(158.09)"/><rect class="cls-3" x="1072.13" y="71.09" width="72" height="112.46" transform="translate(2183.71 -168.13) rotate(158.09)"/><rect class="cls-3" x="1753.88" y="22.41" width="72" height="112.46" transform="translate(3479.78 -516.41) rotate(158.09)"/><rect class="cls-3" x="2221.26" y="194.27" width="72" height="112.46" transform="translate(4444.9 -359.54) rotate(158.09)"/><rect class="cls-3" x="2418.9" y="143.84" width="72" height="112.46" transform="translate(252.04 -901.74) rotate(21.91)"/><rect class="cls-2" x="2543.54" y="307.68" width="72" height="112.46" transform="translate(322.2 -936.42) rotate(21.91)"/><rect class="cls-3" x="1889.45" y="163.36" width="72" height="112.46" transform="translate(221.07 -702.73) rotate(21.91)"/><rect class="cls-3" x="584.83" y="194.27" width="72" height="112.46" transform="translate(1290.29 251.19) rotate(158.09)"/><polygon class="cls-2" points="426.21 470 399.82 404.4 333.03 431.27 348.61 470 426.21 470"/><polygon class="cls-3" points="2729.83 0 2696.61 82.57 2763.41 109.44 2805.38 5.11 2792.67 0 2729.83 0"/><polygon class="cls-3" points="2460.43 0 2484.97 66.14 2590.4 27 2580.38 0 2460.43 0"/><polygon class="cls-2" points="2296.97 0 2289.91 17.56 2356.71 44.43 2374.58 0 2296.97 0"/><polygon class="cls-2" points="1932.19 0 1904.4 69.09 1971.2 95.97 2009.8 0 1932.19 0"/><polygon class="cls-3" points="1419.86 0 1446.25 65.6 1513.05 38.73 1497.47 0 1419.86 0"/><polygon class="cls-3" points="914.98 0 937.47 60.6 1042.9 21.47 1034.93 0 914.98 0"/><polygon class="cls-2" points="763.31 0 744.02 47.95 810.82 74.83 840.92 0 763.31 0"/><polygon class="cls-2" points="195.94 0 193.71 6.01 299.14 45.15 315.89 0 195.94 0"/><polygon class="cls-2" points="55.66 0 42.95 5.11 84.92 109.44 151.72 82.57 118.5 0 55.66 0"/></svg>