<svg id="Layer_1" data-name="Layer 1" xmlns="http://www.w3.org/2000/svg" viewBox="0 0 2880 470"><defs><style>.cls-1{fill:#122e51;}.cls-2{fill:#dcc424;}.cls-3{fill:#003e7c;}.cls-4{fill:#1f5593;}.cls-5{fill:#475a77;}.cls-6{fill:#b0a03f;}.cls-7{fill:#0071bc;}</style></defs><title>banner--join-us-lg</title><rect class="cls-1" width="2880" height="470"/><ellipse class="cls-2" cx="2618.53" cy="235.01" rx="147.51" ry="147.5" transform="translate(2379.58 2853.19) rotate(-89.91)"/><circle class="cls-3" cx="0.5" cy="235.01" r="150.18" transform="translate(-166.03 69.19) rotate(-45)"/><circle class="cls-4" cx="240.85" cy="235.01" r="150.18" transform="translate(-95.63 239.14) rotate(-45)"/><circle class="cls-3" cx="481.1" cy="235.01" r="150.18" transform="translate(-25.27 409.02) rotate(-45)"/><circle class="cls-5" cx="721.35" cy="235.01" r="150.18" transform="matrix(0.02, -1, 1, 0.02, 474.36, 952.35)"/><circle class="cls-3" cx="961.6" cy="235.01" r="150.18" transform="translate(115.47 748.79) rotate(-45)"/><path class="cls-6" d="M811.42,235a149.54,149.54,0,0,0,30,90.11,150.17,150.17,0,0,0,0-180.22A149.54,149.54,0,0,0,811.42,235Z"/><circle class="cls-4" cx="1201.95" cy="235.01" r="150.18" transform="translate(185.87 918.74) rotate(-45)"/><path class="cls-7" d="M1051.77,235a149.54,149.54,0,0,0,30,90.11,150.17,150.17,0,0,0,0-180.22A149.54,149.54,0,0,0,1051.77,235Z"/><circle class="cls-3" cx="1442.2" cy="235.01" r="150.18" transform="translate(1176.12 1671.8) rotate(-88.76)"/><path class="cls-7" d="M1292,235a149.54,149.54,0,0,0,30,90.11,150.17,150.17,0,0,0,0-180.22A149.54,149.54,0,0,0,1292,235Z"/><path class="cls-7" d="M90.77,235a149.54,149.54,0,0,0,30,90.11,150.17,150.17,0,0,0,0-180.22A149.54,149.54,0,0,0,90.77,235Z"/><path class="cls-7" d="M331,235a149.54,149.54,0,0,0,30,90.11,150.17,150.17,0,0,0,0-180.22A149.54,149.54,0,0,0,331,235Z"/><circle class="cls-5" cx="1682.5" cy="234.99" r="150.18" transform="translate(326.63 1258.54) rotate(-45)"/><path class="cls-6" d="M1532.42,235a149.54,149.54,0,0,0,30,90.11,150.17,150.17,0,0,0,0-180.22A149.54,149.54,0,0,0,1532.42,235Z"/><path class="cls-6" d="M571.42,235a149.54,149.54,0,0,0,30,90.11,150.17,150.17,0,0,0,0-180.22A149.54,149.54,0,0,0,571.42,235Z"/></svg>