<svg id="Layer_1" data-name="Layer 1" xmlns="http://www.w3.org/2000/svg" viewBox="0 0 1146 550"><defs><style>.cls-1{fill:#122e51;}.cls-2{fill:#205493;}.cls-3{fill:#475a77;}.cls-4{fill:#dcc424;}</style></defs><title>banner--thank-you-sm</title><rect class="cls-1" width="1146" height="550"/><rect class="cls-2" x="413.17" y="134.65" width="58.25" height="90.99" transform="translate(99.19 -152.05) rotate(21.91)"/><rect class="cls-3" x="636.88" y="175.27" width="58.25" height="90.99" transform="translate(641.22 -480.44) rotate(69.64)"/><rect class="cls-3" x="1095.89" y="409.02" width="58.25" height="90.99" transform="translate(1159.63 -758.35) rotate(69.64)"/><rect class="cls-3" x="288.85" y="245.42" width="58.25" height="90.99" transform="matrix(0.35, 0.94, -0.94, 0.35, 480.06, -108.42)"/><rect class="cls-3" x="141.28" y="50.23" width="58.25" height="90.99" transform="translate(200.85 -97.35) rotate(69.64)"/><rect class="cls-2" x="951.47" y="62.49" width="58.25" height="90.99" transform="translate(1423.06 -773.75) rotate(110.36)"/><rect class="cls-2" x="1025.37" y="288.85" width="58.25" height="90.99" transform="translate(1734.88 -537.9) rotate(110.36)"/><rect class="cls-2" x="666.49" y="17.35" width="58.25" height="90.99" transform="translate(996.6 -567.43) rotate(110.36)"/><rect class="cls-4" x="274.36" y="124.71" width="58.25" height="90.99" transform="translate(568.67 -55.09) rotate(110.36)"/><rect class="cls-2" x="15.06" y="204.23" width="58.25" height="90.99" transform="translate(293.68 295.19) rotate(110.36)"/><rect class="cls-3" x="894.22" y="175.09" width="58.25" height="90.99" transform="translate(808.84 -721.82) rotate(69.64)"/><rect class="cls-3" x="773.1" y="124.71" width="58.25" height="90.99" transform="translate(121.49 -287.1) rotate(21.91)"/><rect class="cls-3" x="-11.57" y="60.34" width="58.25" height="90.99" transform="translate(40.77 1.1) rotate(21.91)"/><rect class="cls-3" x="546.38" y="81.83" width="58.25" height="90.99" transform="translate(1156.94 30.66) rotate(158.09)"/><rect class="cls-2" x="773.1" y="279.45" width="58.25" height="90.99" transform="translate(179.24 -275.92) rotate(21.91)"/><rect class="cls-3" x="1094.78" y="50.23" width="58.25" height="90.99" transform="matrix(-0.93, 0.37, -0.37, -0.93, 2202.33, -234.93)"/><rect class="cls-3" x="1036.37" y="166.15" width="58.25" height="90.99" transform="translate(155.97 -382.36) rotate(21.91)"/><rect class="cls-3" x="106.4" y="313.14" width="58.25" height="90.99" transform="translate(143.64 -24.67) rotate(21.91)"/><rect class="cls-2" x="-6.54" y="394.1" width="58.25" height="90.99" transform="translate(207.6 838.99) rotate(158.09)"/><rect class="cls-2" x="148.92" y="189.27" width="58.25" height="90.99" transform="translate(430.85 386.12) rotate(158.09)"/><polygon class="cls-2" points="1014.58 0 1010.49 10.16 1064.54 31.91 1077.37 0 1014.58 0"/><polygon class="cls-3" points="813.81 0 811.93 0.76 845.88 85.17 899.93 63.43 874.41 0 813.81 0"/><polygon class="cls-3" points="485.39 0 413.97 26.51 434.24 81.13 519.54 49.46 501.18 0 485.39 0"/><polygon class="cls-2" points="306.24 0 277.72 70.89 331.76 92.64 365.72 8.22 345.28 0 306.24 0"/><polygon class="cls-2" points="43.2 0 41.97 3.31 127.27 34.97 140.25 0 43.2 0"/></svg>