<svg id="Layer_1" data-name="Layer 1" xmlns="http://www.w3.org/2000/svg" viewBox="0 0 1146 550"><defs><style>.cls-1{fill:#122e51;}.cls-2{fill:#0071bc;}.cls-3{fill:#475a77;}.cls-4{fill:#dac225;}</style></defs><title>banner--contact-us-sm</title><rect class="cls-1" width="1146" height="550"/><polygon class="cls-2" points="166.59 409.26 226.29 550 106.9 550 166.59 409.26"/><path class="cls-2" d="M173.23,409.84c81.12,73,184.61,95.62,258.12,59.91C333.13,462.92,130.07,254.32,89.29,156,60.2,233.1,91.37,336.22,173.23,409.84Z"/><path class="cls-3" d="M232.47,344.25c94.91,86.93,187.46,140,202.23,123.22S384.5,366.64,289.6,279.71,105.79,135.9,91,152.67,137.56,257.32,232.47,344.25Z"/><polygon class="cls-2" points="361.13 204.81 305.77 401.75 344.04 210.79 361.13 204.81"/><polygon class="cls-2" points="347.54 225.42 166.49 275.26 361.13 204.81 347.54 225.42"/><circle class="cls-4" cx="1023.03" cy="104.72" r="55.42"/></svg>