<svg id="Layer_1" data-name="Layer 1" xmlns="http://www.w3.org/2000/svg" viewBox="0 0 2880 397.88"><defs><style>.cls-1{fill:#122e51;}.cls-2{fill:#205493;}.cls-3{fill:#0071bc;}.cls-4{fill:#112e51;}.cls-5{fill:#dac225;}</style></defs><title>banner--404-lg</title><rect class="cls-1" x="-2.32" width="2882.32" height="397.88"/><path class="cls-2" d="M1663.27,174.85A39.4,39.4,0,0,1,1702.46,214v14.72A39.4,39.4,0,0,1,1663.27,268H1539.19A39.4,39.4,0,0,1,1500,228.76V214a39.4,39.4,0,0,1,39.19-39.19h124.08m0-27.52H1539.19A66.91,66.91,0,0,0,1472.48,214v14.72a66.91,66.91,0,0,0,66.71,66.71h124.08a66.9,66.9,0,0,0,66.7-66.71V214a66.9,66.9,0,0,0-66.7-66.71Z"/><path class="cls-2" d="M1983.34,174.85A39.4,39.4,0,0,1,2022.53,214v14.72A39.4,39.4,0,0,1,1983.34,268H1859.27a39.4,39.4,0,0,1-39.2-39.19V214a39.4,39.4,0,0,1,39.2-39.19h124.07m0-27.52H1859.27A66.91,66.91,0,0,0,1792.56,214v14.72a66.91,66.91,0,0,0,66.71,66.71h124.07a66.91,66.91,0,0,0,66.71-66.71V214a66.91,66.91,0,0,0-66.71-66.71Z"/><path class="cls-2" d="M2303.64,174.85A39.38,39.38,0,0,1,2342.83,214v14.72A39.38,39.38,0,0,1,2303.64,268H2179.57a39.38,39.38,0,0,1-39.19-39.19V214a39.38,39.38,0,0,1,39.19-39.19h124.07m0-27.52H2179.57A66.91,66.91,0,0,0,2112.86,214v14.72a66.91,66.91,0,0,0,66.71,66.71h124.07a66.91,66.91,0,0,0,66.71-66.71V214a66.91,66.91,0,0,0-66.71-66.71Z"/><path class="cls-2" d="M2623.72,174.85A39.4,39.4,0,0,1,2662.91,214v14.72A39.4,39.4,0,0,1,2623.72,268H2499.64a39.4,39.4,0,0,1-39.19-39.19V214a39.4,39.4,0,0,1,39.19-39.19h124.08m0-27.52H2499.64A66.91,66.91,0,0,0,2432.93,214v14.72a66.91,66.91,0,0,0,66.71,66.71h124.08a66.91,66.91,0,0,0,66.71-66.71V214a66.91,66.91,0,0,0-66.71-66.71Z"/><path class="cls-2" d="M2943.79,174.85A39.38,39.38,0,0,1,2983,214v14.72A39.38,39.38,0,0,1,2943.79,268H2819.72a39.38,39.38,0,0,1-39.19-39.19V214a39.38,39.38,0,0,1,39.19-39.19h124.07m0-27.52H2819.72A66.91,66.91,0,0,0,2753,214v14.72a66.91,66.91,0,0,0,66.71,66.71h124.07a66.91,66.91,0,0,0,66.71-66.71V214a66.91,66.91,0,0,0-66.71-66.71Z"/><path class="cls-2" d="M380.59,174.85A39.4,39.4,0,0,1,419.78,214v14.72A39.4,39.4,0,0,1,380.59,268H256.51a39.4,39.4,0,0,1-39.19-39.19V214a39.4,39.4,0,0,1,39.19-39.19H380.59m0-27.52H256.51A66.91,66.91,0,0,0,189.8,214v14.72a66.91,66.91,0,0,0,66.71,66.71H380.59a66.91,66.91,0,0,0,66.71-66.71V214a66.91,66.91,0,0,0-66.71-66.71Z"/><path class="cls-2" d="M700.89,174.85A39.38,39.38,0,0,1,740.08,214v14.72A39.38,39.38,0,0,1,700.89,268H576.82a39.38,39.38,0,0,1-39.19-39.19V214a39.38,39.38,0,0,1,39.19-39.19H700.89m0-27.52H576.82A66.91,66.91,0,0,0,510.11,214v14.72a66.91,66.91,0,0,0,66.71,66.71H700.89a66.91,66.91,0,0,0,66.71-66.71V214a66.91,66.91,0,0,0-66.71-66.71Z"/><path class="cls-2" d="M1021,174.85a39.4,39.4,0,0,1,39.2,39.19v14.72A39.4,39.4,0,0,1,1021,268H896.89a39.4,39.4,0,0,1-39.19-39.19V214a39.4,39.4,0,0,1,39.19-39.19H1021m0-27.52H896.89A66.91,66.91,0,0,0,830.18,214v14.72a66.91,66.91,0,0,0,66.71,66.71H1021a66.91,66.91,0,0,0,66.71-66.71V214A66.91,66.91,0,0,0,1021,147.33Z"/><path class="cls-2" d="M1341.27,174.85A39.4,39.4,0,0,1,1380.46,214v14.72A39.4,39.4,0,0,1,1341.27,268H1217.19A39.4,39.4,0,0,1,1178,228.76V214a39.4,39.4,0,0,1,39.19-39.19h124.08m0-27.52H1217.19a66.9,66.9,0,0,0-66.7,66.71v14.72a66.9,66.9,0,0,0,66.7,66.71h124.08A66.91,66.91,0,0,0,1408,228.76V214a66.91,66.91,0,0,0-66.71-66.71Z"/><path class="cls-2" d="M60.28,174.85A39.38,39.38,0,0,1,99.47,214v14.72A39.38,39.38,0,0,1,60.28,268H-63.79a38.9,38.9,0,0,1-27.66-11.54A38.88,38.88,0,0,1-103,228.76V214a38.88,38.88,0,0,1,11.53-27.65,38.9,38.9,0,0,1,27.66-11.54H60.28m0-27.52H-63.79A66.91,66.91,0,0,0-130.5,214v14.72a66.91,66.91,0,0,0,66.71,66.71H60.28A66.91,66.91,0,0,0,127,228.76V214a66.91,66.91,0,0,0-66.71-66.71Z"/><path class="cls-3" d="M243.81,237.41H73c-6.52,0-11.85-6.33-11.85-14.08v-3.86c0-7.75,5.33-14.08,11.85-14.08H243.81c6.51,0,11.85,6.33,11.85,14.08v3.86C255.66,231.08,250.32,237.41,243.81,237.41Z"/><path class="cls-3" d="M565.8,237.41H395c-6.52,0-11.85-6.33-11.85-14.08v-3.86c0-7.75,5.33-14.08,11.85-14.08H565.8c6.51,0,11.85,6.33,11.85,14.08v3.86C577.65,231.08,572.31,237.41,565.8,237.41Z"/><path class="cls-3" d="M885.62,237.41H714.81c-6.52,0-11.85-6.33-11.85-14.08v-3.86c0-7.75,5.33-14.08,11.85-14.08H885.62c6.52,0,11.85,6.33,11.85,14.08v3.86C897.47,231.08,892.14,237.41,885.62,237.41Z"/><path class="cls-3" d="M1207,237.41H1036.14c-6.52,0-11.85-6.33-11.85-14.08v-3.86c0-7.75,5.33-14.08,11.85-14.08H1207c6.51,0,11.85,6.33,11.85,14.08v3.86C1218.81,231.08,1213.47,237.41,1207,237.41Z"/><path class="cls-3" d="M1525.41,237.41H1354.59c-6.52,0-11.85-6.33-11.85-14.08v-3.86c0-7.75,5.33-14.08,11.85-14.08h170.82c6.52,0,11.85,6.33,11.85,14.08v3.86C1537.26,231.08,1531.93,237.41,1525.41,237.41Z"/><path class="cls-3" d="M1848.41,237.41H1677.59c-6.52,0-11.85-6.33-11.85-14.08v-3.86c0-7.75,5.33-14.08,11.85-14.08h170.82c6.52,0,11.85,6.33,11.85,14.08v3.86C1860.26,231.08,1854.93,237.41,1848.41,237.41Z"/><path class="cls-3" d="M2168.41,237.41H1997.59c-6.52,0-11.85-6.33-11.85-14.08v-3.86c0-7.75,5.33-14.08,11.85-14.08h170.82c6.52,0,11.85,6.33,11.85,14.08v3.86C2180.26,231.08,2174.93,237.41,2168.41,237.41Z"/><path class="cls-3" d="M2486.41,237.41H2315.59c-6.52,0-11.85-6.33-11.85-14.08v-3.86c0-7.75,5.33-14.08,11.85-14.08h170.82c6.52,0,11.85,6.33,11.85,14.08v3.86C2498.26,231.08,2492.93,237.41,2486.41,237.41Z"/><path class="cls-3" d="M2809.41,237.41H2638.59c-6.52,0-11.85-6.33-11.85-14.08v-3.86c0-7.75,5.33-14.08,11.85-14.08h170.82c6.52,0,11.85,6.33,11.85,14.08v3.86C2821.26,231.08,2815.93,237.41,2809.41,237.41Z"/><rect class="cls-4" x="619.96" y="109.54" width="39.66" height="84.84"/><polygon class="cls-5" points="616.66 119.31 578.25 57.32 559.3 74.28 616.66 119.31"/><polygon class="cls-5" points="663.94 119.31 702.35 57.32 721.3 74.28 663.94 119.31"/><polygon class="cls-5" points="640.3 107.41 653.02 35.6 627.58 35.6 640.3 107.41"/></svg>