<svg id="Layer_1" data-name="Layer 1" xmlns="http://www.w3.org/2000/svg" viewBox="0 0 2880 470"><defs><style>.cls-1{fill:#122e51;}.cls-2{fill:#475a77;}.cls-3{fill:#0071bc;}.cls-4{fill:#d0d2d3;}.cls-5{fill:#205493;}.cls-6{fill:#dcc424;}.cls-7{fill:#112e51;}</style></defs><title>banner--how-we-work-lg</title><rect class="cls-1" width="2880" height="470"/><rect class="cls-2" x="342.03" y="249.59" width="104.98" height="104.98"/><rect class="cls-3" x="544.31" y="67.6" width="106.27" height="106.27"/><rect class="cls-3" x="544.31" y="249.59" width="106.27" height="106.27"/><rect class="cls-3" x="544.31" y="418.87" width="106.27" height="53.14"/><rect class="cls-2" x="341.38" y="67.6" width="106.27" height="106.27"/><polygon class="cls-3" points="2316.26 354.56 2237.52 354.56 2237.52 249.59 2342.5 249.59 2342.5 328.33 2316.26 354.56"/><polygon class="cls-4" points="2342.5 328.33 2316.26 354.56 2316.26 328.33 2342.5 328.33"/><rect class="cls-5" x="2439.8" y="67.6" width="106.27" height="106.27"/><rect class="cls-5" x="2439.8" y="249.59" width="106.27" height="106.27"/><rect class="cls-3" x="2236.87" y="67.6" width="106.27" height="106.27"/><rect class="cls-5" x="1492.05" y="67.6" width="106.27" height="106.27"/><rect class="cls-5" x="1492.05" y="418.87" width="106.27" height="53.14"/><rect class="cls-5" x="1492.05" y="249.59" width="106.27" height="106.27"/><rect class="cls-3" x="1289.13" y="67.6" width="106.27" height="106.27"/><polygon class="cls-5" points="894.64 173.22 815.9 173.22 815.9 68.25 920.88 68.25 920.88 146.99 894.64 173.22"/><polygon class="cls-4" points="920.88 146.99 894.64 173.22 894.64 146.99 920.88 146.99"/><rect class="cls-3" x="1289.77" y="249.59" width="104.98" height="104.98"/><rect class="cls-2" x="1018.18" y="67.6" width="106.27" height="106.27"/><rect class="cls-2" x="1018.18" y="249.59" width="106.27" height="106.27"/><rect class="cls-5" x="815.25" y="249.59" width="106.27" height="106.27"/><rect class="cls-2" x="1965.92" y="418.87" width="106.27" height="53.14"/><rect class="cls-6" x="1763" y="67.6" width="106.27" height="106.27"/><rect class="cls-2" x="1965.92" y="249.59" width="106.27" height="106.27"/><rect class="cls-2" x="1965.92" y="67.6" width="106.27" height="106.27"/><rect class="cls-2" x="1763" y="249.59" width="106.27" height="106.27"/><rect class="cls-2" x="1782.27" y="90.5" width="67.73" height="12.7"/><rect class="cls-2" x="1782.27" y="114.39" width="51.51" height="12.7"/><rect class="cls-7" x="1985.2" y="438.66" width="67.73" height="11.37"/><rect class="cls-7" x="1512" y="120.06" width="43.58" height="12.7"/><rect class="cls-7" x="1512" y="96.18" width="68.96" height="12.7"/><rect class="cls-7" x="2458.45" y="96.1" width="43.58" height="12.7"/><rect class="cls-7" x="2458.45" y="119.98" width="68.96" height="12.7"/><rect class="cls-7" x="1034.66" y="299.67" width="67.73" height="12.7"/><rect class="cls-7" x="1034.66" y="275.79" width="51.51" height="12.7"/><rect class="cls-7" x="360.65" y="96.1" width="67.73" height="12.7"/><rect class="cls-7" x="360.65" y="119.98" width="51.51" height="12.7"/></svg>