<svg id="Layer_1" data-name="Layer 1" xmlns="http://www.w3.org/2000/svg" viewBox="0 0 2880 470"><defs><style>.cls-1{fill:#122e51;}.cls-2{fill:#0071bc;}.cls-3{fill:#475a77;}.cls-4{fill:#dac225;}</style></defs><title>banner--contact-us-lg</title><rect class="cls-1" width="2880" height="470"/><polygon class="cls-2" points="177 363.35 227.74 470 126.26 470 177 363.35"/><path class="cls-2" d="M163.08,350.91C237.3,417.66,332,438.39,399.25,405.72c-89.86-6.24-275.66-197.11-313-287.06C59.66,189.2,88.18,283.54,163.08,350.91Z"/><path class="cls-3" d="M217.28,290.9c86.84,79.54,171.52,128.08,185,112.74s-45.93-92.26-132.77-171.8S101.37,100.26,87.86,115.61,130.45,211.36,217.28,290.9Z"/><polygon class="cls-2" points="344.7 175.41 294.05 351.94 329.06 180.88 344.7 175.41"/><polygon class="cls-2" points="332.26 194.27 166.6 239.87 344.7 175.41 332.26 194.27"/><polygon class="cls-2" points="629.36 300.79 677.97 402.97 580.75 402.97 629.36 300.79"/><path class="cls-2" d="M617.91,289.85c54.14,50.44,128.43,64.12,178.7,40.78-66.52-5.79-208-143.93-234.52-211.08C541.84,167.37,563.27,239,617.91,289.85Z"/><path class="cls-3" d="M651.79,253.56c64.85,58.66,132.65,90.45,147.11,75.3s-26.39-75-91.24-133.64-129.12-93.93-143.58-78.78S587,194.9,651.79,253.56Z"/><polygon class="cls-2" points="754.78 162.14 714.96 292.32 743.12 165.99 754.78 162.14"/><polygon class="cls-2" points="745.32 175.95 621.95 207.6 754.78 162.14 745.32 175.95"/><polygon class="cls-2" points="1412.18 217.68 1436.41 268.62 1387.94 268.62 1412.18 217.68"/><path class="cls-2" d="M1399.5,208.67c22.43,29.28,56.17,42.75,82.82,35.45-32.22-8.36-87.81-89.1-95.26-124.3C1372.61,143.64,1376.85,179.13,1399.5,208.67Z"/><path class="cls-3" d="M1408.75,196.82c26.21,35.17,63,54.54,77.83,45.75s9.51-48.66-16.7-83.84-63.39-52.32-78.21-43.53S1382.54,161.65,1408.75,196.82Z"/><polygon class="cls-2" points="1478.36 152.98 1437.48 219.81 1471.14 154.09 1478.36 152.98"/><polygon class="cls-2" points="1471.45 160.14 1396.04 166.5 1478.36 152.98 1471.45 160.14"/><polygon class="cls-2" points="1039.53 254.28 1074.71 328.22 1004.35 328.22 1039.53 254.28"/><path class="cls-2" d="M1028.66,244.19c34.29,41.13,82.26,58.15,124.37,45.64-47.23-10.22-136-122.07-148.87-172.69C986.34,148.25,994.07,202.68,1028.66,244.19Z"/><path class="cls-3" d="M1055.78,221.89c41.4,47.89,87.86,76.4,100.12,66.47s-7-60.38-48.37-108.27S1018.26,105,1006,115,1014.39,174,1055.78,221.89Z"/><polygon class="cls-2" points="1138.55 164.96 1098.11 254.79 1129.83 166.66 1138.55 164.96"/><polygon class="cls-2" points="1130.5 174.01 1039.06 185.51 1138.55 164.96 1130.5 174.01"/><circle class="cls-4" cx="2605.56" cy="101.72" r="55.42"/></svg>