<svg id="Layer_1" data-name="Layer 1" xmlns="http://www.w3.org/2000/svg" viewBox="0 0 1146 550"><defs><style>.cls-1{fill:#122e51;}.cls-2{fill:#205493;}.cls-3{fill:#0071bc;}.cls-4{fill:#d0d2d3;}.cls-5{fill:#475a77;}.cls-6{fill:#dcc424;}.cls-7{fill:#112e51;}</style></defs><title>banner--how-we-work-sm</title><rect class="cls-1" width="1146" height="550"/><rect class="cls-2" x="353.69" y="80.63" width="123.48" height="123.48"/><rect class="cls-2" x="353.69" y="488.77" width="123.48" height="61.74"/><rect class="cls-2" x="353.69" y="292.08" width="123.48" height="123.48"/><rect class="cls-3" x="117.91" y="80.63" width="123.48" height="123.48"/><polygon class="cls-3" points="210.15 414.05 118.66 414.05 118.66 292.08 240.63 292.08 240.63 383.57 210.15 414.05"/><polygon class="cls-4" points="240.63 383.57 210.15 414.05 210.15 383.57 240.63 383.57"/><rect class="cls-5" x="904.28" y="488.77" width="123.48" height="61.74"/><rect class="cls-6" x="668.5" y="80.63" width="123.48" height="123.48"/><rect class="cls-5" x="904.28" y="292.08" width="123.48" height="123.48"/><rect class="cls-5" x="904.28" y="80.63" width="123.48" height="123.48"/><rect class="cls-5" x="668.5" y="292.08" width="123.48" height="123.48"/><rect class="cls-5" x="690.89" y="107.24" width="78.69" height="14.75"/><rect class="cls-5" x="690.89" y="134.99" width="59.84" height="14.75"/><rect class="cls-7" x="926.67" y="511.76" width="78.69" height="13.21"/><rect class="cls-7" x="376.86" y="141.59" width="50.64" height="14.75"/><rect class="cls-7" x="376.86" y="113.84" width="80.13" height="14.75"/></svg>