<?xml version="1.0" encoding="utf-8"?>
<!-- Generator: Adobe Illustrator 24.0.2, SVG Export Plug-In . SVG Version: 6.00 Build 0)  -->
<svg version="1.1" id="Layer_1" xmlns="http://www.w3.org/2000/svg" xmlns:xlink="http://www.w3.org/1999/xlink" x="0px" y="0px"
	 viewBox="0 0 2880 470" style="enable-background:new 0 0 2880 470;" xml:space="preserve">
<style type="text/css">
	.st0{fill:#122D44;}
	.st1{fill:#E0CB26;}
	.st2{fill:#103C68;}
	.st3{fill:#064E96;}
	.st4{fill:#577795;}
	.st5{fill:#A39634;}
	.st6{fill:#0084CE;}
</style>
<title>banner--join-us-lg</title>
<rect class="st0" width="2880" height="470"/>
<ellipse transform="matrix(1.570732e-03 -1 1 1.570732e-03 2379.5574 2853.3628)" class="st1" cx="2618.7" cy="235" rx="147.5" ry="147.5"/>
<circle class="st2" cx="0.5" cy="235" r="150.2"/>
<circle class="st3" cx="240.9" cy="235" r="150.2"/>
<circle class="st2" cx="481.1" cy="235" r="150.2"/>
<circle class="st4" cx="723.8" cy="235.7" r="150.2"/>
<ellipse transform="matrix(0.7071 -0.7071 0.7071 0.7071 115.4669 748.7884)" class="st2" cx="961.6" cy="235" rx="150.2" ry="150.2"/>
<path class="st5" d="M811.4,235c-0.1,32.5,10.5,64.1,30,90.1c40.1-53.4,40.1-126.8,0-180.2C821.9,170.9,811.4,202.5,811.4,235z"/>
<ellipse transform="matrix(1.764593e-02 -0.9998 0.9998 1.764593e-02 945.7689 1432.6282)" class="st3" cx="1202" cy="235" rx="150.2" ry="150.2"/>
<path class="st6" d="M1051.8,235c-0.1,32.5,10.5,64.1,30,90.1c40.1-53.4,40.1-126.8,0-180.2C1062.2,170.9,1051.7,202.5,1051.8,235z"
	/>
<circle class="st2" cx="1442.3" cy="235" r="150.2"/>
<path class="st6" d="M1292,235c-0.1,32.5,10.5,64.1,30,90.1c40.1-53.4,40.1-126.8,0-180.2C1302.5,170.9,1291.9,202.5,1292,235z"/>
<path class="st6" d="M90.8,235c-0.1,32.5,10.5,64.1,30,90.1c40.1-53.4,40.1-126.8,0-180.2C101.2,170.9,90.7,202.5,90.8,235z"/>
<path class="st6" d="M331,235c-0.1,32.5,10.5,64.1,30,90.1c40.1-53.4,40.1-126.8,0-180.2C341.5,170.9,330.9,202.5,331,235z"/>
<ellipse transform="matrix(0.7071 -0.7071 0.7071 0.7071 326.6257 1258.536)" class="st4" cx="1682.5" cy="235" rx="150.2" ry="150.2"/>
<path class="st5" d="M1532.4,235c-0.1,32.5,10.5,64.1,30,90.1c40.1-53.4,40.1-126.8,0-180.2C1542.9,170.9,1532.4,202.5,1532.4,235z"
	/>
<path class="st5" d="M571.4,235c-0.1,32.5,10.5,64.1,30,90.1c40.1-53.4,40.1-126.8,0-180.2C581.9,170.9,571.4,202.5,571.4,235z"/>
</svg>
