<svg id="Layer_1" data-name="Layer 1" xmlns="http://www.w3.org/2000/svg" viewBox="0 0 1146 550"><defs><style>.cls-1{fill:#122e51;}.cls-2{fill:#dcc424;}.cls-3{fill:#1f5593;}.cls-4{fill:#003e7c;}.cls-5{fill:#0071bc;}.cls-6{fill:#475a77;}.cls-7{fill:#b0a03f;}</style></defs><title>banner--join-us-sm</title><rect class="cls-1" width="1146" height="550"/><ellipse class="cls-2" cx="906.25" cy="275" rx="140.14" ry="140.13" transform="translate(629.89 1180.84) rotate(-89.91)"/><circle class="cls-3" cx="0.28" cy="275.01" r="142.68" transform="translate(-194.38 80.75) rotate(-45)"/><circle class="cls-4" cx="228.53" cy="275.01" r="142.68" transform="translate(-51.35 497.55) rotate(-88.76)"/><path class="cls-5" d="M85.85,275a142.06,142.06,0,0,0,28.53,85.61A142,142,0,0,0,142.92,275a142,142,0,0,0-28.54-85.61A142.08,142.08,0,0,0,85.85,275Z"/><circle class="cls-6" cx="456.83" cy="274.99" r="142.68" transform="translate(-60.65 403.57) rotate(-45)"/><path class="cls-7" d="M314.24,275a142.06,142.06,0,0,0,28.53,85.61,142.67,142.67,0,0,0,0-171.22A142.08,142.08,0,0,0,314.24,275Z"/></svg>