<?xml version="1.0" encoding="utf-8"?>
<!-- Generator: Adobe Illustrator 24.0.2, SVG Export Plug-In . SVG Version: 6.00 Build 0)  -->
<svg version="1.1" id="Layer_1" xmlns="http://www.w3.org/2000/svg" xmlns:xlink="http://www.w3.org/1999/xlink" x="0px" y="0px"
	 viewBox="0 0 20 11" style="enable-background:new 0 0 20 11;" xml:space="preserve">
<style type="text/css">
	.st0{fill-rule:evenodd;clip-rule:evenodd;fill:#3F3F3F;}
</style>
<title>checkbox-check-print</title>
<path class="st0" d="M15.8,1.2l-1.1-1C14.6,0.1,14.4,0,14.2,0c-0.2,0-0.4,0.1-0.5,0.2l-5.1,5L6.3,3C6.2,2.8,6,2.7,5.8,2.7
	C5.6,2.7,5.4,2.8,5.3,3L4.2,4C4.1,4.1,4,4.3,4,4.5C4,4.7,4.1,4.9,4.2,5L7,7.8l1.1,1C8.2,8.9,8.4,9,8.6,9C8.8,9,9,8.9,9.1,8.8l1.1-1
	l5.6-5.5C15.9,2.1,16,2,16,1.8C16,1.6,15.9,1.4,15.8,1.2L15.8,1.2z"/>
</svg>
