<?xml version="1.0" encoding="utf-8"?>
<!-- Generator: Adobe Illustrator 24.0.2, SVG Export Plug-In . SVG Version: 6.00 Build 0)  -->
<svg version="1.1" id="Layer_1" xmlns="http://www.w3.org/2000/svg" xmlns:xlink="http://www.w3.org/1999/xlink" x="0px" y="0px"
	 viewBox="0 0 15 15" style="enable-background:new 0 0 15 15;" xml:space="preserve">
<style type="text/css">
	.st0{fill-rule:evenodd;clip-rule:evenodd;fill:#064E96;}
</style>
<path class="st0" d="M14.6,11.2c0.2,0.2,0.4,0.5,0.4,0.9s-0.1,0.6-0.4,0.9l-1.7,1.7c-0.2,0.2-0.5,0.4-0.9,0.4
	c-0.3,0-0.6-0.1-0.9-0.4l-3.7-3.7l-3.7,3.7C3.6,14.9,3.3,15,2.9,15c-0.3,0-0.6-0.1-0.9-0.4l-1.7-1.7C0.1,12.7,0,12.4,0,12.1
	c0-0.3,0.1-0.6,0.4-0.9l3.7-3.7L0.4,3.8C0.1,3.6,0,3.3,0,2.9c0-0.3,0.1-0.6,0.4-0.9l1.7-1.7C2.3,0.1,2.6,0,2.9,0
	c0.3,0,0.6,0.1,0.9,0.4l3.7,3.7l3.7-3.7C11.4,0.1,11.7,0,12.1,0c0.3,0,0.6,0.1,0.9,0.4l1.7,1.7C14.9,2.3,15,2.6,15,2.9
	c0,0.3-0.1,0.6-0.4,0.9l-3.7,3.7L14.6,11.2L14.6,11.2z"/>
</svg>
