<?xml version="1.0" encoding="utf-8"?>
<!-- Generator: Adobe Illustrator 24.0.2, SVG Export Plug-In . SVG Version: 6.00 Build 0)  -->
<svg version="1.1" id="Layer_1" xmlns="http://www.w3.org/2000/svg" xmlns:xlink="http://www.w3.org/1999/xlink" x="0px" y="0px"
	 viewBox="0 0 64 49" style="enable-background:new 0 0 64 49;" xml:space="preserve">
<style type="text/css">
	.st0{fill-rule:evenodd;clip-rule:evenodd;fill:#064E96;}
</style>
<title>correct9</title>
<path class="st0" d="M62.8,6.8l-5.6-5.6C56.5,0.4,55.5,0,54.4,0c-1.1,0-2,0.4-2.8,1.2L24.5,28.3L12.4,16.1c-0.8-0.8-1.7-1.2-2.8-1.2
	c-1.1,0-2,0.4-2.8,1.2l-5.6,5.6C0.4,22.5,0,23.4,0,24.5s0.4,2,1.2,2.8l14.9,14.9l5.6,5.6c0.8,0.8,1.7,1.2,2.8,1.2
	c1.1,0,2-0.4,2.8-1.2l5.6-5.6l29.9-29.9c0.8-0.8,1.2-1.7,1.2-2.8C64,8.5,63.6,7.5,62.8,6.8L62.8,6.8z"/>
</svg>
