<?xml version="1.0" encoding="utf-8"?>
<!-- Generator: Adobe Illustrator 24.0.2, SVG Export Plug-In . SVG Version: 6.00 Build 0)  -->
<svg version="1.1" id="Layer_1" xmlns="http://www.w3.org/2000/svg" xmlns:xlink="http://www.w3.org/1999/xlink" x="0px" y="0px"
	 viewBox="0 0 65 50" style="enable-background:new 0 0 65 50;" xml:space="preserve">
<style type="text/css">
	.st0{fill-rule:evenodd;clip-rule:evenodd;fill:#3F3F3F;}
</style>
<title>correct8-alt</title>
<path class="st0" d="M63.3,7.1l-5.6-5.6c-0.8-0.8-1.7-1.2-2.8-1.2s-2,0.4-2.8,1.2L25,28.6L12.8,16.4c-0.8-0.8-1.7-1.2-2.8-1.2
	c-1.1,0-2,0.4-2.8,1.2L1.6,22c-0.8,0.8-1.2,1.7-1.2,2.8s0.4,2,1.2,2.8l14.9,14.9l5.6,5.6c0.8,0.8,1.7,1.2,2.8,1.2s2-0.4,2.8-1.2
	l5.6-5.6l29.9-29.9c0.8-0.8,1.2-1.7,1.2-2.8C64.4,8.8,64,7.8,63.3,7.1C63.3,7.1,63.3,7.1,63.3,7.1z"/>
</svg>
