<?xml version="1.0" encoding="utf-8"?>
<!-- Generator: Adobe Illustrator 24.0.2, SVG Export Plug-In . SVG Version: 6.00 Build 0)  -->
<svg version="1.1" id="Layer_1" xmlns="http://www.w3.org/2000/svg" xmlns:xlink="http://www.w3.org/1999/xlink" x="0px" y="0px"
	 viewBox="0 0 64 55" style="enable-background:new 0 0 64 55;" xml:space="preserve">
<style type="text/css">
	.st0{fill-rule:evenodd;clip-rule:evenodd;fill:#969696;}
</style>
<title>external-link-alt</title>
<path class="st0" d="M35.2,5c0.3,0,0.6,0.1,0.8,0.3c0.2,0.2,0.3,0.5,0.3,0.8v2.3c0,0.3-0.1,0.6-0.3,0.8c-0.2,0.2-0.5,0.3-0.8,0.3
	h-25c-1.6,0-2.9,0.6-4,1.7s-1.7,2.4-1.7,4v29.5c0,1.6,0.6,2.9,1.7,4s2.5,1.7,4,1.7h29.5c1.6,0,2.9-0.6,4-1.7c1.1-1.1,1.7-2.5,1.7-4
	V33.4c0-0.3,0.1-0.6,0.3-0.8c0.2-0.2,0.5-0.3,0.8-0.3h2.3c0.3,0,0.6,0.1,0.8,0.3c0.2,0.2,0.3,0.5,0.3,0.8v11.4c0,2.8-1,5.2-3,7.2
	c-2,2-4.4,3-7.2,3H10.2C7.4,55,5,54,3,52c-2-2-3-4.4-3-7.2V15.2C0,12.4,1,10,3,8c2-2,4.4-3,7.2-3H35.2z M61.7,0
	c0.6,0,1.2,0.2,1.6,0.7c0.5,0.5,0.7,1,0.7,1.6v18.5c0,0.6-0.2,1.2-0.7,1.6c-0.5,0.5-1,0.7-1.6,0.7s-1.2-0.2-1.6-0.7l-6.4-6.4
	L30.1,39.6c-0.2,0.2-0.5,0.4-0.8,0.4s-0.6-0.1-0.8-0.4l-4.1-4.1C24.1,35.3,24,35,24,34.7c0-0.3,0.1-0.6,0.4-0.8l23.6-23.6l-6.4-6.4
	c-0.5-0.5-0.7-1-0.7-1.6s0.2-1.2,0.7-1.6C42,0.2,42.6,0,43.2,0L61.7,0z"/>
</svg>
