<svg id="Layer_1" data-name="Layer 1" xmlns="http://www.w3.org/2000/svg" viewBox="0 0 708 708"><defs><style>.cls-1{fill:#112e50;}.cls-2{fill:#a99b33;}.cls-3{fill:#0d71ba;}.cls-4{fill:#fff;}</style></defs><title>graphic-news-media-press-kit</title><circle class="cls-1" cx="354" cy="354" r="334.43"/><path class="cls-2" d="M378.94,203.46H332.63c-30.14,0-47,24.11-47,43l5.4,10.7a34.51,34.51,0,0,0,16.83,29.55,20.83,20.83,0,0,1-.33-3.55l-4.61-36.78c1.21-11.94,10.55-27.16,28.5-27.16h48.49c17.95,0,27.87,16.9,27.87,28.23l-4,35.71a20.83,20.83,0,0,1-.33,3.55,34.5,34.5,0,0,0,16.82-29.55l5.09-10.7C425.38,227.57,410,203.46,378.94,203.46Z"/><rect class="cls-3" x="167.12" y="246.5" width="377.09" height="241.28" rx="9.89" ry="9.89"/><path class="cls-3" d="M170.74,485.81,541.25,249.73A9.85,9.85,0,0,0,534,246.5H176.64a9.89,9.89,0,0,0-9.89,9.89v221.5A9.84,9.84,0,0,0,170.74,485.81Z"/><circle class="cls-4" cx="355.66" cy="366.54" r="77.54"/><polygon class="cls-3" points="371.08 375.51 371.08 325.84 340.25 325.84 340.25 375.51 313.47 375.51 355.66 411.43 397.86 375.51 371.08 375.51"/></svg>