<svg id="Layer_1" data-name="Layer 1" xmlns="http://www.w3.org/2000/svg" viewBox="0 0 598 628"><defs><style>.cls-1{fill:#1173bb;}</style></defs><title>graphic-mission-student</title><path class="cls-1" d="M220.18,288.92l0-11.25c-18.66,5.39-44.71-4.35-50.07-23.87l-12.57,43.07c3.55.13,7,.23,10.36.23C191.93,297.09,206.54,294.4,220.18,288.92Z"/><path class="cls-1" d="M168.11,310.34h-.17c-4.44,0-9.08-.13-13.85-.35a57.67,57.67,0,0,0,42.38,58.23L209,371.65a88.39,88.39,0,0,0,11.54,1.74V304C206.28,308.1,188.08,310.34,168.11,310.34Z"/><path class="cls-1" d="M241.64,260.84c10.69-4.67,22.57-11.45,36.4-20.82a20.86,20.86,0,0,0-23.43-34.53c-12.29,8.36-22.24,13.89-29.65,17.11a62.83,62.83,0,0,1-7.7,2.86,51.8,51.8,0,0,1,2.26-7.69,87.55,87.55,0,0,1,8.73-17.06v0a82.18,82.18,0,0,1,8.59-11,25.92,25.92,0,0,1-4.22,13.87c-1.34,2-2.6,4.17-3.76,6.32v2.07a208.84,208.84,0,0,0,21.86-13.43,28.09,28.09,0,0,1,12.14-4.42c-4.28-26.79-14.6-48.19-17.74-54.57-.08-.18-.15-.31-.22-.46-11.54,1.33-20.86,6.78-28.73,13a111.4,111.4,0,0,0-22.82,25.8.56.56,0,0,0-.05.08,129,129,0,0,0-12.91,25.33c-3.21,8.76-5.39,17.59-5.44,27,0,8,1.68,17.43,8.55,25.77a33.21,33.21,0,0,0,13,9.43,39.59,39.59,0,0,0,15.08,2.81C221.44,268.19,230.93,265.45,241.64,260.84Z"/><path class="cls-1" d="M358.29,302c22.47-1.45,40.7-7.91,54.24-19.23a65.43,65.43,0,0,0,15.8-19.59l13.92,21.67L375,328Z"/><path class="cls-1" d="M314.87,234.37l49.68-31.89c7.22,9.33,11.43,21.26,11.24,27.53v.13a12.46,12.46,0,0,1-.63,4.31c-.57,1.25-1,2-3.88,3.62-2.78,1.46-9.45,3.9-22.92,3.9-3.76,0-7.92-.2-12.36-.6-.94-.08-1.87-.12-2.77-.12A30.4,30.4,0,0,0,321,243.84Z"/><path class="cls-1" d="M346.5,138.91H264.9c5.52,12.69,14,31.82,16.93,58.46a67.44,67.44,0,0,1,8.74,9.35c3.91,5.76,6.06,15.09,4.75,21.93-1.19,8.77-8.13,15.81-16,20-.26.17-.15.72-.41.9a77.16,77.16,0,0,1-19.56,32.27c-7.95,7.76-18,14.18-30.45,18.95V593a32.25,32.25,0,0,0,64.49,0V357.59h12.09V593a32.25,32.25,0,0,0,64.49,0V337.39l-.55-.86-21.94-34.16c-14.08-1.19-34.49-.2-41.62-19.29-6.13-16.42.9-28.7,7.18-34.09l-8.2-13L302,231.57l4.39-2.82L362,193a26.14,26.14,0,0,1-4.15-9.32A49.29,49.29,0,0,1,368,192.15h0c10.11,10.51,17.46,27.37,17.13,38a21,21,0,0,1-1.43,8.1c-1.39,3.07-3.06,5.38-8,8.08s-13.72,5-27.29,5c-4,0-8.39-.2-13.2-.64a20.86,20.86,0,1,0-3.8,41.55c5.94.55,12.21,1.55,17.61,1.55,24.22,0,43.25-6.19,57.56-18.16a55.67,55.67,0,0,0,15.67-21.3,62.42,62.42,0,0,0,4.65-24.16c-.33-25.37-12.14-48.68-28.3-66.4l0,0A94.82,94.82,0,0,0,385.33,152a80.26,80.26,0,0,0-8.54-5.58,70,70,0,0,0-7.52-3.55,54.36,54.36,0,0,0-20.22-4.11A21.4,21.4,0,0,0,346.5,138.91Z"/><path class="cls-1" d="M360.36,92.45c-5-11.37,3.23-23.3-7.12-49a62.63,62.63,0,0,0-4.94-10.54l-.75-1.4a1.37,1.37,0,0,0,0,.19C337.25,15,319.53,4,299.39,4c-29.07,0-53.11,23-57.1,52.82-3.54,16.88,1.06,26.44-3,35.63-2.3,5.22-7.23,9.12-11.6,6.81,2.84,11.3,19.53,17.4,43.23,17.4a11.76,11.76,0,0,0,3.33-.43c8.43,4.67,17.33,7.25,25.13,7.25s16.93-2.65,25.46-7.43a11.15,11.15,0,0,0,3.88.61c23.7,0,40.39-6.1,43.23-17.4C367.6,101.57,362.66,97.67,360.36,92.45Z"/></svg>