<svg id="Layer_1" data-name="Layer 1" xmlns="http://www.w3.org/2000/svg" viewBox="0 0 598 628"><defs><style>.cls-1{fill:#0d71ba;}</style></defs><title>graphic-mission-veteran</title><circle class="cls-1" cx="299" cy="62.99" r="58.99" transform="translate(212.99 356.2) rotate(-85.55)"/><path class="cls-1" d="M399.32,171.77c-8.55-13-18.54-21.29-27.78-25.89a49.68,49.68,0,0,0-21-5.54c-.43,0-.87-.07-1.31-.07H248.77c-.42,0-.82,0-1.22.07a49.56,49.56,0,0,0-21.1,5.54c-14,6.94-29.07,22.11-39.62,49s-17.85,66-17.89,124.94c0,15.23.5,31.8,1.56,49.82a20.79,20.79,0,0,0,20.75,19.59l1.24,0a20.81,20.81,0,0,0,19.54-22c-1-17.3-1.48-33-1.47-47.39-.09-63,9.08-85.53,18.1-104V593.1a32.16,32.16,0,0,0,64.31,0V358.34H305V593.1a32.16,32.16,0,0,0,64.31,0V255.56c0,9.47,3.09-45.66,4.63-41.42,7.34,20.31,13.5,53.65,13.48,105.68,0,14.35-.47,30.1-1.48,47.4a20.82,20.82,0,0,0,19.56,22c.41,0,.82,0,1.23,0a20.81,20.81,0,0,0,20.76-19.6c1-18,1.54-34.58,1.54-49.81C429,241.33,416.41,197.89,399.32,171.77Zm-111.27-.22A1.55,1.55,0,0,1,289.6,170H348a1.55,1.55,0,0,1,1.55,1.54V196a7.67,7.67,0,0,1-2.45,5.41c-1.13,1.28-23.54,18.9-23.54,18.9s-1.18,1-1.82,1h-5.77c-.64,0-1.65-1-1.65-1S292,203.15,290.15,201c-2.1-2.47-2.1-2.91-2.1-5.23Zm64,84.69c-4.29,9.11-33.22,33.83-33.31,33.83s-29.1-24.72-33.31-33.83c-4.38-9.47-.82-22.37,9.21-25.25,10.3-3,21.23,5.76,24.1,14.76,2.42-8.68,13-17.71,24.11-14.76C353,233.67,356.48,246.77,352.09,256.24Z"/></svg>