<svg id="Layer_1" data-name="Layer 1" xmlns="http://www.w3.org/2000/svg" viewBox="0 0 708 708"><defs><style>.cls-1{fill:#112e50;}.cls-2{fill:#0d71ba;}.cls-3{fill:#1f5594;}.cls-4{fill:#fff;}.cls-5{fill:#9cdbf1;}.cls-6{fill:#d9c226;}.cls-7{fill:#968530;}.cls-8{fill:#aa9b35;}</style></defs><title>graphic-news-media-email</title><circle class="cls-1" cx="354" cy="356.21" r="334.43"/><polygon class="cls-2" points="353.74 161.99 182.34 270.94 525.66 270.94 353.74 161.99"/><rect class="cls-3" x="182.34" y="270.95" width="343.31" height="219.66"/><rect class="cls-4" x="217.04" y="250.82" width="273.39" height="198.11"/><rect class="cls-5" x="259.35" y="285.79" width="161.3" height="6.53" transform="translate(679.99 578.11) rotate(180)"/><rect class="cls-5" x="259.35" y="305.62" width="188.02" height="6.53"/><rect class="cls-5" x="259.35" y="325.45" width="176.99" height="6.53"/><rect class="cls-5" x="259.35" y="345.28" width="161.3" height="6.53"/><rect class="cls-5" x="259.35" y="365.1" width="188.02" height="6.53"/><polygon class="cls-6" points="182.34 270.94 315.35 385.04 182.34 490.61 182.34 270.94"/><polygon class="cls-7" points="525.66 270.94 392.65 385.04 525.66 490.61 525.66 270.94"/><polygon class="cls-8" points="182.34 490.61 315.35 385.04 392.65 385.04 525.66 490.61 182.34 490.61"/></svg>