<svg id="Layer_1" data-name="Layer 1" xmlns="http://www.w3.org/2000/svg" xmlns:xlink="http://www.w3.org/1999/xlink" viewBox="0 0 2000 2000"><defs><style>.cls-1{fill:none;}.cls-2{clip-path:url(#clip-path);}.cls-3{clip-path:url(#clip-path-2);}.cls-4{fill:#c0ac4a;}.cls-5{fill:#112e50;}.cls-6{fill:#0d72b9;}.cls-7{fill:#fff;}</style><clipPath id="clip-path"><rect class="cls-1" width="2000" height="2000" rx="100" ry="100"/></clipPath><clipPath id="clip-path-2"><polyline class="cls-1" points="2033.35 2043.63 -32.03 2043.63 -32.03 -37.31 2033.35 -37.31"/></clipPath></defs><title>graphic-mission-optimize-results</title><g class="cls-2"><g class="cls-3"><rect class="cls-4" x="688.2" y="-337.16" width="132.39" height="1910.54" transform="translate(-216.11 714.48) rotate(-45)"/><rect class="cls-4" x="1530.72" y="-1179.68" width="132.39" height="1910.54" transform="translate(626.42 1063.47) rotate(-45)"/><rect class="cls-5" x="781.81" y="-430.78" width="132.39" height="1910.54" transform="translate(-122.49 753.25) rotate(-45)"/><rect class="cls-4" x="875.43" y="-524.39" width="132.39" height="1910.54" transform="translate(-28.88 792.02) rotate(-45)"/><rect class="cls-6" x="969.04" y="-618" width="132.39" height="1910.54" transform="translate(64.74 830.81) rotate(-45)"/><rect class="cls-7" x="1062.65" y="-711.62" width="132.39" height="1910.54" transform="translate(158.35 869.59) rotate(-45)"/><rect class="cls-5" x="1156.27" y="-805.23" width="132.39" height="1910.54" transform="translate(251.95 908.35) rotate(-45)"/><rect class="cls-4" x="1249.88" y="-898.84" width="132.39" height="1910.54" transform="translate(345.58 947.14) rotate(-45)"/><rect class="cls-7" x="1343.49" y="-992.45" width="132.39" height="1910.53" transform="translate(439.18 985.9) rotate(-45)"/><rect class="cls-7" x="571.19" y="-300.05" width="132.39" height="1976.73" transform="translate(-300.03 652.29) rotate(-45)"/><rect class="cls-7" x="1607.05" y="-1329.95" width="132.39" height="1976.73" transform="translate(731.61 1083.11) rotate(-45)"/><rect class="cls-6" x="1437.11" y="-1086.07" width="132.39" height="1910.54" transform="translate(532.79 1024.68) rotate(-45)"/><rect class="cls-4" x="-318.02" y="695.58" width="130.79" height="1910.54" transform="translate(-1241.33 304.9) rotate(-45)"/><rect class="cls-4" x="513.64" y="-138.91" width="130.79" height="1910.53" transform="translate(-407.65 648.56) rotate(-45)"/><rect class="cls-5" x="-225.53" y="603.09" width="130.79" height="1910.54" transform="translate(-1148.83 343.2) rotate(-45)"/><rect class="cls-4" x="-133.05" y="510.61" width="130.79" height="1910.54" transform="translate(-1056.32 381.49) rotate(-45)"/><rect class="cls-6" x="-40.56" y="418.12" width="130.79" height="1910.54" transform="translate(-963.87 419.84) rotate(-45)"/><rect class="cls-7" x="51.93" y="325.64" width="130.79" height="1910.54" transform="translate(-871.37 458.12) rotate(-45)"/><rect class="cls-5" x="144.41" y="233.15" width="130.79" height="1910.54" transform="translate(-778.89 496.44) rotate(-45)"/><rect class="cls-4" x="236.9" y="140.67" width="130.79" height="1910.54" transform="translate(-686.41 534.75) rotate(-45)"/><rect class="cls-7" x="329.38" y="48.18" width="130.79" height="1910.54" transform="translate(-593.92 573.05) rotate(-45)"/><rect class="cls-7" x="-410.5" y="788.06" width="130.79" height="1910.54" transform="translate(-1333.79 266.58) rotate(-45)"/><rect class="cls-6" x="422.81" y="-44.87" width="130.79" height="1910.54" transform="translate(-500.76 611.86) rotate(-45)"/></g><polyline class="cls-6" points="-17.09 2017.79 26.02 1973.76 1021.21 978.29 1215.35 1172.17 1953.59 433.96 1998.73 389.01 1999.07 2016.74 -16.74 2016.74"/><rect class="cls-6" x="1973.45" y="338.97" width="118.87" height="1681.13"/></g></svg>