<svg id="Layer_1" data-name="Layer 1" xmlns="http://www.w3.org/2000/svg" viewBox="0 0 598 628"><defs><style>.cls-1{fill:#1173bb;}</style></defs><title>graphic-mission-servicemember</title><path class="cls-1" d="M266.59,40.51a25.79,25.79,0,0,1,1.78,3.92A145.15,145.15,0,0,1,301.14,41C332.47,41,357,49.17,357,59.63a8.11,8.11,0,0,1-1.83,4.93l-1,1.33-1-1.33c-5.66-7.38-27.51-12.73-52-12.73A144.6,144.6,0,0,0,269.82,55a26.24,26.24,0,0,1-13.24,21c-2.92,1.63-5.76,3.28-8.66,5,0,0,0,.06,0,.1a3.71,3.71,0,0,0-1.53,1,40,40,0,0,0-1,10.62c0,1.43.07,2.84.17,4.24.2,6.56.69,11.76-1.54,16.83s-7,8.81-11.21,6.58c2.44,9.71,15.45,15.44,34.39,16.59a55.74,55.74,0,0,0,67.81.14c20.44-.75,34.61-6.56,37.16-16.73-4.21,2.23-9-1.53-11.21-6.58-4.61-10.47,2.4-21.44-5.6-43.94a5.91,5.91,0,0,0,.34-1.28c6.49.23,11.48-.82,13.69-4.29C376.73,52.7,357.77,4,301.14,4c-27.39,0-45.74,12.91-54.28,23.37A26.13,26.13,0,0,1,266.59,40.51Z"/><path class="cls-1" d="M314.49,253.92l-5.9-59.06a28.37,28.37,0,0,1-7.43,1h0a28.09,28.09,0,0,1-7.44-1l-5.9,59.06c-2.2-1.35-13.29-91.17-13.29-91.17H256.83a174.43,174.43,0,0,1-32.37-15c-7.31-4.44-13.93-9.69-18-14.61s-5.5-8.83-5.51-12.35,1.26-9,8.93-17.92,15.41-16.46,37.52-28.82C257,68.72,265,55.29,258.82,44.62c-5.51-9.48-19.5-11.53-29.06-6.17C205.1,52.3,192,63.05,180,76.83c-12,13.62-18.73,28.81-18.69,44,0,16.26,7.52,29.81,16.39,39.71,13.49,15,30.76,24.43,44.84,31.08,4.19,1.95,8.1,3.6,11.55,5v398a30.67,30.67,0,0,0,61.33,0V370.7h11.5V594.59a30.67,30.67,0,0,0,61.33,0V222.67a106.63,106.63,0,0,1,4.41,10.5c7,19.38,12.87,51.17,12.85,100.8,0,13.68-.43,28.7-1.4,45.2a19.84,19.84,0,0,0,18.65,21c.4,0,.79,0,1.18,0a19.85,19.85,0,0,0,19.79-18.69c1-17.2,1.46-33,1.47-47.51-.1-74.86-12.07-116.29-28.36-141.2-8.15-12.36-17.69-20.3-26.49-24.69a47.24,47.24,0,0,0-20.42-5.29c-.28,0-.56,0-.85,0H327.78"/><path class="cls-1" d="M301.14,163.84H294.2l-3.47,18.6,2,4.2a20.83,20.83,0,0,0,16.92,0l1.95-4.19-3.47-18.6Z"/></svg>