<svg xmlns="http://www.w3.org/2000/svg" viewBox="0 0 2000 2000"><defs><style>.cls-1{isolation:isolate;}.cls-2,.cls-6{fill:#112e50;}.cls-3{fill:#0d72b9;}.cls-4{fill:#f2f2f2;}.cls-5{fill:#c0ac4a;}.cls-6{mix-blend-mode:multiply;}</style></defs><title>graphic-mission-hire-empower</title><g class="cls-1"><g id="Layer_1" data-name="Layer 1"><rect class="cls-2" width="2000" height="2000" rx="100" ry="100"/><polyline class="cls-3" points="113.41 1623.74 239.55 1749.88 113.41 1876.01"/><polyline class="cls-4" points="366.51 1623.32 239.9 1749.55 113.66 1623.32"/><polyline class="cls-5" points="366.51 1875.59 240.37 1749.45 366.51 1623.32"/><polyline class="cls-6" points="113.41 1876.01 240.02 1749.78 366.26 1876.01"/><polyline class="cls-3" points="366.76 1370.39 492.9 1496.53 366.76 1622.67"/><polyline class="cls-4" points="619.86 1369.97 493.25 1496.2 367.01 1369.97"/><polyline class="cls-5" points="619.86 1622.24 493.72 1496.11 619.86 1369.97"/><polyline class="cls-6" points="366.76 1622.67 493.36 1496.43 619.61 1622.67"/><polyline class="cls-3" points="620.11 1623.74 746.24 1749.88 620.11 1876.01"/><polyline class="cls-4" points="873.2 1623.32 746.6 1749.55 620.35 1623.32"/><polyline class="cls-5" points="873.2 1875.59 747.07 1749.45 873.2 1623.32"/><polyline class="cls-6" points="620.1 1876.01 746.71 1749.78 872.95 1876.01"/><polyline class="cls-3" points="873.45 1370.39 999.59 1496.53 873.45 1622.67"/><polyline class="cls-4" points="1126.55 1369.97 999.94 1496.2 873.7 1369.97"/><polyline class="cls-5" points="1126.55 1622.24 1000.41 1496.11 1126.55 1369.97"/><polyline class="cls-6" points="873.45 1622.67 1000.06 1496.43 1126.3 1622.67"/><polyline class="cls-3" points="1126.8 1623.74 1252.93 1749.88 1126.8 1876.01"/><polyline class="cls-4" points="1379.9 1623.32 1253.29 1749.55 1127.05 1623.32"/><polyline class="cls-5" points="1379.89 1875.59 1253.76 1749.45 1379.89 1623.32"/><polyline class="cls-6" points="1126.8 1876.01 1253.4 1749.78 1379.65 1876.01"/><polyline class="cls-3" points="1633.49 1623.74 1759.63 1749.88 1633.49 1876.01"/><polyline class="cls-4" points="1886.59 1623.32 1759.98 1749.55 1633.74 1623.32"/><polyline class="cls-5" points="1886.59 1875.59 1760.45 1749.45 1886.59 1623.32"/><polyline class="cls-6" points="1633.49 1876.01 1760.1 1749.78 1886.34 1876.01"/><polyline class="cls-3" points="1380.14 1370.39 1506.28 1496.53 1380.14 1622.67"/><polyline class="cls-4" points="1633.24 1369.97 1506.64 1496.2 1380.39 1369.97"/><polyline class="cls-5" points="1633.24 1622.24 1507.1 1496.11 1633.24 1369.97"/><polyline class="cls-6" points="1380.14 1622.67 1506.75 1496.43 1632.99 1622.67"/><polyline class="cls-3" points="620.11 1117.05 746.24 1243.18 620.11 1369.32"/><polyline class="cls-4" points="873.2 1116.62 746.6 1242.86 620.35 1116.62"/><polyline class="cls-5" points="873.2 1368.9 747.07 1242.76 873.2 1116.62"/><polyline class="cls-6" points="620.1 1369.32 746.71 1243.09 872.95 1369.32"/><polyline class="cls-3" points="1126.8 1117.05 1252.93 1243.18 1126.8 1369.32"/><polyline class="cls-4" points="1379.9 1116.62 1253.29 1242.86 1127.05 1116.62"/><polyline class="cls-5" points="1379.89 1368.9 1253.76 1242.76 1379.89 1116.62"/><polyline class="cls-6" points="1126.8 1369.32 1253.4 1243.09 1379.65 1369.32"/><polyline class="cls-3" points="873.45 863.7 999.59 989.84 873.45 1115.97"/><polyline class="cls-4" points="1126.55 863.28 999.94 989.51 873.7 863.28"/><polyline class="cls-5" points="1126.55 1115.55 1000.41 989.41 1126.55 863.28"/><polyline class="cls-6" points="873.45 1115.97 1000.06 989.74 1126.3 1115.97"/></g></g></svg>