<svg id="Layer_1" data-name="Layer 1" xmlns="http://www.w3.org/2000/svg" viewBox="0 0 1092 710"><defs><style>.cls-1{fill:#112e50;}.cls-2,.cls-3{fill:none;stroke:#0d71ba;stroke-miterlimit:10;}.cls-2{stroke-width:9px;}.cls-3{stroke-width:11px;}.cls-4{fill:#0d71ba;}.cls-5{fill:#d9c226;}</style></defs><title>graphic-how-we-work-engineering</title><rect class="cls-1" y="-0.35" width="1092" height="710" rx="46" ry="46"/><polyline class="cls-2" points="520.76 160.8 520.76 78.73 221.35 78.73 221.35 134.41"/><line class="cls-2" x1="615.79" y1="159.8" x2="615.79" y2="-0.35"/><line class="cls-2" x1="712.23" y1="166.78" x2="712.23" y2="76.7"/><line class="cls-2" x1="474.9" y1="636.02" x2="474.9" y2="543.55"/><polyline class="cls-2" points="761.32 263.65 854.38 263.65 854.38 49.2"/><line class="cls-2" x1="987.03" y1="103.19" x2="855.54" y2="103.19"/><polyline class="cls-2" points="1053.54 184.74 960.52 184.74 855.54 229.7"/><polyline class="cls-2" points="769.23 336.07 926.06 336.07 989.31 389.69 1092.23 389.69"/><polyline class="cls-2" points="769.23 421.68 926.23 421.68 926.23 577.97"/><polyline class="cls-2" points="1004.35 637.55 1004.35 521.09 926.23 460.56"/><polyline class="cls-2" points="709.13 547.06 709.13 638.22 834.68 638.22 599.15 638.22 599.15 708.92"/><polyline class="cls-2" points="380.99 543.55 380.99 643.22 74.36 643.22 74.36 558.17 221.35 558.17"/><polyline class="cls-2" points="324.22 220.05 107.35 220.05 107.35 63.41"/><polyline class="cls-2" points="323.22 421.68 129.31 421.68 78.45 385.39"/><polyline class="cls-2" points="-0.74 487.67 155.24 487.67 243.85 421.68"/><polyline class="cls-2" points="323.22 328.4 185.48 328.4 130.44 285.42 -0.74 285.42"/><circle class="cls-3" cx="221.35" cy="151.91" r="17.5"/><circle class="cls-3" cx="64.21" cy="375.23" r="17.5"/><circle class="cls-3" cx="711.23" cy="60.2" r="17.5"/><circle class="cls-3" cx="1004.35" cy="655.05" r="17.5"/><circle class="cls-3" cx="852.19" cy="638.22" r="17.5"/><circle class="cls-4" cx="107.35" cy="63.41" r="21.96"/><circle class="cls-4" cx="854.38" cy="41.45" r="21.96"/><circle class="cls-4" cx="1042.48" cy="184.74" r="21.96"/><circle class="cls-4" cx="926.23" cy="582.86" r="21.96"/><circle class="cls-4" cx="474.9" cy="656.74" r="21.96"/><circle class="cls-4" cx="227.67" cy="556.41" r="21.96"/><circle class="cls-3" cx="1003.02" cy="102.82" r="17.5"/><rect class="cls-2" x="326.35" y="163.02" width="438.78" height="380.53"/><path class="cls-4" d="M526.3,215.29l-9.58,33.76a108.59,108.59,0,0,0-24.88,10.27l-30.7-17.08L433.7,269.68l17.08,30.71a108.52,108.52,0,0,0-10.27,24.87l-33.76,9.58v38.89l33.76,9.58a108.59,108.59,0,0,0,10.27,24.88l-17.08,30.7,27.44,27.44,30.7-17.08a108.59,108.59,0,0,0,24.88,10.27l9.58,33.76h38.89l9.58-33.76a108.52,108.52,0,0,0,24.87-10.27l30.7,17.08,27.45-27.44-17.08-30.7A108.59,108.59,0,0,0,651,383.31l33.76-9.58V334.84L651,325.26a108.52,108.52,0,0,0-10.27-24.87l17.08-30.71-27.45-27.44-30.7,17.08a108.52,108.52,0,0,0-24.87-10.27l-9.58-33.76Zm19.44,50.54a88.46,88.46,0,1,1-88.45,88.46A88.65,88.65,0,0,1,545.74,265.83Z"/><circle class="cls-5" cx="545.74" cy="354.29" r="55.15"/></svg>