<svg id="Layer_1" data-name="Layer 1" xmlns="http://www.w3.org/2000/svg" viewBox="0 0 700 700"><defs><style>.cls-1{fill:#112e50;}.cls-2{fill:#d9c226;}.cls-3{fill:#0d71ba;}.cls-4{fill:#1f5594;}.cls-5{fill:#485a78;}.cls-6{fill:#596681;}</style></defs><title>graphic-how-we-work-decisions</title><circle class="cls-1" cx="350" cy="350" r="350"/><circle class="cls-2" cx="490.84" cy="425.58" r="36.7"/><path class="cls-3" d="M490.84,254.81,419.05,425.73l-.38.9-.07,1,0,.53c0,13.25,7.59,26.74,20.82,37,13.78,10.69,32.05,16.58,51.44,16.58,19.78,0,38-5.48,51.35-15.42S563.1,442.64,563.1,428v-1.19Zm58.95,170.77H431.9l58.94-140.33Z"/><path class="cls-3" d="M211.27,173.9,139.46,344.82l-.46,1.09v1.19c0,13.26,7.59,26.77,20.82,37.07,13.78,10.73,32.05,16.64,51.44,16.64,19.78,0,38-5.48,51.35-15.42s20.91-23.66,20.91-38.29v-1.19Zm58.94,170.76H152.31l59-140.32Z"/><path class="cls-4" d="M72.44,563.21C136.43,646.38,237,700,350,700s213.57-53.62,277.56-136.79Z"/><path class="cls-5" d="M520.21,247.32,359.87,201.39v-60.8a9.42,9.42,0,1,0-18.83,0V196L185.89,151.55a9.42,9.42,0,0,0-5.19,18.11L341,215.59V530.8a9.42,9.42,0,1,0,18.83,0V221L515,265.43a9.42,9.42,0,0,0,5.19-18.11Z"/><path class="cls-6" d="M280.76,523H420.14A18.84,18.84,0,0,1,439,541.79v21.42a0,0,0,0,1,0,0H261.93a0,0,0,0,1,0,0V541.79A18.84,18.84,0,0,1,280.76,523Z"/><circle class="cls-6" cx="350.45" cy="208.45" r="34.01"/></svg>