<svg id="Layer_1" data-name="Layer 1" xmlns="http://www.w3.org/2000/svg" viewBox="0 0 598 628"><defs><style>.cls-1{fill:#0d71ba;}</style></defs><title>graphic-mission-small-business-owner</title><path class="cls-1" d="M126.1,312.56l23.69-114.68H150l-8.61-60.76a51.53,51.53,0,0,0-17.52,5.32c-14.08,7-29.27,22.27-39.9,49.36s-18,66.48-18,125.83c0,15.34.5,32,1.57,50.18A21,21,0,0,0,88.4,387.54c.42,0,.83,0,1.25,0a21,21,0,0,0,19.69-22.14c-1-17.42-1.48-33.28-1.48-47.73C107.77,254.21,117,218.57,126.1,200V312.56Z"/><path class="cls-1" d="M203,592.87a32.39,32.39,0,0,0,64.77,0V445.25c-12.18,4.83-37.82,13.69-64.77,15Z"/><polygon class="cls-1" points="240.19 136.8 231.22 136.8 235.57 123.88 202.64 134.66 202.64 152.84 192.16 152.84 192.16 134.96 158.31 123.88 162.65 136.8 153.69 136.8 162.34 197.88 196.22 197.88 231.53 197.88 240.19 136.8"/><path class="cls-1" d="M284.53,365.37a21,21,0,0,0,19.7,22.14c.41,0,.82,0,1.23,0a21,21,0,0,0,20.92-19.74c1-18.16,1.54-34.84,1.54-50.18-.11-79-12.73-122.8-29.95-149.11-8.61-13.06-18.67-21.44-28-26.08a51.75,51.75,0,0,0-17.52-5.32l-9.1,64.26,24.4,118.14V200.09a115.19,115.19,0,0,1,4.66,11.1c7.38,20.46,13.59,54,13.57,106.44C286,332.08,285.55,348,284.53,365.37Z"/><path class="cls-1" d="M126.1,592.87a32.39,32.39,0,0,0,64.77,0V460.34c-26.45-1-51.85-9.51-64.77-14.52Z"/><circle class="cls-1" cx="196.94" cy="62.94" r="58.93"/><rect class="cls-1" x="344.92" y="338.02" width="218.92" height="18.5"/><path class="cls-1" d="M411.87,599.51h93.06A16.09,16.09,0,0,1,521,615.6v8a0,0,0,0,1,0,0H395.79a0,0,0,0,1,0,0v-8A16.09,16.09,0,0,1,411.87,599.51Z"/><rect class="cls-1" x="451.08" y="347.26" width="14.64" height="273.77"/><path class="cls-1" d="M532.38,147.09H503.32a9.48,9.48,0,0,0-9.47,9.47v28.5a111.68,111.68,0,0,0-21,6.92l-10.49,5.34a111.78,111.78,0,0,0-25.15,19.82l-7.66,8.92a112.26,112.26,0,0,0-15.66,28l-3.65,11.2a110.79,110.79,0,0,0-3.82,28.87h135.4V156.56A9.49,9.49,0,0,0,532.38,147.09ZM504.55,249a12.45,12.45,0,0,1-9.31-4.17L464,260.26a8.65,8.65,0,1,1-3.29-6.65L492.18,238A12.47,12.47,0,1,1,504.55,249Z"/><path class="cls-1" d="M469.22,182.13l4.28-2.21a2.77,2.77,0,0,0,1.19-3.69l-.92-1.76a2.74,2.74,0,0,0-3.67-1.21L447.58,185a2.74,2.74,0,0,0-1.2,3.66l.92,1.8a2.76,2.76,0,0,0,3.67,1.19l4.94-2.69,5.45,10.65c7.42-1,11.31-3.16,13.3-6.76Z"/><path class="cls-1" d="M430.59,209.06l3.12-3.67a2.77,2.77,0,0,0-.3-3.87l-1.52-1.28a2.73,2.73,0,0,0-3.85.27l-16.42,19.38a2.73,2.73,0,0,0,.28,3.83l1.53,1.32a2.76,2.76,0,0,0,3.85-.29l3.58-4.36,9.09,7.79c6.48-3.76,9.25-7.22,9.73-11.32Z"/><path class="cls-1" d="M404.57,249.23l1.55-4.56a2.77,2.77,0,0,0-1.7-3.49l-1.88-.63a2.73,2.73,0,0,0-3.48,1.67l-8.18,23.94a2.73,2.73,0,0,0,1.67,3.46l1.91.66a2.77,2.77,0,0,0,3.47-1.69l1.76-5.25,11.32,3.9c4.64-5.88,5.95-10.12,4.89-14.1Z"/><rect class="cls-1" x="366.91" y="303.42" width="174.95" height="35.14"/></svg>