<svg id="Layer_1" data-name="Layer 1" xmlns="http://www.w3.org/2000/svg" viewBox="0 0 1092 710"><defs><style>.cls-1{fill:#0d71ba;}.cls-2{fill:#112e50;}.cls-3{fill:#d9c226;}.cls-4{fill:none;stroke:#aa9b35;stroke-linecap:round;stroke-linejoin:round;stroke-width:15.75px;stroke-dasharray:0 27.67;}</style></defs><title>graphic-how-we-work-product</title><rect class="cls-1" width="1092" height="710" rx="46" ry="46"/><path class="cls-2" d="M831.26,330c-14.7,0-38.23,4.45-53.49,11.17h-1.89c-9.78-7.88-20.17-7.73-29-4.79a19.54,19.54,0,0,0-9.09,4.78H595.9a51.75,51.75,0,0,0-4.58-11.07L691.61,229.79a19.33,19.33,0,0,0,9.75-3c8.64-5.26,17.15-14.24,17.15-23.86l4.23-4.23c14.93-6.56,32.68-18.85,42.34-28.51,16.4-16.4,21.89-37.5,12.26-47.12s-30.72-4.13-47.12,12.26c-10.28,10.28-23.6,29.73-29.74,45.19l-2.19,2.19c-12.5,1.15-19.55,8.84-23.88,17.13a19.5,19.5,0,0,0-3,9.75L571.1,309.87A51.46,51.46,0,0,0,560,305.29V163.45a19.27,19.27,0,0,0,4.78-9.09c2.54-9.79,1.92-22.13-4.78-29v-4.65c6.26-15.26,10.35-37.46,10.35-51.55,0-23.2-11-42-24.64-42s-24.65,18.8-24.65,42c0,14.09,4.09,36.29,10.35,51.55v4.65c-6.7,6.91-7.32,19.25-4.78,29h0a19.37,19.37,0,0,0,4.78,9.08V305.29a51.46,51.46,0,0,0-11.06,4.58L420.09,209.58a19.4,19.4,0,0,0-3-9.75h0c-4.33-8.29-11.38-16-23.88-17.13h0L391,180.51c-6.14-15.47-19.46-34.92-29.74-45.19-16.4-16.4-37.49-21.89-47.12-12.26s-4.13,30.72,12.26,47.12c9.66,9.66,27.41,22,42.34,28.51l4.23,4.23c0,9.62,8.51,18.6,17.14,23.86a19.33,19.33,0,0,0,9.75,3L500.17,330.08a51.22,51.22,0,0,0-4.57,11.07H353.76a19.43,19.43,0,0,0-9.1-4.78c-8.87-2.94-19.26-3.09-29,4.79h-1.89C298.47,334.44,274.94,330,260.24,330c-23.19,0-42,11-42,24.64s18.81,24.65,42,24.65c13.48,0,34.33-3.74,49.48-9.53h5.91c9.78,7.87,20.17,7.73,29,4.79h0a19.45,19.45,0,0,0,9.09-4.78H495.6a50.93,50.93,0,0,0,4.57,11.06L399.88,481.1a19.44,19.44,0,0,0-9.75,3C381.5,489.38,373,498.36,373,508h0l-1.37,1.37c-15.46,6.14-34.92,19.47-45.2,29.74-16.4,16.4-21.89,37.5-12.26,47.12s30.72,4.13,47.12-12.26c9.66-9.66,22-27.4,28.51-42.33l3.42-3.42,0,0c12.48-1.17,19.52-8.85,23.84-17.13h0l0,0a19.36,19.36,0,0,0,3-9.74L520.39,401a52,52,0,0,0,11.06,4.58V547.45a19.4,19.4,0,0,0-4.78,9.09h0s0,0,0,0c-2.53,9.77-1.92,22.09,4.75,29h0v3c-6.26,15.26-10.35,37.45-10.35,51.55,0,23.19,11,42,24.65,42s24.64-18.81,24.64-42c0-14.1-4.09-36.29-10.35-51.55v-3h0c6.67-6.91,7.29-19.23,4.75-29v0h0a19.21,19.21,0,0,0-4.78-9.1V405.61A51.46,51.46,0,0,0,571.1,401L671.39,501.32a19.44,19.44,0,0,0,3,9.75l0,0h0c4.32,8.28,11.37,16,23.84,17.13l0,0,3.42,3.42c6.55,14.93,18.85,32.67,28.51,42.33,16.4,16.4,37.5,21.89,47.12,12.26s4.13-30.72-12.26-47.12c-10.28-10.28-29.73-23.6-45.2-29.74L718.5,508h0c0-9.62-8.51-18.6-17.15-23.85h0a19.44,19.44,0,0,0-9.75-3L591.33,380.81a52,52,0,0,0,4.58-11.06H737.75a19.42,19.42,0,0,0,9.1,4.77v0c8.87,2.94,19.26,3.07,29-4.79h5.91c15.15,5.79,36,9.53,49.48,9.53,23.19,0,42-11,42-24.65S854.45,330,831.26,330ZM545.75,379.05a23.6,23.6,0,1,1,23.6-23.59A23.62,23.62,0,0,1,545.75,379.05Z"/><circle class="cls-2" cx="545.74" cy="354.63" r="89.42"/><circle class="cls-3" cx="545.74" cy="354.63" r="44.87"/><path class="cls-2" d="M545.74,577.41a221.79,221.79,0,1,1,156.84-65A220.34,220.34,0,0,1,545.74,577.41Zm0-405.22c-101.13,0-183.41,82.28-183.41,183.42S444.61,539,545.74,539s183.42-82.28,183.42-183.42S646.88,172.19,545.74,172.19Z"/><circle class="cls-4" cx="545.74" cy="354.66" r="202.6"/></svg>