<svg id="Layer_1" data-name="Layer 1" xmlns="http://www.w3.org/2000/svg" xmlns:xlink="http://www.w3.org/1999/xlink" viewBox="0 0 2000 2000"><defs><style>.cls-1{fill:none;}.cls-2{clip-path:url(#clip-path);}.cls-3{fill:#fff;}.cls-4{fill:#0d72b9;}.cls-5,.cls-9{fill:#112e50;}.cls-6{fill:#dbc324;}.cls-7{fill:#c0ac4a;}.cls-8{fill:#cbcbca;}.cls-9{opacity:0.4;}</style><clipPath id="clip-path"><rect class="cls-1" width="2000" height="2000" rx="100" ry="100"/></clipPath></defs><title>graphic-mission-find-truth</title><g class="cls-2"><rect class="cls-3" width="2000" height="2000"/><rect class="cls-4" x="1515.53" y="333.99" width="133.92" height="132.48"/><rect class="cls-5" x="1322.57" y="1542.17" width="133.92" height="132.48"/><rect class="cls-4" x="1128.16" y="1542.17" width="135.36" height="132.48"/><rect class="cls-6" x="935.2" y="1542.17" width="133.92" height="132.48"/><rect class="cls-4" x="742.24" y="1542.17" width="133.92" height="132.48"/><rect class="cls-7" x="550.71" y="1542.17" width="132.48" height="132.48"/><rect class="cls-5" x="356.31" y="1542.17" width="133.92" height="132.48"/><rect class="cls-5" x="1515.53" y="534.15" width="133.92" height="132.48"/><rect class="cls-6" x="1322.57" y="1339.13" width="133.92" height="133.92"/><rect class="cls-4" x="1128.16" y="1339.13" width="135.36" height="133.92"/><rect class="cls-8" x="1129.6" y="1138.96" width="135.36" height="132.48"/><rect class="cls-4" x="1128.16" y="937.36" width="135.36" height="132.48"/><rect class="cls-4" x="935.2" y="1339.13" width="133.92" height="133.92"/><rect class="cls-5" x="742.24" y="1339.13" width="133.92" height="133.92"/><rect class="cls-4" x="550.71" y="1339.13" width="132.48" height="133.92"/><rect class="cls-7" x="356.31" y="1339.13" width="133.92" height="133.92"/><rect class="cls-4" x="1515.53" y="735.76" width="133.92" height="132.48"/><rect class="cls-7" x="1322.57" y="1138.96" width="133.92" height="132.48"/><rect class="cls-6" x="935.2" y="1138.96" width="133.92" height="132.48"/><rect class="cls-4" x="742.24" y="1138.96" width="133.92" height="132.48"/><rect class="cls-6" x="550.71" y="1138.96" width="132.48" height="132.48"/><rect class="cls-4" x="356.31" y="1138.96" width="133.92" height="132.48"/><rect class="cls-7" x="1515.53" y="937.36" width="133.92" height="132.48"/><rect class="cls-4" x="1322.57" y="937.36" width="133.92" height="132.48"/><rect class="cls-5" x="935.2" y="937.36" width="133.92" height="132.48"/><rect class="cls-4" x="742.24" y="937.36" width="133.92" height="132.48"/><rect class="cls-5" x="550.71" y="937.36" width="132.48" height="132.48"/><rect class="cls-7" x="356.31" y="937.36" width="133.92" height="132.48"/><rect class="cls-5" x="1515.53" y="1138.96" width="133.92" height="132.48"/><rect class="cls-7" x="1322.57" y="735.76" width="133.92" height="132.48"/><rect class="cls-7" x="1128.16" y="735.76" width="135.36" height="132.48"/><rect class="cls-4" x="935.2" y="735.76" width="133.92" height="132.48"/><rect class="cls-5" x="742.24" y="735.76" width="133.92" height="132.48"/><rect class="cls-4" x="550.71" y="735.76" width="132.48" height="132.48"/><rect class="cls-4" x="356.31" y="735.76" width="133.92" height="132.48"/><rect class="cls-7" x="1515.53" y="1339.13" width="133.92" height="133.92"/><rect class="cls-4" x="1322.57" y="534.15" width="133.92" height="132.48"/><rect class="cls-5" x="1128.16" y="534.15" width="135.36" height="132.48"/><rect class="cls-7" x="935.2" y="534.15" width="133.92" height="132.48"/><rect class="cls-4" x="742.24" y="534.15" width="133.92" height="132.48"/><rect class="cls-6" x="550.71" y="534.15" width="132.48" height="132.48"/><rect class="cls-7" x="356.31" y="534.15" width="133.92" height="132.48"/><rect class="cls-4" x="1515.53" y="1542.17" width="133.92" height="132.48"/><rect class="cls-5" x="1322.57" y="333.99" width="133.92" height="132.48"/><rect class="cls-4" x="1128.16" y="333.99" width="135.36" height="132.48"/><rect class="cls-5" x="935.2" y="333.99" width="133.92" height="132.48"/><rect class="cls-4" x="742.24" y="333.99" width="133.92" height="132.48"/><rect class="cls-5" x="550.71" y="333.99" width="132.48" height="132.48"/><rect class="cls-4" x="356.31" y="333.99" width="133.92" height="132.48"/><rect class="cls-6" x="1515.53" y="1732.25" width="133.92" height="132.48"/><rect class="cls-5" x="1322.57" y="135.27" width="133.92" height="133.92"/><rect class="cls-6" x="1128.16" y="135.27" width="135.36" height="133.92"/><rect class="cls-4" x="935.2" y="135.27" width="133.92" height="133.92"/><rect class="cls-5" x="742.24" y="135.27" width="133.92" height="133.92"/><rect class="cls-7" x="550.71" y="135.27" width="132.48" height="133.92"/><rect class="cls-4" x="356.31" y="135.27" width="133.92" height="133.92"/><rect class="cls-4" x="356.31" y="1732.25" width="133.92" height="132.48"/><rect class="cls-5" x="550.71" y="1732.25" width="132.48" height="132.48"/><rect class="cls-7" x="1696.97" y="1542.17" width="133.92" height="132.48"/><rect class="cls-4" x="1696.97" y="1339.13" width="133.92" height="133.92"/><rect class="cls-7" x="1696.97" y="1138.96" width="133.92" height="132.48"/><rect class="cls-5" x="1696.97" y="937.36" width="133.92" height="132.48"/><rect class="cls-4" x="1696.97" y="735.76" width="133.92" height="132.48"/><rect class="cls-6" x="1696.97" y="534.15" width="133.92" height="132.48"/><rect class="cls-5" x="1696.97" y="333.99" width="133.92" height="132.48"/><rect class="cls-7" x="1696.97" y="135.27" width="133.92" height="133.92"/><rect class="cls-5" x="1696.97" y="1732.25" width="133.92" height="132.48"/><rect class="cls-7" x="742.24" y="1732.25" width="133.92" height="132.48"/><rect class="cls-5" x="935.2" y="1732.25" width="133.92" height="132.48"/><rect class="cls-7" x="169.11" y="333.99" width="133.92" height="132.48"/><rect class="cls-4" x="169.11" y="534.15" width="133.92" height="132.48"/><rect class="cls-6" x="169.11" y="735.76" width="133.92" height="132.48"/><rect class="cls-5" x="169.11" y="937.36" width="133.92" height="132.48"/><rect class="cls-5" x="169.11" y="1138.96" width="133.92" height="132.48"/><rect class="cls-6" x="169.11" y="1339.13" width="133.92" height="133.92"/><rect class="cls-4" x="169.11" y="1542.17" width="133.92" height="132.48"/><rect class="cls-6" x="169.11" y="1732.25" width="133.92" height="132.48"/><rect class="cls-5" x="169.11" y="135.27" width="133.92" height="133.92"/><rect class="cls-4" x="1128.16" y="1732.25" width="135.36" height="132.48"/><rect class="cls-5" x="1322.57" y="1732.25" width="133.92" height="132.48"/><rect class="cls-4" x="1515.53" y="135.27" width="133.92" height="133.92"/><path class="cls-9" d="M0,0H2000V2000H0ZM1196.8,1505.69c169.46,0,306.85-139.09,306.85-310.68S1366.26,884.33,1196.8,884.33,890,1023.43,890,1195,1027.33,1505.69,1196.8,1505.69Z"/></g></svg>