<svg xmlns="http://www.w3.org/2000/svg" viewBox="0 0 2000 2000"><defs><style>.cls-1{isolation:isolate;}.cls-2{fill:#f1f1f1;}.cls-3{fill:#dbc324;}.cls-3,.cls-6{mix-blend-mode:multiply;}.cls-4,.cls-5{fill:#112e50;}.cls-4{opacity:0.9;}.cls-6{fill:#0d72b9;}</style></defs><title>graphic-mission-design-with-users</title><g class="cls-1"><g id="Layer_1" data-name="Layer 1"><rect class="cls-2" width="2000" height="2000" rx="100" ry="100"/><path class="cls-3" d="M502.48,1361.28a154.06,154.06,0,1,1,0,217.88A154.08,154.08,0,0,1,502.48,1361.28Z"/><path class="cls-4" d="M398.21,854.42a154.06,154.06,0,1,1-154.07,154.06A154.06,154.06,0,0,1,398.21,854.42Z"/><path class="cls-3" d="M1164.06,393.84A154.07,154.07,0,1,1,1010,239.77,154.07,154.07,0,0,1,1164.06,393.84Z"/><path class="cls-3" d="M505.64,685.23a154.06,154.06,0,1,1-210.83,55A154.06,154.06,0,0,1,505.64,685.23Z"/><circle class="cls-5" cx="1541.6" cy="1321.88" r="154.06" transform="translate(-483.19 1477.24) rotate(-45)"/><path class="cls-3" d="M1562.9,705.89a154.06,154.06,0,1,1-110.22,187.94A154.06,154.06,0,0,1,1562.9,705.89Z"/><path class="cls-4" d="M1464.44,561.9a154.06,154.06,0,1,1-52.73,211.41A154.08,154.08,0,0,1,1464.44,561.9Z"/><rect class="cls-6" x="374.99" y="1192.23" width="244.15" height="244.14" transform="translate(-908.05 1303.7) rotate(-68.85)"/><rect class="cls-3" x="1254.85" y="404.67" width="244.14" height="244.14" transform="translate(-94.21 431.17) rotate(-17.22)"/><rect class="cls-4" x="610.54" y="334.72" width="244.14" height="244.15" transform="translate(82.36 1024.73) rotate(-73.08)"/><rect class="cls-3" x="1179.51" y="1421.4" width="244.14" height="244.14" transform="translate(-556.77 2332.76) rotate(-72.87)"/><path class="cls-6" d="M1306.48,449.24a154.06,154.06,0,1,1-112.2-186.76A154.06,154.06,0,0,1,1306.48,449.24Z"/><path class="cls-6" d="M719.82,432.61a154.06,154.06,0,1,1-217.88,0A154.06,154.06,0,0,1,719.82,432.61Z"/><rect class="cls-6" x="1467" y="1061.02" width="244.15" height="244.14" transform="translate(-368.75 880.11) rotate(-27.87)"/><path class="cls-4" d="M1074.66,1643.41a154.06,154.06,0,1,1-112.2-186.76A154.06,154.06,0,0,1,1074.66,1643.41Z"/><path class="cls-6" d="M1308.34,1566.63a154.06,154.06,0,1,1-187.94-110.22A154.06,154.06,0,0,1,1308.34,1566.63Z"/></g></g></svg>