<svg id="Layer_1" data-name="Layer 1" xmlns="http://www.w3.org/2000/svg" viewBox="0 0 598 628"><defs><style>.cls-1{fill:#0d71ba;}</style></defs><title>graphic-mission-farmer</title><path class="cls-1" d="M431.2,84.62c1.54-.32,3.11-.65,4.56-1,18.4-4.2,30.08-9.46,30.08-15.17,0-9.37-27.36-27.25-67.79-37.71-2.39-.64-4.92-1.19-7.42-1.77l-3-.68c-2.94-.64-5.95-1.22-9-1.77l-1.26-.21c-2.93-.5-5.81-1.05-8.86-1.46C368,13.29,353,4,334.64,4l-.29,0-.3,0c-18.4,0-33.34,9.29-33.88,20.86-3.05.41-5.92,1-8.85,1.46l-1.27.21c-3.08.55-6.09,1.13-9,1.77l-3,.68c-2.5.58-5,1.13-7.41,1.77-40.44,10.46-67.8,28.34-67.8,37.71,0,5.71,11.68,11,30.09,15.17,1.44.34,3,.67,4.55,1l1.19.25a396.1,396.1,0,0,0,44.7,6.2c-.15,1.58-.23,3.18-.23,4.79a50.9,50.9,0,0,0,50.91,50.9h.58a50.9,50.9,0,0,0,50.9-50.9c0-1.61-.08-3.21-.23-4.79a395.78,395.78,0,0,0,44.7-6.2Z"/><path class="cls-1" d="M430.65,188.16c-8.24-12.52-17.89-20.54-26.8-25-5.82-2.93-13.34-5.93-21.52-5.93H288.69c-14.61,0-33.33,8.93-43.35,13-30.4,12.32-81.38,34-102.9,44.73-28.62,14.24,0,0,0,0s-38.52,17.72-40.84,18.81A20.09,20.09,0,0,0,92,260.49c3.43,7.26,13.66,13.14,25,8.61,8.63-3.45,92.48-39.85,120-51.32,11.19-4.67,21-8.67,29-11.9V594.23a31,31,0,0,0,62,0V367.68h11.64V594.23a31,31,0,0,0,62.05,0V218.42a108.18,108.18,0,0,1,4.47,10.63c7.08,19.61,13,51.77,13,102,0,13.84-.44,29-1.41,45.73A20.06,20.06,0,0,0,436.65,398c.4,0,.79,0,1.19,0a20.1,20.1,0,0,0,20-18.91c1-17.4,1.47-33.38,1.47-48.08C459.25,255.29,447.15,213.36,430.65,188.16Z"/><path class="cls-1" d="M189.78,155.34V44.22h-14.6V155.34a2.46,2.46,0,0,1-2.44,2.44H129.55V44.21H114.94V157.78H71.75a2.44,2.44,0,0,1-2.43-2.44V44.22H54.72V155.34a17,17,0,0,0,17,17h43.19v451h14.61v-451h43.19a17.05,17.05,0,0,0,17-17"/></svg>