<svg id="Layer_1" data-name="Layer 1" xmlns="http://www.w3.org/2000/svg" viewBox="0 0 598 628"><defs><style>.cls-1{fill:#0d71ba;}</style></defs><title>graphic-mission-immigrant</title><path class="cls-1" d="M272.44,117.18a11.46,11.46,0,0,0,3.34-.44C284.25,121.43,293.2,124,301,124s17-2.66,25.58-7.46a11,11,0,0,0,3.89.62c23.81,0,40.58-6.13,43.43-17.49-4.38,2.33-9.34-1.59-11.65-6.83-5-11.43,3.24-23.41-7.15-49.22a62.88,62.88,0,0,0-5-10.59l-.75-1.41a1.11,1.11,0,0,0,0,.19C339.06,15.07,321.26,4,301,4c-29.2,0-53.36,23.07-57.36,53.06-3.57,17,1.06,26.56-3,35.8-2.31,5.24-7.27,9.16-11.65,6.83C231.86,111.05,248.63,117.18,272.44,117.18Z"/><path class="cls-1" d="M557.84,128.4V56.31H450.16v-3.2a4.46,4.46,0,0,0-8.92,0v123c-8.49-1.19-17.33,2.06-21.58,11.41a302.71,302.71,0,0,0-10.75,28.73C406.17,185,396.91,137,365.85,137H256.48c-13.69,0-22.31-1.56-36.84,6.35-10.72,5.85-41.07,28.19-41.07,28.19V82c0-13.92-8.19-24.57-22.11-24.57S134,68,134,82V206.87c0,13.56,4,23.18,15.91,27.46s21.9-1.21,26-3.67l57.22-37.08V593.26c0,18.84,10.17,32,28,32,16.14,0,29.32-13.92,29.32-32V377h16.39v217.9c0,19.66,12.19,30.31,30,30.31,19,0,28.16-16.38,28.16-32.76V207.88c6.77,25.71,6.22,39.66,10.06,68.92,3.4,25.9,32.63,33.71,46.42,8.94,18.19-32.64,30.33-55.91,38.84-79.47,4.49-12.42-1.43-22.33-10.19-27.17V128.4ZM500.7,63.77h50.2v8.74H500.7Zm0,16.19h50.2V88.8H500.7ZM450.51,96.24H550.9v8.64H450.51Zm0,16.08H550.9v8.59H450.51Z"/></svg>