<svg xmlns="http://www.w3.org/2000/svg" viewBox="0 0 2000 2000"><defs><style>.cls-1{isolation:isolate;}.cls-2{fill:#f1f1f1;}.cls-3{fill:#0d72b9;}.cls-4{fill:#112e50;}.cls-5{fill:#dbc324;}.cls-6{fill:#c0ac4a;}.cls-7{mix-blend-mode:multiply;}</style></defs><title>graphic-mission-go-where-work-is</title><g class="cls-1"><g id="Layer_1" data-name="Layer 1"><rect class="cls-2" width="2000" height="2000" rx="100" ry="100"/><polygon class="cls-3" points="970.47 1171.15 966 1755.42 1022.44 1755.86 1026.91 1171.58 998.82 1083.51 970.47 1171.15"/><polygon class="cls-4" points="1029.53 829.13 1034 244.58 977.56 244.14 973.09 828.7 1001.18 916.77 1029.53 829.13"/><polygon class="cls-4" points="1171.15 1029.53 1755.42 1034 1755.86 977.56 1171.58 973.09 1083.51 1001.18 1171.15 1029.53"/><polygon class="cls-5" points="829.13 970.47 244.58 966 244.14 1022.44 828.7 1026.91 916.77 998.82 829.13 970.47"/><polygon class="cls-3" points="1142.33 900.3 1558.64 490.31 1518.17 449.22 1101.87 859.21 1059.89 941.78 1142.33 900.3"/><polygon class="cls-3" points="857.87 1099.5 441.36 1509.69 481.82 1550.78 898.33 1140.59 940.31 1058.02 857.87 1099.5"/><polygon class="cls-3" points="900.3 857.67 490.31 441.36 449.23 481.83 859.21 898.13 941.78 940.11 900.3 857.67"/><polygon class="cls-4" points="1099.5 1142.13 1509.69 1558.64 1550.78 1518.17 1140.59 1101.67 1058.02 1059.69 1099.5 1142.13"/><polygon class="cls-3" points="1145.88 1094.42 1682.27 1326.13 1705.14 1273.18 1168.75 1041.48 1076.46 1033.62 1145.88 1094.42"/><polygon class="cls-3" points="854.37 905.69 317.72 673.87 294.85 726.81 831.5 958.62 923.8 966.49 854.37 905.69"/><polygon class="cls-6" points="1094.42 854.11 1326.12 317.72 1273.18 294.86 1041.49 831.24 1033.62 923.54 1094.42 854.11"/><polygon class="cls-4" points="905.68 1145.63 673.87 1682.27 726.81 1705.14 958.63 1168.49 966.49 1076.2 905.68 1145.63"/><polygon class="cls-3" points="963.61 830.07 748.16 286.95 694.56 308.22 910 851.34 969.71 922.16 963.61 830.07"/><polygon class="cls-6" points="1036.28 1169.66 1251.84 1713.05 1305.44 1691.78 1089.88 1148.4 1030.18 1077.57 1036.28 1169.66"/><polygon class="cls-4" points="830.07 1036.39 286.95 1251.84 308.22 1305.44 851.34 1089.99 922.16 1030.29 830.07 1036.39"/><polygon class="cls-6" points="1169.66 963.72 1713.04 748.16 1691.78 694.56 1148.4 910.11 1077.57 969.81 1169.66 963.72"/><g class="cls-7"><polygon class="cls-3" points="1004.19 1173.63 1113.02 1747.69 1168.47 1737.18 1059.64 1163.12 1015.02 1082.16 1004.19 1173.63"/><polygon class="cls-6" points="995.86 826.65 886.98 252.3 831.53 262.81 940.41 837.16 985.03 918.12 995.86 826.65"/><polygon class="cls-3" points="1173.63 995.81 1747.69 886.98 1737.18 831.53 1163.11 940.36 1082.16 984.98 1173.63 995.81"/><polygon class="cls-3" points="826.65 1004.14 252.3 1113.02 262.81 1168.47 837.16 1059.59 918.12 1014.97 826.65 1004.14"/><polygon class="cls-4" points="1120.32 874.61 1449.29 391.73 1401.63 359.26 1072.66 842.14 1047.47 931.28 1120.32 874.61"/><polygon class="cls-6" points="879.84 1125.16 550.7 1608.27 598.36 1640.74 927.5 1157.63 952.68 1068.48 879.84 1125.16"/><polygon class="cls-6" points="874.61 879.68 391.73 550.71 359.26 598.37 842.14 927.34 931.28 952.52 874.61 879.68"/><polygon class="cls-6" points="1125.16 1120.16 1608.27 1449.3 1640.74 1401.64 1157.63 1072.5 1068.48 1047.32 1125.16 1120.16"/><polygon class="cls-3" points="1161.42 1064.37 1732.53 1187.75 1744.71 1131.38 1173.6 1008 1081.52 1018.17 1161.42 1064.37"/><polygon class="cls-4" points="838.86 935.69 267.46 812.25 255.29 868.62 826.68 992.05 918.75 981.89 838.86 935.69"/><polygon class="cls-5" points="1064.37 838.58 1187.74 267.46 1131.38 255.29 1008 826.4 1018.16 918.48 1064.37 838.58"/><polygon class="cls-6" points="935.69 1161.14 812.25 1732.53 868.62 1744.71 992.06 1173.32 981.89 1081.25 935.69 1161.14"/><polygon class="cls-4" points="931.38 840.34 614.78 349.26 566.31 380.51 882.91 871.59 955.2 929.51 931.38 840.34"/><polygon class="cls-5" points="1068.47 1159.42 1385.22 1650.74 1433.69 1619.49 1116.94 1128.17 1044.64 1070.25 1068.47 1159.42"/><polygon class="cls-3" points="840.34 1068.62 349.26 1385.22 380.51 1433.69 871.59 1117.09 929.51 1044.8 840.34 1068.62"/><polygon class="cls-4" points="1159.41 931.53 1650.74 614.78 1619.49 566.31 1128.17 883.06 1070.25 955.36 1159.41 931.53"/></g></g></g></svg>