<svg id="Layer_1" data-name="Layer 1" xmlns="http://www.w3.org/2000/svg" viewBox="0 0 598 628"><defs><style>.cls-1{fill:#0d71ba;}</style></defs><title>graphic-mission-medicare-beneficiary</title><path class="cls-1" d="M356,224.77c-5.3,11.25-41,39.69-41.09,39.69S279,236,273.81,224.77a23.51,23.51,0,0,1,41.1-22.6A23.5,23.5,0,0,1,356,224.77m43.1-45.45c-8.41-12.76-18.23-20.94-27.32-25.46a48.87,48.87,0,0,0-20.64-5.45c-.43,0-.85-.07-1.29-.07h-98.8c-.41,0-.81,0-1.21.07a48.74,48.74,0,0,0-20.74,5.45c-13.75,6.82-28.58,21.74-39,48.18S172.58,267,172.55,324.9c0,15,.48,31.27,1.52,49a20.47,20.47,0,0,0,20.41,19.26c.41,0,.81,0,1.22,0a20.45,20.45,0,0,0,19.22-21.61c-1-17-1.45-32.51-1.45-46.61-.09-61.91,8.94-96.7,17.81-114.86V593.63a31.62,31.62,0,0,0,63.24,0V362.78h11.85V593.63a31.63,31.63,0,0,0,63.25,0V261.71c0,9.31,3-44.89,4.55-40.73,7.21,20,13.28,52.76,13.25,103.93,0,14.1-.45,29.59-1.45,46.6a20.48,20.48,0,0,0,19.24,21.62l1.2,0a20.45,20.45,0,0,0,20.42-19.26c1-17.73,1.51-34,1.51-49-.1-77.19-12.43-119.91-29.24-145.59"/><path class="cls-1" d="M365.69,99.34c-5.4-12.26,3.49-25.11-7.67-52.81a68.54,68.54,0,0,0-5.33-11.36c-.26-.5-.53-1-.81-1.51l0,.2C340.78,15.87,321.68,4,300,4c-31.35,0-57.27,24.75-61.57,56.93-3.82,18.2,1.15,28.5-3.22,38.41-2.47,5.63-7.8,9.84-12.5,7.34,3.06,12.19,21.05,18.76,46.6,18.76a12.61,12.61,0,0,0,3.58-.46c9.1,5,18.69,7.81,27.11,7.81s18.24-2.86,27.44-8a12,12,0,0,0,4.18.66c25.54,0,43.54-6.57,46.6-18.76-4.71,2.5-10-1.71-12.51-7.34"/></svg>