<svg id="Layer_1" data-name="Layer 1" xmlns="http://www.w3.org/2000/svg" viewBox="0 0 700 700"><defs><style>.cls-1{fill:#112e50;}.cls-2{fill:#5c6c86;}.cls-3{fill:#0b72b9;}.cls-4{fill:#1f5594;}.cls-5{fill:#dec83e;}</style></defs><title>graphic-how-we-work-hcd</title><circle class="cls-1" cx="350" cy="350" r="350"/><path class="cls-2" d="M546.7,211.35H152.24c-10.11,0-20.45,8.45-20.45,22.64s10.34,22.65,20.45,22.65H294.65V581.31c0,16.41,8.68,24.3,24.47,24.3s24.2-7.37,24.2-24.3V390.93h13.36V581.31c0,16.93,11.9,24.3,24.2,24.3s24.47-7.37,24.47-24.3V256.64H546.7c10.11,0,21.51-8.26,21.51-22.65S556.81,211.35,546.7,211.35Z"/><path class="cls-3" d="M350.07,289.74c-26.46-126.7-210-72.9-164.79,64C219.58,457.64,322.14,499,350.06,518.29h0C378,499,481.44,457.93,514.86,353.78,560.21,212.46,371.2,166.74,350.07,289.74Z"/><path class="cls-4" d="M356.68,390.93H343.32V514c2.56,1.54,4.83,3,6.74,4.28h0c1.88-1.29,4.1-2.69,6.61-4.19Z"/><path class="cls-4" d="M294.65,437.86V256.64H195.19c-16.66,23.43-23.29,56.65-9.91,97.14,21.43,64.89,69.5,105.39,109.37,131.34Z"/><path class="cls-4" d="M405.35,256.64v228.8c40.12-25.89,88.57-66.39,109.51-131.66,13.17-41,6.57-74-9.94-97.14Z"/><circle class="cls-5" cx="350" cy="148.3" r="44.4"/></svg>