<svg id="Layer_1" data-name="Layer 1" xmlns="http://www.w3.org/2000/svg" viewBox="0 0 1092 710"><defs><style>.cls-1{fill:#0d71ba;}.cls-2{fill:#112e50;}.cls-3{fill:none;stroke:#aa9b35;stroke-linecap:round;stroke-linejoin:round;stroke-width:16px;stroke-dasharray:0 28.18;}.cls-4{fill:#aa9b35;}.cls-5{fill:#fff;}.cls-6{fill:#d9c226;}.cls-7{fill:#485a78;}</style></defs><title>graphic-how-we-work-design</title><rect class="cls-1" width="1092" height="710" rx="46" ry="46"/><path class="cls-2" d="M810.54,357.7c-11-19.09-16.57-42.82-18-64.84C783.38,148.63,662.85,35.64,518.17,35.64c-151.61,0-275,123.34-275,275,0,65.35,17.1,136.32,65.7,187.81C367,560,360.41,615.54,360.55,689.59l.71,19.72,288.42-.08V683c-.12-20.54,18.6-31.35,60.66-46.06L752,622.45c33.3-11.63,44-37.45,44-76.06V492.53l78.61-19Z"/><circle class="cls-1" cx="518.92" cy="306.31" r="127.66"/><circle class="cls-3" cx="520.56" cy="308.31" r="197.34" transform="translate(-65.54 458.39) rotate(-45)"/><path class="cls-2" d="M415.37,440.33c-4.47,0-41.67,43.77-41.67,43.77l64.69,66.25s194.05,22.75,194.05,20.56,111.61-72.22,111.61-72.22l-64.2-13.52-43-41.58L596.7,461.86H482.89Z"/><rect class="cls-4" x="499.79" y="310.1" width="41.54" height="301.61"/><polygon class="cls-5" points="520.56 255.53 499.79 310.1 541.33 310.1 520.56 255.53"/><path class="cls-2" d="M520.56,281.68a13.08,13.08,0,0,0,8.65-3.51l-8.65-22.64-8.66,22.64A13.1,13.1,0,0,0,520.56,281.68Z"/><rect class="cls-6" x="520.56" y="310.1" width="20.77" height="301.61"/><path class="cls-7" d="M501,631.58v8.61A12.86,12.86,0,0,0,513.82,653h13.47a12.86,12.86,0,0,0,12.83-12.83v-8.61Z"/><rect class="cls-1" x="499.79" y="611.71" width="41.54" height="19.87"/></svg>