<?xml version="1.0" encoding="utf-8"?>
<!-- Generator: Adobe Illustrator 24.0.2, SVG Export Plug-In . SVG Version: 6.00 Build 0)  -->
<svg version="1.1" id="Layer_1" xmlns="http://www.w3.org/2000/svg" xmlns:xlink="http://www.w3.org/1999/xlink" x="0px" y="0px"
	 viewBox="0 0 64 64" style="enable-background:new 0 0 64 64;" xml:space="preserve">
<style type="text/css">
	.st0{fill-rule:evenodd;clip-rule:evenodd;fill:#0084CE;}
</style>
<title>icon-dot-gov</title>
<path class="st0" d="M32,0c17.7,0,32,14.3,32,32S49.7,64,32,64S0,49.7,0,32S14.3,0,32,0z M32,1.2C15,1.2,1.2,15,1.2,32
	S15,62.8,32,62.8S62.8,49,62.8,32S49,1.2,32,1.2z M42.6,40.1c0.5,0,0.9,0.4,0.9,0.8v1.6H18.9v-1.6c0-0.5,0.4-0.8,0.9-0.8H42.6z
	 M25.4,27.8v9.8h1.6v-9.8h3.3v9.8H32v-9.8h3.3v9.8h1.6v-9.8h3.3v9.8h0.8c0.5,0,0.9,0.4,0.9,0.8v0.8H20.5v-0.8c0-0.5,0.4-0.8,0.9-0.8
	h0.8v-9.8C22.2,27.8,25.4,27.8,25.4,27.8z M31.2,19.6l12.3,4.9v1.6h-1.6c0,0.5-0.4,0.8-0.9,0.8H21.4c-0.5,0-0.9-0.4-0.9-0.8h-1.6
	v-1.6C18.9,24.5,31.2,19.6,31.2,19.6z"/>
</svg>
