<?xml version="1.0" encoding="UTF-8"?>
<svg width="58px" height="48px" viewBox="0 0 58 48" version="1.1" xmlns="http://www.w3.org/2000/svg" xmlns:xlink="http://www.w3.org/1999/xlink">
    <!-- Generator: Sketch 52.5 (67469) - http://www.bohemiancoding.com/sketch -->
    <title>“</title>
    <desc>Created with Sketch.</desc>
    <g id="PROJECT-DETAIL-PAGE" stroke="none" stroke-width="1" fill="none" fill-rule="evenodd">
        <g id="Desktop-HD-PROJECT-DETAIL" transform="translate(-542.000000, -1591.000000)" fill="#205493">
            <g id="Group-6" transform="translate(239.000000, 1591.000000)">
                <g id="Group-4">
                    <path d="M316.081584,48.0121951 C311.721034,48.0121951 308.450671,46.4118046 306.270396,43.2109756 C304.090121,40.0101466 303,35.533692 303,29.7814776 C303,23.1942642 304.623585,17.3957479 307.870802,12.3857547 C311.11802,7.37576145 316.08155,3.24721784 322.761541,0 L327.214846,8.90661011 C323.039852,11.0404961 319.908653,13.475873 317.821156,16.2128137 C315.733659,18.9497545 314.689926,22.4056702 314.689926,26.5806645 C314.968259,26.4878869 315.43214,26.4414988 316.081584,26.4414988 C319.050468,26.4414988 321.578622,27.3460673 323.666119,29.1552315 C325.753616,30.9643958 326.797349,33.4461607 326.797349,36.6006009 C326.797349,40.1261517 325.77681,42.9094395 323.735702,44.9505479 C321.694593,46.9916563 319.143246,48.0121951 316.081584,48.0121951 Z M348.924708,48.0121951 C344.564159,48.0121951 341.293796,46.4118046 339.113521,43.2109756 C336.933246,40.0101466 335.843125,35.533692 335.843125,29.7814776 C335.843125,23.1942642 337.466709,17.3957479 340.713927,12.3857547 C343.961145,7.37576145 348.924675,3.24721784 355.604666,0 L360.057971,8.90661011 C355.882977,11.0404961 352.751778,13.475873 350.664281,16.2128137 C348.576783,18.9497545 347.533051,22.4056702 347.533051,26.5806645 C347.811384,26.4878869 348.275265,26.4414988 348.924708,26.4414988 C351.893593,26.4414988 354.421746,27.3460673 356.509244,29.1552315 C358.596741,30.9643958 359.640474,33.4461607 359.640474,36.6006009 C359.640474,40.1261517 358.619935,42.9094395 356.578826,44.9505479 C354.537718,46.9916563 351.986371,48.0121951 348.924708,48.0121951 Z" id="“"></path>
                </g>
            </g>
        </g>
    </g>
</svg>