<?xml version="1.0" encoding="utf-8"?>
<!-- Generator: Adobe Illustrator 24.0.2, SVG Export Plug-In . SVG Version: 6.00 Build 0)  -->
<svg version="1.1" id="Layer_1" xmlns="http://www.w3.org/2000/svg" xmlns:xlink="http://www.w3.org/1999/xlink" x="0px" y="0px"
	 viewBox="0 0 64 64" style="enable-background:new 0 0 64 64;" xml:space="preserve">
<style type="text/css">
	.st0{fill-rule:evenodd;clip-rule:evenodd;fill:#3F3F3F;}
</style>
<title>search-alt</title>
<path class="st0" d="M39.2,39.2c3.4-3.4,5.1-7.4,5.1-12.2c0-4.7-1.7-8.8-5.1-12.2c-3.4-3.4-7.4-5.1-12.2-5.1
	c-4.7,0-8.8,1.7-12.2,5.1c-3.4,3.4-5.1,7.4-5.1,12.2c0,4.7,1.7,8.8,5.1,12.2c3.4,3.4,7.4,5.1,12.2,5.1
	C31.8,44.3,35.9,42.6,39.2,39.2L39.2,39.2z M62.6,55.6c1,0.9,1.4,2.1,1.4,3.5c0,1.3-0.5,2.5-1.5,3.5c-0.9,0.9-2.2,1.5-3.5,1.5
	c-1.4,0-2.5-0.5-3.5-1.5L42.4,49.4c-4.5,3.2-9.9,4.8-15.3,4.8c-3.7,0-7.2-0.7-10.5-2.1c-3.2-1.3-6.2-3.3-8.7-5.8
	c-2.5-2.5-4.4-5.4-5.8-8.7C0.7,34.3,0,30.7,0,27.1c0-3.7,0.7-7.2,2.1-10.5c1.3-3.2,3.3-6.2,5.8-8.7c2.5-2.5,5.4-4.4,8.6-5.8
	C19.9,0.7,23.5,0,27.1,0c3.7,0,7.2,0.7,10.5,2.1c3.2,1.3,6.2,3.3,8.7,5.8c2.5,2.5,4.4,5.4,5.8,8.7c1.4,3.3,2.1,6.9,2.1,10.5
	c0,5.6-1.6,10.8-4.8,15.3C49.4,42.4,62.6,55.6,62.6,55.6z"/>
</svg>
