<svg id="Layer_1" data-name="Layer 1" xmlns="http://www.w3.org/2000/svg" viewBox="0 0 448.63 282.28"><defs><style>.cls-1{fill:#afa140;}.cls-2{fill:#dec623;}.cls-3{fill:#fff;}.cls-4{fill:#465a76;}</style></defs><title>usds-logo-ondark</title><path class="cls-1" d="M16,235.47H10.71v-3.62H25.42v3.62h-5.3v15H16Z"/><path class="cls-1" d="M31.43,231.85h4.1v6.93h8v-6.93h4.1v18.59h-4.1v-8h-8v8h-4.1Z"/><path class="cls-1" d="M55.46,231.85H68.09v3.78H59.56v3.46h8.06v3.79H59.56v3.78h9v3.78H55.46Z"/><path class="cls-1" d="M103.18,243.27a9,9,0,0,1-.5,3,6.81,6.81,0,0,1-1.48,2.42,7,7,0,0,1-2.46,1.6,10.43,10.43,0,0,1-6.8,0,6.82,6.82,0,0,1-2.45-1.6A6.69,6.69,0,0,1,88,246.32a9,9,0,0,1-.5-3V231.85h4.1v11.27a4.54,4.54,0,0,0,.27,1.59,3.93,3.93,0,0,0,.78,1.28,3.48,3.48,0,0,0,1.19.84,3.8,3.8,0,0,0,1.51.3,3.65,3.65,0,0,0,1.5-.3A3.44,3.44,0,0,0,98,246a3.93,3.93,0,0,0,.78-1.28,4.54,4.54,0,0,0,.28-1.59V231.85h4.09Z"/><path class="cls-1" d="M110.48,248.18a2.32,2.32,0,0,1,.19-.94,2.29,2.29,0,0,1,.51-.78,2.39,2.39,0,0,1,1.72-.69,2.5,2.5,0,0,1,.94.18,2.45,2.45,0,0,1,.78.51,2.29,2.29,0,0,1,.51.78,2.57,2.57,0,0,1,0,1.89,2.25,2.25,0,0,1-.51.77,2.39,2.39,0,0,1-1.72.7,2.51,2.51,0,0,1-1-.18,2.55,2.55,0,0,1-.77-.52,2.25,2.25,0,0,1-.51-.77A2.34,2.34,0,0,1,110.48,248.18Z"/><path class="cls-1" d="M131.81,236.39a3,3,0,0,0-1.36-.93,4.89,4.89,0,0,0-1.61-.3,4.24,4.24,0,0,0-.92.1,3.39,3.39,0,0,0-.89.33,2.08,2.08,0,0,0-.69.59,1.54,1.54,0,0,0-.26.9,1.47,1.47,0,0,0,.63,1.28,5.89,5.89,0,0,0,1.59.76c.64.21,1.33.42,2.06.63a8.26,8.26,0,0,1,2.06.9A4.8,4.8,0,0,1,134,242.2a4.68,4.68,0,0,1,.63,2.59,6,6,0,0,1-.57,2.71,5.56,5.56,0,0,1-1.57,1.92,6.77,6.77,0,0,1-2.28,1.13,10.31,10.31,0,0,1-2.75.36,9.87,9.87,0,0,1-3.36-.55,8.43,8.43,0,0,1-2.89-1.78l2.92-3.21a4.19,4.19,0,0,0,1.59,1.3,4.43,4.43,0,0,0,3,.34,3,3,0,0,0,.92-.35,2,2,0,0,0,.66-.61,1.52,1.52,0,0,0,.24-.86,1.58,1.58,0,0,0-.64-1.33,5.77,5.77,0,0,0-1.61-.82q-1-.34-2.1-.69a8.63,8.63,0,0,1-2.1-.92,4.91,4.91,0,0,1-1.62-1.52,4.34,4.34,0,0,1-.64-2.49,5.52,5.52,0,0,1,.59-2.63A5.76,5.76,0,0,1,124,232.9a6.83,6.83,0,0,1,2.27-1.14,9.15,9.15,0,0,1,2.66-.38,10.64,10.64,0,0,1,3,.44,7.12,7.12,0,0,1,2.66,1.5Z"/><path class="cls-1" d="M141.21,248.18a2.5,2.5,0,0,1,.18-.94,2.29,2.29,0,0,1,.51-.78,2.44,2.44,0,0,1,1.72-.69,2.55,2.55,0,0,1,.95.18,2.41,2.41,0,0,1,.77.51,2.39,2.39,0,0,1,.7,1.72,2.51,2.51,0,0,1-.18.95,2.44,2.44,0,0,1-1.29,1.29,2.55,2.55,0,0,1-.95.18,2.39,2.39,0,0,1-1.72-.7,2.25,2.25,0,0,1-.51-.77A2.51,2.51,0,0,1,141.21,248.18Z"/><path class="cls-1" d="M165.05,231.85h6.15a17.16,17.16,0,0,1,4.24.5A9.75,9.75,0,0,1,179,234a7.91,7.91,0,0,1,2.37,2.91,9.63,9.63,0,0,1,.88,4.33,8.86,8.86,0,0,1-.85,4,8.55,8.55,0,0,1-2.3,2.88,10,10,0,0,1-3.34,1.78,13,13,0,0,1-4,.6h-6.7Zm4.1,14.81h2.13a11.67,11.67,0,0,0,2.64-.29,5.59,5.59,0,0,0,2.11-1,4.46,4.46,0,0,0,1.4-1.76A6.07,6.07,0,0,0,178,241a5.12,5.12,0,0,0-.52-2.38,4.86,4.86,0,0,0-1.37-1.67,6.23,6.23,0,0,0-2-1,9,9,0,0,0-2.45-.33h-2.42Z"/><path class="cls-1" d="M188.87,231.85H193v18.59h-4.1Z"/><path class="cls-1" d="M217.47,249.13a15.3,15.3,0,0,1-3.78,1.37,19.86,19.86,0,0,1-4,.41,11.39,11.39,0,0,1-4-.68,9.11,9.11,0,0,1-3.17-2,8.76,8.76,0,0,1-2.09-3.08,11.28,11.28,0,0,1,0-8.09,8.8,8.8,0,0,1,2.09-3.09,9.23,9.23,0,0,1,3.17-1.95,11.39,11.39,0,0,1,4-.68,14.82,14.82,0,0,1,4.11.53,8.18,8.18,0,0,1,3.3,1.85l-2.89,3.16a5.78,5.78,0,0,0-1.89-1.32,6.91,6.91,0,0,0-2.63-.44,6.18,6.18,0,0,0-2.37.44,5.34,5.34,0,0,0-3,3.15,7.4,7.4,0,0,0,0,4.8,5.36,5.36,0,0,0,3,3.14,6.18,6.18,0,0,0,2.37.44,7.8,7.8,0,0,0,2.31-.3,8.4,8.4,0,0,0,1.55-.62v-3H210.2v-3.78h7.27Z"/><path class="cls-1" d="M225,231.85h4.1v18.59H225Z"/><path class="cls-1" d="M240.32,235.47H235v-3.62h14.7v3.62h-5.3v15h-4.1Z"/><path class="cls-1" d="M259.44,231.85h3.39l8.08,18.59h-4.62l-1.6-3.94h-7.22l-1.55,3.94H251.4Zm1.57,5.41L258.75,243h4.55Z"/><path class="cls-1" d="M276.87,231.85H281v14.81h7.59v3.78H276.87Z"/><path class="cls-1" d="M315.66,236.39a2.88,2.88,0,0,0-1.35-.93,4.89,4.89,0,0,0-1.61-.3,4.18,4.18,0,0,0-.92.1,3.46,3.46,0,0,0-.9.33,2,2,0,0,0-.68.59,1.54,1.54,0,0,0-.26.9,1.47,1.47,0,0,0,.63,1.28,5.89,5.89,0,0,0,1.59.76c.64.21,1.32.42,2.06.63a8.42,8.42,0,0,1,2.06.9,4.8,4.8,0,0,1,1.59,1.55,4.68,4.68,0,0,1,.63,2.59,5.92,5.92,0,0,1-.58,2.71,5.53,5.53,0,0,1-1.56,1.92,6.77,6.77,0,0,1-2.28,1.13,10.31,10.31,0,0,1-2.75.36,9.87,9.87,0,0,1-3.36-.55,8.25,8.25,0,0,1-2.89-1.78l2.92-3.21a4.19,4.19,0,0,0,1.59,1.3,4.43,4.43,0,0,0,3,.34,3.08,3.08,0,0,0,.92-.35,1.91,1.91,0,0,0,.65-.61,1.45,1.45,0,0,0,.25-.86,1.58,1.58,0,0,0-.64-1.33,5.92,5.92,0,0,0-1.61-.82c-.65-.23-1.35-.46-2.11-.69a9,9,0,0,1-2.1-.92,5.07,5.07,0,0,1-1.61-1.52,4.34,4.34,0,0,1-.65-2.49,5.63,5.63,0,0,1,.59-2.63,5.79,5.79,0,0,1,1.58-1.89,6.74,6.74,0,0,1,2.27-1.14,9.13,9.13,0,0,1,2.65-.38,10.71,10.71,0,0,1,3.05.44,7.12,7.12,0,0,1,2.66,1.5Z"/><path class="cls-1" d="M325.64,231.85h12.63v3.78h-8.53v3.46h8.06v3.79h-8.06v3.78h9v3.78H325.64Z"/><path class="cls-1" d="M346,231.85h7.19a12.84,12.84,0,0,1,2.69.27,6.53,6.53,0,0,1,2.24.92,4.51,4.51,0,0,1,1.52,1.74,5.8,5.8,0,0,1,.57,2.72,5.46,5.46,0,0,1-1,3.34,4.58,4.58,0,0,1-3,1.75l4.72,7.85H356L352.09,243h-2v7.43H346Zm4.1,7.69h2.41c.37,0,.76,0,1.17,0a3.6,3.6,0,0,0,1.12-.23,1.93,1.93,0,0,0,.82-.62,1.8,1.8,0,0,0,.33-1.18,1.91,1.91,0,0,0-.29-1.13,1.8,1.8,0,0,0-.73-.64,3.45,3.45,0,0,0-1-.31,8.68,8.68,0,0,0-1.12-.08h-2.68Z"/><path class="cls-1" d="M365.09,231.85h4.67l4.6,12.19h.05l4.67-12.19h4.39l-7.67,18.59h-3.28Z"/><path class="cls-1" d="M389.3,231.85h4.1v18.59h-4.1Z"/><path class="cls-1" d="M413.23,236.68a4,4,0,0,0-1.49-1.13,4.93,4.93,0,0,0-2-.39,5,5,0,0,0-3.85,1.69,5.81,5.81,0,0,0-1.13,1.9,7.23,7.23,0,0,0,0,4.8,6,6,0,0,0,1.11,1.89,5.23,5.23,0,0,0,1.67,1.25,5,5,0,0,0,2.07.44,4.65,4.65,0,0,0,2.23-.52,4.44,4.44,0,0,0,1.6-1.48l3.41,2.55a7.1,7.1,0,0,1-3,2.45,9.35,9.35,0,0,1-3.73.78,11.39,11.39,0,0,1-4-.68,8.93,8.93,0,0,1-3.17-2,8.78,8.78,0,0,1-2.1-3.08,11.43,11.43,0,0,1,0-8.09,8.82,8.82,0,0,1,2.1-3.09,9,9,0,0,1,3.17-1.95,11.39,11.39,0,0,1,4-.68,9.48,9.48,0,0,1,1.64.14,9.1,9.1,0,0,1,1.68.46,7.59,7.59,0,0,1,1.59.84,6.14,6.14,0,0,1,1.36,1.29Z"/><path class="cls-1" d="M423.15,231.85h12.63v3.78h-8.53v3.46h8.06v3.79h-8.06v3.78h9v3.78H423.15Z"/><path class="cls-2" d="M415.7,52H31.27a1.9,1.9,0,0,0-1.75,2.25C32,71.43,46.79,81.52,56.41,85.61H390.56c9.62-4.09,24.4-14.18,26.89-31.37A1.89,1.89,0,0,0,415.7,52Z"/><path class="cls-2" d="M88.36,111.35H358.61c7.47-2.64,20.43-8.81,26.09-21.45H62.27C67.93,102.54,80.89,108.71,88.36,111.35Z"/><path class="cls-2" d="M122.09,132.82c.1,0,8.13,0,8.24,0,2.59,0,38.71.14,93.16.19s90.56-.18,93.16-.19c.1,0,8.13,0,8.23,0,2.08-.51,18.24-1.3,28.23-17.18H93.87C103.85,131.52,120,132.31,122.09,132.82Z"/><path class="cls-1" d="M353.13,49.9c0,57.11-58.05,103.39-129.64,103.39S93.84,107,93.84,49.9"/><path class="cls-3" d="M162.42,25.24v112.9c0,1.37-1.48,2.68-.55,3.67,0,0,32.86,46,57.41,64,3.27,2.41,5.52,2.53,8.93,0,24.37-18.06,56.89-64,56.89-64,.93-1-.55-2.3-.55-3.67V25.24c0-3-.4-3.37-3.36-3.37H165.79C162.82,21.87,162.42,22.27,162.42,25.24Z"/><path class="cls-4" d="M165.79,19.87h115.4a5.36,5.36,0,0,1,5.36,5.37v112.9a5.36,5.36,0,0,1-1.45,3.67S275,156.13,261.78,171.93V80.08H235.86V199.55c-2.61,2.34-5.17,4.46-7.65,6.3-3.41,2.53-5.66,2.41-8.93,0-2.64-1.94-5.38-4.21-8.16-6.7V80.08H185.19v91.57C172,156,161.87,141.81,161.87,141.81a5.36,5.36,0,0,1-1.45-3.67V25.24A5.36,5.36,0,0,1,165.79,19.87Zm14.89,23.94-7.4,1.08,5.35,5.22-1.26,7.37L184,54l6.62,3.48-1.27-7.37,5.36-5.22-7.4-1.08L184,37.11Zm79,0-7.39,1.08,5.35,5.22-1.26,7.37L263,54l6.62,3.48-1.26-7.37,5.35-5.22-7.4-1.08L263,37.11ZM218,43.35l-12,1.74,8.68,8.46-2,12,10.73-5.64,10.74,5.64-2.05-12,8.68-8.46-12-1.74-5.37-10.88Z"/><rect class="cls-1" x="10.71" y="274.66" width="425.54" height="1.7"/></svg>