<?xml version="1.0" encoding="utf-8"?>
<!-- Generator: Adobe Illustrator 24.0.0, SVG Export Plug-In . SVG Version: 6.00 Build 0)  -->
<svg version="1.1" id="Layer_1" xmlns="http://www.w3.org/2000/svg" xmlns:xlink="http://www.w3.org/1999/xlink" x="0px" y="0px"
	 viewBox="0 0 157 95" style="enable-background:new 0 0 157 95;" xml:space="preserve">
<style type="text/css">
	.st0{fill:#FFFFFF;}
	.st1{fill:#E0CB26;}
	.st2{fill:#A39634;}
	.st3{fill:#103C68;}
</style>
<g>
	<path class="st0" d="M11.57,90.18c0,0.45-0.07,0.9-0.22,1.33c-0.14,0.39-0.36,0.75-0.65,1.05c-0.3,0.31-0.67,0.54-1.07,0.7
		c-0.96,0.34-2,0.34-2.96,0c-0.4-0.15-0.77-0.39-1.07-0.7c-0.29-0.3-0.51-0.66-0.65-1.05c-0.15-0.43-0.22-0.87-0.22-1.33v-4.97h1.78
		v4.91c0,0.24,0.04,0.47,0.12,0.7c0.08,0.21,0.19,0.39,0.34,0.56c0.15,0.16,0.32,0.28,0.52,0.37c0.21,0.09,0.43,0.13,0.66,0.13
		c0.22,0,0.45-0.04,0.65-0.13c0.19-0.09,0.37-0.21,0.51-0.37c0.15-0.16,0.26-0.35,0.34-0.56c0.08-0.22,0.12-0.46,0.12-0.7v-4.91
		h1.78L11.57,90.18z"/>
	<path class="st0" d="M12.74,92.32c0-0.14,0.03-0.28,0.08-0.41c0.05-0.13,0.13-0.24,0.22-0.34c0.31-0.3,0.76-0.38,1.16-0.22
		c0.13,0.05,0.24,0.13,0.34,0.22c0.1,0.1,0.17,0.21,0.22,0.34c0.1,0.26,0.1,0.56,0,0.82c-0.05,0.13-0.13,0.24-0.22,0.34
		c-0.1,0.1-0.21,0.17-0.34,0.22c-0.13,0.05-0.27,0.08-0.41,0.08c-0.14,0-0.28-0.03-0.41-0.08c-0.13-0.05-0.24-0.13-0.34-0.22
		c-0.1-0.1-0.17-0.21-0.22-0.34C12.77,92.6,12.74,92.46,12.74,92.32z"/>
	<path class="st0" d="M22.29,87.19c-0.15-0.19-0.36-0.33-0.59-0.41c-0.22-0.08-0.46-0.13-0.7-0.13c-0.14,0-0.27,0.02-0.4,0.05
		c-0.14,0.03-0.27,0.08-0.39,0.14c-0.12,0.06-0.22,0.15-0.3,0.26c-0.2,0.31-0.13,0.72,0.16,0.95c0.21,0.15,0.45,0.26,0.69,0.34
		c0.28,0.09,0.58,0.18,0.9,0.27c0.32,0.09,0.62,0.22,0.9,0.39c0.28,0.17,0.52,0.4,0.69,0.68c0.2,0.34,0.29,0.74,0.28,1.13
		c0.01,0.41-0.08,0.81-0.25,1.18c-0.16,0.33-0.39,0.61-0.68,0.83c-0.3,0.23-0.63,0.39-0.99,0.49c-0.87,0.24-1.8,0.21-2.66-0.08
		c-0.47-0.17-0.9-0.43-1.26-0.78l1.27-1.4c0.18,0.24,0.42,0.44,0.69,0.57c0.4,0.2,0.86,0.25,1.3,0.15c0.14-0.03,0.28-0.08,0.4-0.16
		c0.11-0.06,0.21-0.15,0.29-0.26c0.07-0.11,0.11-0.24,0.11-0.38c0.01-0.23-0.1-0.44-0.28-0.58c-0.21-0.16-0.45-0.28-0.7-0.36
		c-0.28-0.1-0.59-0.2-0.91-0.3c-0.32-0.1-0.63-0.23-0.92-0.4c-0.28-0.17-0.52-0.39-0.7-0.66c-0.2-0.32-0.3-0.7-0.28-1.08
		c-0.01-0.4,0.08-0.79,0.26-1.14c0.17-0.32,0.4-0.6,0.68-0.82c0.3-0.23,0.63-0.4,0.99-0.5c0.37-0.11,0.76-0.17,1.15-0.17
		c0.45,0,0.9,0.06,1.33,0.19c0.43,0.13,0.82,0.35,1.16,0.65L22.29,87.19z"/>
	<path class="st0" d="M24.87,92.32c0-0.14,0.03-0.28,0.08-0.41c0.05-0.13,0.13-0.24,0.22-0.34c0.1-0.1,0.21-0.17,0.34-0.22
		c0.26-0.11,0.56-0.11,0.82,0c0.13,0.05,0.24,0.13,0.34,0.22c0.1,0.1,0.17,0.21,0.22,0.34c0.1,0.26,0.1,0.56,0,0.82
		c-0.1,0.26-0.3,0.46-0.56,0.56c-0.26,0.11-0.56,0.11-0.82,0c-0.13-0.05-0.24-0.13-0.34-0.22c-0.1-0.1-0.17-0.21-0.22-0.34
		C24.9,92.6,24.87,92.46,24.87,92.32z"/>
	<path class="st0" d="M34.15,85.21h2.68c0.62,0,1.24,0.07,1.85,0.22c0.55,0.13,1.07,0.37,1.53,0.7c0.44,0.33,0.8,0.77,1.03,1.26
		c0.27,0.59,0.4,1.24,0.38,1.89c0.01,0.6-0.11,1.19-0.37,1.73c-0.24,0.49-0.58,0.92-1,1.26c-0.43,0.35-0.92,0.61-1.45,0.77
		c-0.56,0.18-1.14,0.27-1.73,0.27h-2.92V85.21z M35.94,91.65h0.93c0.39,0,0.77-0.04,1.15-0.13c0.33-0.07,0.65-0.22,0.92-0.42
		c0.27-0.2,0.48-0.46,0.61-0.77c0.16-0.37,0.24-0.76,0.22-1.16c0.01-0.36-0.07-0.71-0.22-1.04c-0.14-0.28-0.35-0.53-0.6-0.73
		c-0.27-0.2-0.57-0.34-0.89-0.43c-0.35-0.1-0.71-0.14-1.07-0.14h-1.05V91.65z"/>
	<path class="st0" d="M44.53,85.21h1.78v8.1h-1.78V85.21z"/>
	<path class="st0" d="M56.98,92.73c-0.52,0.27-1.07,0.47-1.65,0.59c-0.57,0.12-1.16,0.18-1.75,0.18c-0.6,0.01-1.19-0.09-1.75-0.3
		c-0.51-0.19-0.99-0.47-1.38-0.85c-0.4-0.38-0.71-0.84-0.91-1.34c-0.43-1.13-0.43-2.39,0-3.52c0.2-0.51,0.51-0.97,0.91-1.35
		c0.4-0.37,0.87-0.66,1.38-0.85c0.56-0.2,1.15-0.3,1.75-0.3c0.61-0.01,1.21,0.07,1.8,0.23c0.54,0.15,1.03,0.43,1.43,0.81l-1.26,1.37
		c-0.23-0.24-0.51-0.44-0.82-0.57c-0.36-0.14-0.75-0.21-1.14-0.19c-0.35-0.01-0.71,0.06-1.03,0.19c-0.3,0.12-0.57,0.31-0.8,0.54
		c-0.23,0.24-0.4,0.52-0.51,0.83c-0.24,0.68-0.24,1.41,0,2.09c0.11,0.31,0.29,0.59,0.51,0.82c0.22,0.24,0.5,0.42,0.8,0.54
		c0.33,0.13,0.68,0.2,1.03,0.19c0.34,0.01,0.68-0.04,1.01-0.13c0.23-0.07,0.46-0.16,0.68-0.27v-1.32h-1.45V88.5h3.17L56.98,92.73z"
		/>
	<path class="st0" d="M60.24,85.21h1.78v8.1h-1.78V85.21z"/>
	<path class="st0" d="M66.94,86.78h-2.32v-1.58h6.4v1.58h-2.3v6.52h-1.78V86.78z"/>
	<path class="st0" d="M75.26,85.21h1.47l3.52,8.1h-2.01l-0.7-1.71H74.4l-0.68,1.71h-1.96L75.26,85.21z M75.94,87.56l-0.98,2.51h1.98
		L75.94,87.56z"/>
	<path class="st0" d="M82.85,85.21h1.78v6.45h3.3v1.65h-5.09V85.21z"/>
	<path class="st0" d="M99.75,87.19c-0.15-0.19-0.36-0.33-0.59-0.41c-0.23-0.08-0.46-0.13-0.7-0.13c-0.13,0-0.27,0.02-0.4,0.05
		c-0.14,0.03-0.27,0.08-0.39,0.14c-0.12,0.06-0.22,0.15-0.3,0.26c-0.2,0.31-0.13,0.72,0.16,0.95c0.21,0.15,0.45,0.26,0.69,0.34
		c0.28,0.09,0.58,0.18,0.9,0.27c0.32,0.09,0.62,0.22,0.9,0.39c0.28,0.17,0.52,0.4,0.69,0.68c0.2,0.34,0.29,0.74,0.28,1.13
		c0.01,0.41-0.08,0.81-0.25,1.18c-0.16,0.33-0.39,0.61-0.68,0.83c-0.3,0.23-0.63,0.39-0.99,0.49c-0.87,0.24-1.8,0.21-2.66-0.08
		c-0.47-0.17-0.9-0.43-1.26-0.78l1.27-1.4c0.18,0.24,0.42,0.44,0.69,0.57c0.4,0.2,0.86,0.25,1.3,0.15c0.14-0.03,0.28-0.08,0.4-0.16
		c0.11-0.06,0.21-0.15,0.29-0.26c0.07-0.11,0.11-0.24,0.11-0.38c0.01-0.23-0.1-0.44-0.28-0.58c-0.21-0.16-0.45-0.29-0.7-0.38
		c-0.28-0.1-0.59-0.2-0.91-0.3c-0.32-0.1-0.63-0.23-0.91-0.4c-0.28-0.17-0.52-0.39-0.7-0.66c-0.2-0.32-0.3-0.7-0.28-1.08
		c-0.01-0.4,0.08-0.79,0.26-1.14c0.16-0.32,0.4-0.6,0.68-0.82c0.3-0.23,0.63-0.4,0.99-0.5c0.37-0.11,0.76-0.17,1.15-0.17
		c0.45,0,0.9,0.07,1.33,0.19c0.43,0.13,0.82,0.35,1.16,0.65L99.75,87.19z"/>
	<path class="st0" d="M104.09,85.21h5.5v1.64h-3.72v1.51h3.51V90h-3.51v1.65h3.92v1.66h-5.7V85.21z"/>
	<path class="st0" d="M112.94,85.21h3.12c0.39,0,0.79,0.04,1.17,0.12c0.35,0.07,0.68,0.21,0.97,0.4c0.28,0.19,0.51,0.45,0.66,0.75
		c0.18,0.37,0.26,0.78,0.24,1.19c0.02,0.52-0.14,1.03-0.45,1.46c-0.32,0.41-0.79,0.69-1.31,0.76l2.07,3.42h-2.14l-1.7-3.23h-0.88
		v3.23h-1.77V85.21z M114.73,88.56h1.05c0.16,0,0.33,0,0.51-0.02c0.17-0.01,0.33-0.04,0.49-0.1c0.14-0.06,0.27-0.15,0.36-0.27
		c0.1-0.15,0.15-0.33,0.14-0.51c0.01-0.17-0.04-0.34-0.13-0.49c-0.08-0.12-0.19-0.21-0.32-0.28c-0.14-0.07-0.29-0.11-0.45-0.13
		c-0.16-0.02-0.33-0.03-0.49-0.03h-1.17V88.56z"/>
	<path class="st0" d="M121.27,85.21h2.04l2,5.31h0.02l2.04-5.31h1.91l-3.36,8.1h-1.43L121.27,85.21z"/>
	<path class="st0" d="M131.81,85.21h1.78v8.1h-1.78V85.21z"/>
	<path class="st0" d="M142.23,87.31c-0.17-0.21-0.4-0.38-0.65-0.49c-0.28-0.12-0.58-0.18-0.89-0.17c-0.64-0.01-1.25,0.26-1.67,0.74
		c-0.22,0.24-0.38,0.52-0.49,0.83c-0.24,0.68-0.24,1.41,0,2.09c0.11,0.3,0.27,0.58,0.48,0.82c0.2,0.23,0.45,0.41,0.73,0.54
		c0.28,0.13,0.59,0.2,0.9,0.19c0.34,0.01,0.67-0.07,0.97-0.23c0.28-0.15,0.52-0.37,0.7-0.64l1.49,1.11
		c-0.33,0.47-0.78,0.84-1.3,1.06c-0.51,0.22-1.07,0.34-1.63,0.34c-0.6,0.01-1.19-0.1-1.75-0.3c-0.51-0.19-0.98-0.48-1.38-0.85
		c-0.4-0.38-0.71-0.84-0.91-1.34c-0.43-1.13-0.43-2.39,0-3.52c0.2-0.51,0.52-0.97,0.91-1.34c0.4-0.37,0.87-0.66,1.38-0.85
		c0.56-0.2,1.15-0.3,1.75-0.3c0.24,0,0.48,0.02,0.72,0.06c0.25,0.04,0.49,0.11,0.73,0.2c0.25,0.09,0.48,0.22,0.69,0.37
		c0.22,0.16,0.42,0.35,0.59,0.56L142.23,87.31z"/>
	<path class="st0" d="M146.56,85.21h5.5v1.64h-3.72v1.51h3.51V90h-3.51v1.65h3.92v1.66h-5.71V85.21z"/>
	<path class="st1" d="M54.17,44.02v-6.63H27.42c3.86,6.46,11.89,6.59,11.85,6.59C38.38,43.98,44.65,44.01,54.17,44.02z"/>
	<path class="st1" d="M54.17,26.61H15.41c2.2,5.14,8.19,8.22,10.93,8.22h27.82V26.61z"/>
	<path class="st1" d="M54.17,11.58H2.7C2.29,11.6,1.98,11.94,2,12.35c0,0.04,0.01,0.08,0.02,0.12c1.25,5.98,8.85,11.57,12.45,11.57
		h39.7V11.58z"/>
	<path class="st1" d="M102.83,44.02v-6.63h26.75c-3.86,6.46-11.89,6.59-11.85,6.59C118.62,43.98,112.35,44.01,102.83,44.02z"/>
	<path class="st1" d="M102.83,26.61h38.76c-2.2,5.14-8.19,8.22-10.93,8.22h-27.82V26.61z"/>
	<path class="st1" d="M102.83,11.58h51.47c0.41,0.02,0.72,0.37,0.7,0.77c0,0.04-0.01,0.08-0.02,0.12
		c-1.25,5.98-8.85,11.57-12.45,11.57h-39.7V11.58z"/>
	<path class="st2" d="M28.31,12.62C29,34.25,51.2,51.62,78.5,51.62s49.53-17.39,50.19-39.04c0.04-0.56-0.28-1-0.76-1H29.21
		C28.48,11.58,28.28,12.1,28.31,12.62z"/>
	<path class="st0" d="M100.6-0.05H56.4c-1.28,0-2.32,1.04-2.32,2.32v43.12c0,1,0.24,1.28,0.51,1.71
		c1.95,3.08,11.82,15.63,17.24,20.67c0.84,0.78,4.6,4.92,6.68,4.92s5.84-4.14,6.68-4.92c5.41-5.04,15.3-17.59,17.24-20.67
		c0.27-0.43,0.51-0.71,0.51-1.71V2.27C102.93,0.98,101.89-0.06,100.6-0.05C100.6-0.05,100.6-0.05,100.6-0.05z"/>
	<path class="st3" d="M100.6-0.05H56.4c-1.28,0-2.32,1.04-2.32,2.32v43.12c0,1,0.24,1.28,0.51,1.71c1.16,1.83,5.1,6.99,9.26,11.95
		V23.27h9.77v46.27c1.5,1.43,3.54,3.15,4.89,3.15s3.38-1.72,4.89-3.15V23.27h9.77v35.78c4.15-4.95,8.1-10.12,9.26-11.95
		c0.27-0.43,0.51-0.71,0.51-1.71V2.27C102.93,0.98,101.89-0.06,100.6-0.05L100.6-0.05z M65.87,14.7l-2.67-1.47l-2.68,1.47l0.57-3
		l-2.23-2.1l3.03-0.39l1.31-2.77l1.3,2.77l3.03,0.39l-2.23,2.1L65.87,14.7z M81.73,12.95l0.87,4.59l-4.1-2.25l-4.1,2.25l0.87-4.59
		l-3.4-3.2l4.63-0.59l1.99-4.23l1.99,4.23l4.64,0.59L81.73,12.95z M96.49,14.7l-2.69-1.47l-2.68,1.47l0.57-3l-2.23-2.1l3.03-0.39
		l1.3-2.77l1.31,2.77l3.03,0.39l-2.23,2.1L96.49,14.7z"/>
</g>
</svg>
