<svg id="Layer_1" data-name="Layer 1" xmlns="http://www.w3.org/2000/svg" viewBox="0 0 1900 337.8"><defs><style>.cls-1{fill:#ddc523;}.cls-2{fill:#aea03f;}.cls-3{fill:#fff;}.cls-4{fill:#cbccd4;}.cls-5{fill:#475a77;}.cls-6{fill:#988530;}</style></defs><title>usds-logo-header</title><path class="cls-1" d="M612.67,75.86H33.93a2.86,2.86,0,0,0-2.63,3.4c3.75,25.87,26,41.06,40.48,47.22h503c14.48-6.16,36.73-21.35,40.48-47.22A2.86,2.86,0,0,0,612.67,75.86Z"/><path class="cls-1" d="M119.88,165.23H526.71c11.26-4,30.76-13.27,39.29-32.29H80.6C89.13,152,108.63,161.25,119.88,165.23Z"/><path class="cls-1" d="M170.66,197.54c.14.05,12.24.06,12.39.06,3.91,0,58.28.2,140.25.29,82-.09,136.34-.28,140.25-.29.15,0,12.25,0,12.39-.06,3.13-.76,27.47-1.95,42.5-25.85H128.17C143.19,195.59,167.53,196.78,170.66,197.54Z"/><path class="cls-2" d="M518.46,72.72c0,86-87.37,155.65-195.16,155.65S128.14,158.69,128.14,72.72"/><path class="cls-3" d="M323.68,309.53c-1.85,0-3.79-.81-6.27-2.64-19-14-41.46-39.41-56.92-58.27-16.78-20.45-29.21-37.8-29.33-38a7.4,7.4,0,0,1-2-5.08v-170a7.32,7.32,0,0,1,7.32-7.32H410.17a7.32,7.32,0,0,1,7.31,7.32v170a7.31,7.31,0,0,1-2,5l-.07.08c-.12.17-12.42,17.53-29,38-15.32,18.85-37.55,44.26-56.44,58.27-2.46,1.82-4.4,2.63-6.27,2.63Z"/><path class="cls-4" d="M410.17,29a6.57,6.57,0,0,1,6.56,6.57v170a6.56,6.56,0,0,1-1.77,4.49l-.07.07-.06.09c-.12.17-12.4,17.5-29,37.92-15.29,18.83-37.48,44.19-56.31,58.15-2.32,1.72-4.12,2.49-5.83,2.49s-3.48-.77-5.82-2.49c-19-14-41.35-39.32-56.79-58.14-16.76-20.43-29.18-37.77-29.3-37.94l-.06-.08-.07-.07a6.56,6.56,0,0,1-1.77-4.49v-170A6.57,6.57,0,0,1,236.44,29H410.17m0-1.5H236.44a8.07,8.07,0,0,0-8.08,8.07v170a8.09,8.09,0,0,0,2.18,5.52S280,280.3,317,307.5c2.49,1.83,4.59,2.79,6.71,2.79s4.19-.91,6.73-2.79c36.69-27.2,85.65-96.41,85.65-96.41a8.09,8.09,0,0,0,2.18-5.52v-170a8.07,8.07,0,0,0-8.07-8.07Z"/><path class="cls-5" d="M236.44,27.52H410.17a8.07,8.07,0,0,1,8.07,8.07v170a8.09,8.09,0,0,1-2.18,5.52S400.81,232.64,381,256.42V118.16h-39V298c-3.93,3.52-7.79,6.72-11.52,9.49-5.13,3.8-8.52,3.63-13.44,0-4-2.93-8.1-6.34-12.29-10.1V118.16h-39V256c-19.87-23.62-35.1-44.92-35.1-44.92a8.09,8.09,0,0,1-2.18-5.52v-170A8.07,8.07,0,0,1,236.44,27.52Zm22.42,36-11.14,1.62L255.78,73l-1.9,11.1,10-5.24,10,5.24L271.9,73,280,65.18l-11.14-1.62-5-10.1Zm118.92,0-11.14,1.62L374.7,73l-1.9,11.1,10-5.24,10,5.24L390.82,73l8.06-7.85-11.14-1.62-5-10.1Zm-62.71-.71L297,65.48l13.07,12.74-3.09,18,16.16-8.49,16.16,8.49-3.09-18,13.07-12.74-18.06-2.63-8.08-16.37Z"/><path class="cls-6" d="M732.47,89.48h-18.8V76.63H765.8V89.48H747v53.06H732.47Z"/><path class="cls-6" d="M787.09,76.63h14.52v24.58h28.21V76.63h14.53v65.91H829.82V114.06H801.61v28.48H787.09Z"/><path class="cls-6" d="M872.6,76.63h44.78V90H887.12v12.29H915.7v13.4H887.12v13.41h31.94v13.4H872.6Z"/><path class="cls-6" d="M1043.62,117.13a31.78,31.78,0,0,1-1.77,10.8,23.71,23.71,0,0,1-5.26,8.56,24,24,0,0,1-8.71,5.68,36.47,36.47,0,0,1-24.11,0,23.91,23.91,0,0,1-8.7-5.68,23.57,23.57,0,0,1-5.26-8.56,31.78,31.78,0,0,1-1.77-10.8V76.63h14.52v39.94a16.09,16.09,0,0,0,1,5.68,13.44,13.44,0,0,0,2.74,4.51,12.29,12.29,0,0,0,4.24,3,13.19,13.19,0,0,0,5.36,1.07,12.84,12.84,0,0,0,5.3-1.07,12.48,12.48,0,0,0,4.19-3,13.63,13.63,0,0,0,2.75-4.51,16.09,16.09,0,0,0,1-5.68V76.63h14.53Z"/><path class="cls-6" d="M1071.38,76.63h19.73l28,45.81h.18V76.63h14.52v65.91h-19l-28.76-46.92h-.19v46.92h-14.52Z"/><path class="cls-6" d="M1161.67,76.63h14.52v65.91h-14.52Z"/><path class="cls-6" d="M1216.2,89.48h-18.81V76.63h52.14V89.48h-18.81v53.06H1216.2Z"/><path class="cls-6" d="M1271.08,76.63h44.79V90h-30.26v12.29h28.58v13.4h-28.58v13.41h31.93v13.4h-46.46Z"/><path class="cls-6" d="M1343.54,76.63h21.79a62.08,62.08,0,0,1,15,1.77,34.4,34.4,0,0,1,12.43,5.73,28,28,0,0,1,8.43,10.28,34.48,34.48,0,0,1,3.12,15.36,31.34,31.34,0,0,1-3,14.11,30.42,30.42,0,0,1-8.14,10.24,36,36,0,0,1-11.83,6.28,45.81,45.81,0,0,1-14,2.14h-23.75Zm14.53,52.51h7.54a40.1,40.1,0,0,0,9.35-1,20,20,0,0,0,7.5-3.39,16.4,16.4,0,0,0,5-6.24,22.16,22.16,0,0,0,1.81-9.45,18.44,18.44,0,0,0-1.81-8.43,16.8,16.8,0,0,0-4.89-5.91,21.51,21.51,0,0,0-7.21-3.49,32.36,32.36,0,0,0-8.71-1.16h-8.56Z"/><path class="cls-6" d="M1504.14,92.74a10.4,10.4,0,0,0-4.8-3.31,17.21,17.21,0,0,0-5.72-1.07,15.52,15.52,0,0,0-3.26.37,12.57,12.57,0,0,0-3.17,1.17,6.92,6.92,0,0,0-2.42,2.09,5.33,5.33,0,0,0-.93,3.17,5.26,5.26,0,0,0,2.24,4.56,21.4,21.4,0,0,0,5.63,2.7c2.26.74,4.7,1.49,7.31,2.23a30.12,30.12,0,0,1,7.3,3.17,17.29,17.29,0,0,1,5.64,5.49q2.24,3.45,2.23,9.22a21.14,21.14,0,0,1-2,9.59,19.36,19.36,0,0,1-5.54,6.79,23.51,23.51,0,0,1-8.09,4,36,36,0,0,1-9.73,1.3,35.11,35.11,0,0,1-11.92-2,29.82,29.82,0,0,1-10.24-6.33L1477,124.58a15.06,15.06,0,0,0,5.64,4.6,16,16,0,0,0,7,1.63,16.46,16.46,0,0,0,3.58-.41,11.65,11.65,0,0,0,3.26-1.26,7,7,0,0,0,2.32-2.14,5.37,5.37,0,0,0,.89-3.08,5.58,5.58,0,0,0-2.28-4.7,21,21,0,0,0-5.73-2.93c-2.29-.8-4.78-1.61-7.44-2.42a33.25,33.25,0,0,1-7.45-3.26,17.8,17.8,0,0,1-5.73-5.4,15.43,15.43,0,0,1-2.28-8.84,19.87,19.87,0,0,1,2.09-9.31,20.23,20.23,0,0,1,5.59-6.71,24.28,24.28,0,0,1,8-4A33,33,0,0,1,1493.9,75a36.86,36.86,0,0,1,10.8,1.59,24.94,24.94,0,0,1,9.4,5.3Z"/><path class="cls-6" d="M1553,89.48h-18.8V76.63h52.13V89.48h-18.81v53.06H1553Z"/><path class="cls-6" d="M1623.07,76.63h12l28.68,65.91h-16.39l-5.68-14h-25.6l-5.49,14h-16Zm5.59,19.18-8,20.48h16.11Z"/><path class="cls-6" d="M1690.89,89.48h-18.8V76.63h52.13V89.48h-18.8v53.06h-14.53Z"/><path class="cls-6" d="M1745.78,76.63h44.78V90h-30.25v12.29h28.58v13.4h-28.58v13.41h31.93v13.4h-46.46Z"/><path class="cls-6" d="M1850.68,92.74a10.37,10.37,0,0,0-4.79-3.31,17.31,17.31,0,0,0-5.73-1.07,15.6,15.6,0,0,0-3.26.37,12.5,12.5,0,0,0-3.16,1.17,6.92,6.92,0,0,0-2.42,2.09,5.33,5.33,0,0,0-.93,3.17,5.25,5.25,0,0,0,2.23,4.56,21.47,21.47,0,0,0,5.64,2.7c2.26.74,4.7,1.49,7.3,2.23a30.19,30.19,0,0,1,7.31,3.17,17.26,17.26,0,0,1,5.63,5.49q2.24,3.45,2.24,9.22a21.14,21.14,0,0,1-2,9.59,19.36,19.36,0,0,1-5.54,6.79,23.65,23.65,0,0,1-8.1,4,35.9,35.9,0,0,1-9.73,1.3,35.1,35.1,0,0,1-11.91-2,29.64,29.64,0,0,1-10.24-6.33l10.33-11.35a15.1,15.1,0,0,0,5.63,4.6,16,16,0,0,0,7,1.63,16.55,16.55,0,0,0,3.59-.41,11.7,11.7,0,0,0,3.25-1.26,7.06,7.06,0,0,0,2.33-2.14,5.36,5.36,0,0,0,.88-3.08,5.58,5.58,0,0,0-2.28-4.7,21.11,21.11,0,0,0-5.72-2.93q-3.45-1.2-7.45-2.42a33.45,33.45,0,0,1-7.45-3.26,17.87,17.87,0,0,1-5.72-5.4,15.43,15.43,0,0,1-2.28-8.84,19.75,19.75,0,0,1,2.09-9.31,20.23,20.23,0,0,1,5.59-6.71,24.19,24.19,0,0,1,8-4,33,33,0,0,1,9.4-1.36,36.76,36.76,0,0,1,10.8,1.59,24.79,24.79,0,0,1,9.4,5.3Z"/><path class="cls-6" d="M719.72,201.65H741.5a62.16,62.16,0,0,1,15,1.77A34.38,34.38,0,0,1,769,209.14a28.15,28.15,0,0,1,8.42,10.29,34.48,34.48,0,0,1,3.12,15.36,31.39,31.39,0,0,1-3,14.1,30.35,30.35,0,0,1-8.15,10.24,36.06,36.06,0,0,1-11.82,6.29,45.88,45.88,0,0,1-14.06,2.14H719.72Zm14.52,52.5h7.54a40.81,40.81,0,0,0,9.36-1,20,20,0,0,0,7.49-3.4,16.25,16.25,0,0,0,5-6.24,22.07,22.07,0,0,0,1.82-9.44,18.44,18.44,0,0,0-1.82-8.43,16.88,16.88,0,0,0-4.88-5.91,21.37,21.37,0,0,0-7.22-3.49,31.84,31.84,0,0,0-8.7-1.17h-8.57Z"/><path class="cls-6" d="M806.54,201.65h14.52v65.91H806.54Z"/><path class="cls-6" d="M910.54,262.9a52.33,52.33,0,0,1-13.41,4.85,68.22,68.22,0,0,1-14.24,1.49,40.49,40.49,0,0,1-14.25-2.43,32.51,32.51,0,0,1-11.26-6.93,31.42,31.42,0,0,1-7.4-10.94,40,40,0,0,1,0-28.68,31.38,31.38,0,0,1,7.4-10.93,32.68,32.68,0,0,1,11.26-6.94A40.71,40.71,0,0,1,882.89,200a52.85,52.85,0,0,1,14.57,1.91,28.56,28.56,0,0,1,11.68,6.56L898.9,219.62a20.37,20.37,0,0,0-6.7-4.66,23.84,23.84,0,0,0-9.31-1.58,21.5,21.5,0,0,0-8.43,1.58,18.91,18.91,0,0,0-6.47,4.42,19.33,19.33,0,0,0-4.14,6.75,25.78,25.78,0,0,0,0,17,19.53,19.53,0,0,0,4.14,6.71,19,19,0,0,0,6.47,4.42,21.69,21.69,0,0,0,8.43,1.58,27.91,27.91,0,0,0,8.19-1.07,30.23,30.23,0,0,0,5.49-2.19V241.86H884.75v-13.4h25.79Z"/><path class="cls-6" d="M939.69,201.65h14.52v65.91H939.69Z"/><path class="cls-6" d="M996.07,214.5h-18.8V201.65h52.13V214.5h-18.8v53.06H996.07Z"/><path class="cls-6" d="M1068,201.65h12l28.67,65.91h-16.39l-5.67-14h-25.6l-5.5,14h-16Zm5.58,19.17-8,20.49h16.1Z"/><path class="cls-6" d="M1131.79,201.65h14.52v52.5h26.9v13.41h-41.42Z"/><path class="cls-6" d="M1274.88,217.75a10.31,10.31,0,0,0-4.8-3.3,17.21,17.21,0,0,0-5.72-1.07,14.89,14.89,0,0,0-3.26.37,12.94,12.94,0,0,0-3.17,1.16,7,7,0,0,0-2.42,2.1,5.8,5.8,0,0,0,1.31,7.73,21.09,21.09,0,0,0,5.63,2.69c2.26.75,4.7,1.49,7.31,2.24a30.48,30.48,0,0,1,7.3,3.16,17.32,17.32,0,0,1,5.64,5.5c1.49,2.29,2.23,5.37,2.23,9.21a21.11,21.11,0,0,1-2,9.59,19.31,19.31,0,0,1-5.54,6.8,23.49,23.49,0,0,1-8.09,4,37,37,0,0,1-21.65-.65,29.82,29.82,0,0,1-10.24-6.33l10.33-11.36a15.08,15.08,0,0,0,5.64,4.61,15.8,15.8,0,0,0,10.61,1.21,11.65,11.65,0,0,0,3.26-1.26,7.05,7.05,0,0,0,2.33-2.14,5.4,5.4,0,0,0,.88-3.07,5.58,5.58,0,0,0-2.28-4.7,20.75,20.75,0,0,0-5.73-2.93c-2.29-.81-4.78-1.62-7.44-2.42a33.71,33.71,0,0,1-7.45-3.26,18,18,0,0,1-5.73-5.4,15.47,15.47,0,0,1-2.28-8.85,19.9,19.9,0,0,1,2.09-9.31,20.3,20.3,0,0,1,5.59-6.7,24.26,24.26,0,0,1,8.06-4.05,32.87,32.87,0,0,1,9.4-1.35,37.19,37.19,0,0,1,10.8,1.58,25,25,0,0,1,9.4,5.31Z"/><path class="cls-6" d="M1311.87,201.65h44.78v13.4H1326.4v12.29H1355v13.41H1326.4v13.4h31.93v13.41h-46.46Z"/><path class="cls-6" d="M1386.19,201.65h25.51a45.11,45.11,0,0,1,9.54,1,22.88,22.88,0,0,1,7.92,3.26,16.31,16.31,0,0,1,5.4,6.15,20.82,20.82,0,0,1,2,9.63,19.32,19.32,0,0,1-3.63,11.87q-3.63,4.89-10.61,6.19l16.75,27.84h-17.41l-13.77-26.35h-7.17v26.35h-14.53Zm14.53,27.27h8.56c1.3,0,2.69,0,4.14-.13a13.37,13.37,0,0,0,4-.84,6.86,6.86,0,0,0,2.93-2.19,6.63,6.63,0,0,0,1.17-4.19,6.46,6.46,0,0,0-3.63-6.29,11.67,11.67,0,0,0-3.63-1.06,29.09,29.09,0,0,0-4-.28h-9.49Z"/><path class="cls-6" d="M1455,201.65h16.58l16.29,43.19h.19l16.57-43.19h15.54L1493,267.56h-11.64Z"/><path class="cls-6" d="M1543,201.65h14.52v65.91H1543Z"/><path class="cls-6" d="M1630.42,218.78a14.24,14.24,0,0,0-5.26-4,17.5,17.5,0,0,0-7.21-1.39,18,18,0,0,0-13.64,6,20.64,20.64,0,0,0-4,6.75,25.78,25.78,0,0,0,0,17,21.5,21.5,0,0,0,4,6.71,18.13,18.13,0,0,0,5.91,4.42,17.18,17.18,0,0,0,7.31,1.58,16.36,16.36,0,0,0,7.91-1.86,15.77,15.77,0,0,0,5.68-5.22l12.11,9a25.21,25.21,0,0,1-10.62,8.66,32.87,32.87,0,0,1-13.22,2.8,40.43,40.43,0,0,1-14.24-2.43,32.65,32.65,0,0,1-11.27-6.93,31.56,31.56,0,0,1-7.4-10.94,40.12,40.12,0,0,1,0-28.68,31.51,31.51,0,0,1,7.4-10.93,32.82,32.82,0,0,1,11.27-6.94,40.66,40.66,0,0,1,14.24-2.42,35,35,0,0,1,5.82.51,32.54,32.54,0,0,1,6,1.63,26.72,26.72,0,0,1,5.63,3,22.66,22.66,0,0,1,4.84,4.56Z"/><path class="cls-6" d="M1666.88,201.65h44.78v13.4H1681.4v12.29H1710v13.41H1681.4v13.4h31.93v13.41h-46.45Z"/></svg>