<?xml version="1.0" encoding="utf-8"?>
<!-- Generator: Adobe Illustrator 24.0.3, SVG Export Plug-In . SVG Version: 6.00 Build 0)  -->
<svg version="1.1" id="Layer_1" xmlns="http://www.w3.org/2000/svg" xmlns:xlink="http://www.w3.org/1999/xlink" x="0px" y="0px"
	 viewBox="0 0 475 122" style="enable-background:new 0 0 475 122;" xml:space="preserve">
<style type="text/css">
	.st0{fill:#FFFFFF;}
	.st1{fill:#ADABAC;}
</style>
<g>
	<g>
		<rect x="0.3" y="43.5" class="st0" width="62.8" height="65.1"/>
		<rect x="0.3" y="108.7" class="st1" width="62.8" height="7.6"/>
	</g>
	<g>
		<path class="st1" d="M46.1,60.7h-11v31.7h7.6V67.1h3.1c3.5,0,5.6,1.7,5.6,4.8c0,3-2,4.8-5.6,4.8h-0.5V83h0.8c8.2,0,13-4.1,13-11.1
			C59.1,64.7,54.3,60.7,46.1,60.7z"/>
		<polygon class="st1" points="14.8,60.7 4.2,92.4 11.9,92.4 19,70 22.6,81.2 18,81.2 16.1,87.5 24.7,87.5 26.2,92.4 34.1,92.4 
			23.5,60.7 		"/>
	</g>
</g>
<g>
	<path class="st1" d="M87.5,73.3L91,86.5h-2.8l-0.6-2.8h-3.5l-0.6,2.8h-2.8l3.5-13.1H87.5z M87.1,81.5l-1.3-5.9h0l-1.3,5.9H87.1z"/>
	<path class="st1" d="M94,82.8c0,0.3,0,0.6,0.1,0.8c0,0.3,0.1,0.5,0.3,0.6c0.1,0.2,0.3,0.3,0.5,0.4c0.2,0.1,0.5,0.1,0.9,0.1
		c0.4,0,0.8-0.1,1.1-0.4c0.3-0.3,0.5-0.7,0.5-1.2c0-0.3,0-0.5-0.1-0.8c-0.1-0.2-0.2-0.4-0.4-0.6c-0.2-0.2-0.4-0.3-0.7-0.5
		c-0.3-0.1-0.7-0.3-1.1-0.4c-0.6-0.2-1.1-0.4-1.5-0.6c-0.4-0.2-0.8-0.5-1.1-0.8c-0.3-0.3-0.5-0.7-0.6-1.1c-0.1-0.4-0.2-0.9-0.2-1.4
		c0-1.3,0.4-2.3,1.1-2.9c0.7-0.6,1.7-1,3-1c0.6,0,1.1,0.1,1.6,0.2c0.5,0.1,0.9,0.3,1.3,0.6c0.4,0.3,0.6,0.7,0.8,1.1
		c0.2,0.4,0.3,1,0.3,1.6V77h-2.5c0-0.6-0.1-1.1-0.3-1.4c-0.2-0.3-0.6-0.5-1.1-0.5c-0.3,0-0.5,0-0.7,0.1c-0.2,0.1-0.4,0.2-0.5,0.3
		c-0.1,0.1-0.2,0.3-0.2,0.5c0,0.2-0.1,0.4-0.1,0.6c0,0.4,0.1,0.7,0.3,1c0.2,0.3,0.5,0.5,1.1,0.8l2,0.9c0.5,0.2,0.9,0.5,1.2,0.7
		c0.3,0.2,0.6,0.5,0.8,0.8c0.2,0.3,0.3,0.6,0.4,0.9c0.1,0.3,0.1,0.7,0.1,1.1c0,1.4-0.4,2.4-1.2,3c-0.8,0.6-1.9,0.9-3.4,0.9
		c-1.5,0-2.6-0.3-3.2-1c-0.6-0.6-1-1.6-1-2.8v-0.5H94V82.8z"/>
	<path class="st1" d="M103.6,82.8c0,0.3,0,0.6,0.1,0.8c0,0.3,0.1,0.5,0.3,0.6c0.1,0.2,0.3,0.3,0.5,0.4c0.2,0.1,0.5,0.1,0.9,0.1
		c0.4,0,0.8-0.1,1.1-0.4c0.3-0.3,0.5-0.7,0.5-1.2c0-0.3,0-0.5-0.1-0.8c-0.1-0.2-0.2-0.4-0.4-0.6c-0.2-0.2-0.4-0.3-0.7-0.5
		c-0.3-0.1-0.7-0.3-1.1-0.4c-0.6-0.2-1.1-0.4-1.5-0.6c-0.4-0.2-0.8-0.5-1.1-0.8c-0.3-0.3-0.5-0.7-0.6-1.1c-0.1-0.4-0.2-0.9-0.2-1.4
		c0-1.3,0.4-2.3,1.1-2.9c0.7-0.6,1.7-1,3-1c0.6,0,1.1,0.1,1.6,0.2c0.5,0.1,0.9,0.3,1.3,0.6c0.4,0.3,0.6,0.7,0.8,1.1
		c0.2,0.4,0.3,1,0.3,1.6V77h-2.5c0-0.6-0.1-1.1-0.3-1.4c-0.2-0.3-0.6-0.5-1.1-0.5c-0.3,0-0.5,0-0.7,0.1c-0.2,0.1-0.4,0.2-0.5,0.3
		c-0.1,0.1-0.2,0.3-0.2,0.5c0,0.2-0.1,0.4-0.1,0.6c0,0.4,0.1,0.7,0.3,1c0.2,0.3,0.5,0.5,1.1,0.8l2,0.9c0.5,0.2,0.9,0.5,1.2,0.7
		c0.3,0.2,0.6,0.5,0.8,0.8c0.2,0.3,0.3,0.6,0.4,0.9c0.1,0.3,0.1,0.7,0.1,1.1c0,1.4-0.4,2.4-1.2,3c-0.8,0.6-1.9,0.9-3.4,0.9
		c-1.5,0-2.6-0.3-3.2-1c-0.6-0.6-1-1.6-1-2.8v-0.5h2.6V82.8z"/>
	<path class="st1" d="M110.8,77.2c0.1-0.8,0.3-1.6,0.6-2.2c0.3-0.6,0.8-1.1,1.4-1.4c0.6-0.3,1.4-0.5,2.4-0.5c1,0,1.8,0.2,2.4,0.5
		c0.6,0.3,1,0.8,1.4,1.4c0.3,0.6,0.5,1.3,0.6,2.2c0.1,0.8,0.1,1.8,0.1,2.8c0,1,0,1.9-0.1,2.8c-0.1,0.8-0.3,1.6-0.6,2.2
		c-0.3,0.6-0.8,1.1-1.4,1.4c-0.6,0.3-1.4,0.5-2.4,0.5c-1,0-1.8-0.2-2.4-0.5c-0.6-0.3-1-0.8-1.4-1.4c-0.3-0.6-0.5-1.3-0.6-2.2
		c-0.1-0.8-0.1-1.8-0.1-2.8C110.7,78.9,110.7,78,110.8,77.2z M113.4,82.2c0,0.6,0.1,1.1,0.3,1.5c0.1,0.4,0.3,0.7,0.6,0.8
		c0.2,0.2,0.6,0.3,0.9,0.3c0.4,0,0.7-0.1,0.9-0.3c0.2-0.2,0.4-0.5,0.6-0.8c0.1-0.4,0.2-0.9,0.3-1.5c0-0.6,0.1-1.4,0.1-2.3
		c0-0.9,0-1.6-0.1-2.2c0-0.6-0.1-1.1-0.3-1.5c-0.1-0.4-0.3-0.7-0.6-0.9c-0.2-0.2-0.6-0.3-0.9-0.3c-0.4,0-0.7,0.1-0.9,0.3
		s-0.4,0.5-0.6,0.9c-0.1,0.4-0.2,0.9-0.3,1.5c0,0.6-0.1,1.4-0.1,2.2C113.4,80.8,113.4,81.6,113.4,82.2z"/>
	<path class="st1" d="M126.5,75.7c-0.2-0.4-0.6-0.7-1.2-0.7c-0.3,0-0.6,0.1-0.8,0.3c-0.2,0.2-0.4,0.5-0.5,0.9
		c-0.1,0.4-0.2,0.9-0.3,1.6c0,0.6-0.1,1.4-0.1,2.4c0,1,0,1.8,0.1,2.4s0.2,1.1,0.3,1.4c0.1,0.3,0.3,0.6,0.5,0.7
		c0.2,0.1,0.5,0.2,0.7,0.2c0.2,0,0.5,0,0.7-0.1c0.2-0.1,0.4-0.2,0.5-0.5c0.1-0.2,0.3-0.6,0.4-1c0.1-0.4,0.1-1,0.1-1.7h2.6
		c0,0.7-0.1,1.4-0.2,2c-0.1,0.6-0.3,1.2-0.6,1.7c-0.3,0.5-0.7,0.9-1.3,1.1c-0.5,0.3-1.3,0.4-2.1,0.4c-1,0-1.8-0.2-2.4-0.5
		c-0.6-0.3-1-0.8-1.4-1.4c-0.3-0.6-0.5-1.3-0.6-2.2c-0.1-0.8-0.1-1.8-0.1-2.8c0-1,0-1.9,0.1-2.8c0.1-0.8,0.3-1.6,0.6-2.2
		c0.3-0.6,0.8-1.1,1.4-1.4c0.6-0.3,1.4-0.5,2.4-0.5c0.9,0,1.7,0.2,2.2,0.5c0.5,0.3,1,0.7,1.2,1.2c0.3,0.5,0.4,1,0.5,1.5
		c0.1,0.5,0.1,1.1,0.1,1.5h-2.7C126.8,76.8,126.7,76.1,126.5,75.7z"/>
	<path class="st1" d="M131.2,73.3h2.7v13.1h-2.7V73.3z"/>
	<path class="st1" d="M141.7,73.3l3.5,13.1h-2.8l-0.6-2.8h-3.5l-0.6,2.8h-2.8l3.5-13.1H141.7z M141.3,81.5l-1.3-5.9h0l-1.3,5.9
		H141.3z"/>
	<path class="st1" d="M152.7,75.5h-2.9v11h-2.7v-11h-2.9v-2.2h8.4V75.5z"/>
	<path class="st1" d="M161.2,75.5h-4.7v3.1h4.4v2.2h-4.4v3.5h4.9v2.2h-7.5V73.3h7.3V75.5z"/>
	<path class="st1" d="M167.2,73.3c0.9,0,1.7,0.2,2.2,0.5c0.6,0.3,1,0.7,1.3,1.3c0.3,0.6,0.5,1.2,0.6,2c0.1,0.8,0.2,1.7,0.2,2.6
		c0,1.2-0.1,2.2-0.2,3c-0.1,0.9-0.4,1.6-0.7,2.1c-0.3,0.6-0.8,1-1.4,1.2s-1.3,0.4-2.2,0.4h-4.2V73.3H167.2z M166.7,84.5
		c0.5,0,0.8-0.1,1.1-0.2c0.3-0.2,0.5-0.4,0.7-0.8c0.2-0.4,0.3-0.9,0.3-1.5c0.1-0.6,0.1-1.3,0.1-2.2c0-0.7,0-1.4-0.1-2
		c0-0.6-0.2-1-0.3-1.4c-0.2-0.4-0.4-0.7-0.7-0.8c-0.3-0.2-0.7-0.3-1.2-0.3h-1.1v9.2H166.7z"/>
	<path class="st1" d="M182.3,73.3c0.7,0,1.2,0.1,1.7,0.3c0.5,0.2,0.8,0.5,1.1,0.9c0.3,0.4,0.5,0.8,0.6,1.3c0.1,0.5,0.2,1,0.2,1.4
		c0,0.7-0.1,1.3-0.3,1.8c-0.2,0.5-0.5,0.9-0.8,1.2c-0.4,0.3-0.8,0.6-1.3,0.7c-0.5,0.2-1.1,0.2-1.7,0.2h-1.4v5.2h-2.7V73.3H182.3z
		 M181.5,79.3c0.5,0,1-0.2,1.3-0.5c0.3-0.3,0.5-0.8,0.5-1.5c0-0.7-0.1-1.2-0.4-1.5c-0.3-0.3-0.8-0.5-1.4-0.5h-1.1v4H181.5z"/>
	<path class="st1" d="M192.1,73.3c1.1,0,2,0.3,2.6,0.8c0.6,0.6,0.9,1.4,0.9,2.5c0,0.9-0.2,1.6-0.5,2.2c-0.4,0.6-0.9,0.9-1.7,1.1v0
		c0.7,0.1,1.1,0.3,1.5,0.6c0.3,0.3,0.5,0.9,0.6,1.6c0,0.2,0,0.5,0.1,0.8c0,0.3,0,0.6,0,1c0,0.7,0.1,1.2,0.1,1.6
		c0.1,0.4,0.2,0.6,0.5,0.8v0.1h-2.9c-0.1-0.2-0.2-0.4-0.3-0.6c0-0.2-0.1-0.5-0.1-0.7l-0.1-2.5c0-0.5-0.2-0.9-0.4-1.2
		c-0.2-0.3-0.6-0.4-1.2-0.4h-1.4v5.6h-2.7V73.3H192.1z M191,79.1c0.6,0,1.1-0.1,1.5-0.5c0.3-0.3,0.5-0.8,0.5-1.5
		c0-1.2-0.6-1.8-1.8-1.8h-1.3v3.8H191z"/>
	<path class="st1" d="M204.8,75.5h-4.7v3.1h4.4v2.2h-4.4v3.5h4.9v2.2h-7.5V73.3h7.3V75.5z"/>
	<path class="st1" d="M208.5,82.8c0,0.3,0,0.6,0.1,0.8c0,0.3,0.1,0.5,0.3,0.6c0.1,0.2,0.3,0.3,0.5,0.4c0.2,0.1,0.5,0.1,0.9,0.1
		c0.4,0,0.8-0.1,1.1-0.4c0.3-0.3,0.5-0.7,0.5-1.2c0-0.3,0-0.5-0.1-0.8c-0.1-0.2-0.2-0.4-0.4-0.6c-0.2-0.2-0.4-0.3-0.7-0.5
		c-0.3-0.1-0.7-0.3-1.1-0.4c-0.6-0.2-1.1-0.4-1.5-0.6c-0.4-0.2-0.8-0.5-1.1-0.8c-0.3-0.3-0.5-0.7-0.6-1.1c-0.1-0.4-0.2-0.9-0.2-1.4
		c0-1.3,0.4-2.3,1.1-2.9c0.7-0.6,1.7-1,3-1c0.6,0,1.1,0.1,1.6,0.2c0.5,0.1,0.9,0.3,1.3,0.6c0.4,0.3,0.6,0.7,0.8,1.1
		c0.2,0.4,0.3,1,0.3,1.6V77h-2.5c0-0.6-0.1-1.1-0.3-1.4c-0.2-0.3-0.6-0.5-1.1-0.5c-0.3,0-0.5,0-0.7,0.1c-0.2,0.1-0.4,0.2-0.5,0.3
		c-0.1,0.1-0.2,0.3-0.2,0.5c0,0.2-0.1,0.4-0.1,0.6c0,0.4,0.1,0.7,0.3,1c0.2,0.3,0.5,0.5,1.1,0.8l2,0.9c0.5,0.2,0.9,0.5,1.2,0.7
		c0.3,0.2,0.6,0.5,0.8,0.8c0.2,0.3,0.3,0.6,0.4,0.9c0.1,0.3,0.1,0.7,0.1,1.1c0,1.4-0.4,2.4-1.2,3c-0.8,0.6-1.9,0.9-3.4,0.9
		c-1.5,0-2.6-0.3-3.2-1c-0.6-0.6-1-1.6-1-2.8v-0.5h2.7V82.8z"/>
	<path class="st1" d="M218,82.8c0,0.3,0,0.6,0.1,0.8c0,0.3,0.1,0.5,0.3,0.6c0.1,0.2,0.3,0.3,0.5,0.4c0.2,0.1,0.5,0.1,0.9,0.1
		c0.4,0,0.8-0.1,1.1-0.4c0.3-0.3,0.5-0.7,0.5-1.2c0-0.3,0-0.5-0.1-0.8c-0.1-0.2-0.2-0.4-0.4-0.6c-0.2-0.2-0.4-0.3-0.7-0.5
		c-0.3-0.1-0.7-0.3-1.1-0.4c-0.6-0.2-1.1-0.4-1.5-0.6c-0.4-0.2-0.8-0.5-1.1-0.8c-0.3-0.3-0.5-0.7-0.6-1.1c-0.1-0.4-0.2-0.9-0.2-1.4
		c0-1.3,0.4-2.3,1.1-2.9c0.7-0.6,1.7-1,3-1c0.6,0,1.1,0.1,1.6,0.2c0.5,0.1,0.9,0.3,1.3,0.6c0.4,0.3,0.6,0.7,0.8,1.1
		c0.2,0.4,0.3,1,0.3,1.6V77h-2.5c0-0.6-0.1-1.1-0.3-1.4c-0.2-0.3-0.6-0.5-1.1-0.5c-0.3,0-0.5,0-0.7,0.1c-0.2,0.1-0.4,0.2-0.5,0.3
		c-0.1,0.1-0.2,0.3-0.2,0.5c0,0.2-0.1,0.4-0.1,0.6c0,0.4,0.1,0.7,0.3,1c0.2,0.3,0.5,0.5,1.1,0.8l2,0.9c0.5,0.2,0.9,0.5,1.2,0.7
		c0.3,0.2,0.6,0.5,0.8,0.8c0.2,0.3,0.3,0.6,0.4,0.9c0.1,0.3,0.1,0.7,0.1,1.1c0,1.4-0.4,2.4-1.2,3c-0.8,0.6-1.9,0.9-3.4,0.9
		c-1.5,0-2.6-0.3-3.2-1c-0.6-0.6-1-1.6-1-2.8v-0.5h2.7V82.8z"/>
</g>
<title>press-logo-politico</title>
</svg>
