<svg id="Layer_1" data-name="Layer 1" xmlns="http://www.w3.org/2000/svg" viewBox="0 0 475 122"><defs><style>.cls-1{fill:#afafb0;}</style></defs><title>press-logo-cbs-news</title><g id="g2871"><path id="path2877" class="cls-1" d="M22,98.94c-9,0-16.37-6-20.26-13.18C5.66,78.64,13,72.86,22,72.86c9.1,0,16.41,5.74,20.26,12.9C38.4,92.93,31.17,99,22,98.94Zm0-35.19A22.17,22.17,0,1,0,44,85.92,22.08,22.08,0,0,0,22,63.75h0"/><path id="path2879" class="cls-1" d="M22,97.17A11.25,11.25,0,1,0,10.83,85.92,11.2,11.2,0,0,0,22,97.17h0"/><path id="path2881" class="cls-1" d="M56.63,85.84c0-15.83,4.55-21.48,9.91-21.48,7.58,0,11.72,11.41,13,15.83V64.88c-1.31,1-1.92,1.54-3.33,1.54a10.67,10.67,0,0,1-4.55-1.34,10.93,10.93,0,0,0-5-1.13C60,64,48.35,72.89,48.35,85.84c0,15.3,10.31,21.88,18.29,21.88a11.44,11.44,0,0,0,5.25-1.44,10,10,0,0,1,4.35-1.44c1.41,0,2,.52,3.33,1.54V91c-1.11,6-5.45,16.34-13,16.34A10.2,10.2,0,0,1,60,104.84c-.42-.44-3.39-2.57-3.39-19h0"/><path id="path2883" class="cls-1" d="M101.24,106.78h-6.1v-.1h.6V84.42h5.83c4.28.1,7.71,2.19,7.71,11.28s-3.11,11.08-8,11.08Zm6.43-32c0,8.78-2.94,9.2-5.73,9.2h-6.2V65.08h4.65C104.14,65.08,107.67,66,107.67,74.8ZM105,84.21c8.35-1.78,9.85-5.44,9.85-9.3,0-5.18-5.89-10.24-14.35-10.24H80.58v.41h6.64v41.7H80.58v.42h20.88c6.32,0,15.53-4,15.53-12.13s-8.78-10.44-12-10.86"/><path id="path2885" class="cls-1" d="M142,80.1h.55l-.07-15.92H142a5,5,0,0,1-3.3,1.51c-1.92,0-4.87-1.85-8-1.85a12.64,12.64,0,0,0-11.45,12.9c0,9.54,6.38,11.19,9.4,12.42s12.48,3.23,12.48,9.54-4.46,8.51-8.23,8.51-8.37-2.75-10.91-8.44-2.61-8.37-2.61-8.37h-.62v16.26h.49a3.76,3.76,0,0,1,2.67-1.51c1.58,0,6.93,2.81,11.19,2.81s13-4.39,13-14-7.28-10.71-9.82-11.6-12.55-2.61-12.55-9.75A7.48,7.48,0,0,1,135.38,66c4.32,3.09,6.52,11.73,6.66,14.06"/><path id="path2887" class="cls-1" d="M275.84,64.46h-9.7v1.23h4.31L261,96.3,252,65.69h4.68V64.46H241.06v1.23h2.73l4,12.93-5.41,17.8-8.93-30.73h3.59V64.46h-56v1.23h4.8V92.63L168.75,64.46H156.24v1.23H161v40.42h-4.76v1h10.58v-1h-4.53V69.64L185,107.11h1.76V65.69h8.52v40.42h-4.76v1h33.07V93.77h-.82s-1.59,7.52-4.94,9.93a17,17,0,0,1-4.85,2.41H202.88V85h3.17a6.13,6.13,0,0,1,4.7,1.88c1.47,1.47,2.7,6.76,2.7,6.76h.94V75.15h-.94s-.64,2.41-1.52,5-4.23,3.7-5.82,3.7c-1.13,0-2.52,0-3.23,0V65.69H212c1.87.54,4.44,1.54,5.76,3.18A15,15,0,0,1,220.62,75h.94V65.69h3.64l12.92,43.06h1.59l8.69-28.08,8.4,28.08h1.65l13.44-43.06h3.95Zm14.52,18c-2.54-.89-12.56-2.6-12.56-9.74a7.48,7.48,0,0,1,11.67-6.59c4.32,3.09,6.52,11.74,6.65,14.07h.55l-.07-15.92h-.48a4.93,4.93,0,0,1-3.29,1.51c-1.92,0-4.87-1.85-8-1.85a12.64,12.64,0,0,0-11.46,12.9c0,9.53,6.38,11.18,9.4,12.42s12.49,3.22,12.49,9.54-4.46,8.5-8.23,8.5-8.37-2.74-10.91-8.44-2.61-8.37-2.61-8.37h-.62v16.26h.48a3.79,3.79,0,0,1,2.68-1.5c1.58,0,6.93,2.81,11.18,2.81s13-4.39,13-14-7.27-10.71-9.81-11.6"/></g></svg>